<svg width="1330" height="686" viewBox="0 0 1330 686" fill="none" xmlns="http://www.w3.org/2000/svg">
<g opacity="0.2">
<path opacity="0.5" d="M312.312 463.008C312.312 472.352 304.72 479.944 295.376 479.944C286.032 479.944 278.44 472.352 278.44 463.008C278.44 453.664 286.032 446.072 295.376 446.072C305.012 446.072 312.312 453.664 312.312 463.008Z" fill="url(#paint0_radial_310_2565)"/>
<path d="M295.96 438.48L297.42 462.716H294.208L295.96 438.48Z" fill="#FFFAEF"/>
<path d="M295.668 486.952L294.208 462.716H297.42L295.668 486.952Z" fill="#FFFAEF"/>
<path d="M319.904 462.716L295.668 464.176V460.964L319.904 462.716Z" fill="#FFFAEF"/>
<path d="M271.432 462.716L295.668 460.964V464.176L271.432 462.716Z" fill="#FFFAEF"/>
<path opacity="0.5" d="M252.16 514.108C252.16 523.452 244.568 531.044 235.224 531.044C225.88 531.044 218.288 523.452 218.288 514.108C218.288 504.764 225.88 497.172 235.224 497.172C244.86 497.464 252.16 505.056 252.16 514.108Z" fill="url(#paint1_radial_310_2565)"/>
<path d="M235.808 489.872L237.268 514.108H234.056L235.808 489.872Z" fill="#FFFAEF"/>
<path d="M235.516 538.344L234.056 514.108H237.268L235.516 538.344Z" fill="#FFFAEF"/>
<path d="M259.752 514.108L235.516 515.568V512.356L259.752 514.108Z" fill="#FFFAEF"/>
<path d="M211.28 513.816L235.516 512.356V515.568L211.28 513.816Z" fill="#FFFAEF"/>
<path opacity="0.5" d="M1131.08 273.208C1131.08 277.88 1127.28 281.676 1122.61 281.676C1117.94 281.676 1114.14 277.88 1114.14 273.208C1114.14 268.536 1117.94 264.74 1122.61 264.74C1127.28 264.74 1131.08 268.536 1131.08 273.208Z" fill="url(#paint2_radial_310_2565)"/>
<path d="M1122.9 260.944L1123.49 272.916H1122.03L1122.9 260.944Z" fill="#FFFAEF"/>
<path d="M1122.61 285.18L1122.03 272.916H1123.49L1122.61 285.18Z" fill="#FFFAEF"/>
<path d="M1134.88 273.208L1122.61 273.792V272.332L1134.88 273.208Z" fill="#FFFAEF"/>
<path d="M1110.64 272.916L1122.61 272.332V273.792L1110.64 272.916Z" fill="#FFFAEF"/>
<path opacity="0.5" d="M991.212 13.328C991.212 18 987.416 21.7959 982.744 21.7959C978.072 21.7959 974.276 18 974.276 13.328C974.276 8.65596 978.072 4.85999 982.744 4.85999C987.416 4.85999 991.212 8.65596 991.212 13.328Z" fill="url(#paint3_radial_310_2565)"/>
<path d="M982.744 1.06396L983.62 13.328H982.16L982.744 1.06396Z" fill="#FFFAEF"/>
<path d="M982.744 25.592L982.16 13.328H983.62L982.744 25.592Z" fill="#FFFAEF"/>
<path d="M995.008 13.328L982.744 14.204V12.452L995.008 13.328Z" fill="#FFFAEF"/>
<path d="M970.772 13.328L982.744 12.452V14.204L970.772 13.328Z" fill="#FFFAEF"/>
<path opacity="0.5" d="M725.784 184.44C725.784 189.112 721.988 192.908 717.316 192.908C712.644 192.908 708.848 189.112 708.848 184.44C708.848 179.768 712.644 175.972 717.316 175.972C721.988 175.972 725.784 179.768 725.784 184.44Z" fill="url(#paint4_radial_310_2565)"/>
<path d="M717.316 172.176L718.192 184.148H716.732L717.316 172.176Z" fill="#FFFAEF"/>
<path d="M717.316 196.412L716.732 184.148H718.192L717.316 196.412Z" fill="#FFFAEF"/>
<path d="M729.58 184.148L717.316 185.024V183.564L729.58 184.148Z" fill="#FFFAEF"/>
<path d="M705.344 184.148L717.316 183.564V185.024L705.344 184.148Z" fill="#FFFAEF"/>
<path opacity="0.5" d="M743.596 398.184C743.596 402.856 739.8 406.652 735.128 406.652C730.456 406.652 726.66 402.856 726.66 398.184C726.66 393.512 730.456 389.716 735.128 389.716C739.8 389.716 743.596 393.512 743.596 398.184Z" fill="url(#paint5_radial_310_2565)"/>
<path d="M735.42 385.92L736.004 397.892H734.544L735.42 385.92Z" fill="#FFFAEF"/>
<path d="M735.128 410.156L734.544 397.892H736.004L735.128 410.156Z" fill="#FFFAEF"/>
<path d="M747.392 397.892L735.128 398.768V397.016L747.392 397.892Z" fill="#FFFAEF"/>
<path d="M723.156 397.892L735.128 397.016V398.768L723.156 397.892Z" fill="#FFFAEF"/>
<path opacity="0.5" d="M1308.62 165.46C1308.62 170.132 1304.82 173.928 1300.15 173.928C1295.48 173.928 1291.68 170.132 1291.68 165.46C1291.68 160.788 1295.48 156.992 1300.15 156.992C1304.82 156.992 1308.62 160.788 1308.62 165.46Z" fill="url(#paint6_radial_310_2565)"/>
<path d="M1300.15 153.196L1301.02 165.46H1299.27L1300.15 153.196Z" fill="#FFFAEF"/>
<path d="M1300.15 177.724L1299.27 165.46H1301.02L1300.15 177.724Z" fill="#FFFAEF"/>
<path d="M1312.41 165.46L1300.15 166.336V164.584L1312.41 165.46Z" fill="#FFFAEF"/>
<path d="M1288.18 165.46L1300.15 164.584V166.336L1288.18 165.46Z" fill="#FFFAEF"/>
<path opacity="0.5" d="M44.2558 129.252C44.2558 133.924 40.4598 137.72 35.7878 137.72C31.1158 137.72 27.3198 133.924 27.3198 129.252C27.3198 124.58 31.1158 120.784 35.7878 120.784C40.4598 120.784 44.2558 124.58 44.2558 129.252Z" fill="url(#paint7_radial_310_2565)"/>
<path d="M35.7881 116.988L36.6641 128.96H35.2041L35.7881 116.988Z" fill="#FFFAEF"/>
<path d="M35.7881 141.224L35.2041 128.96H36.6641L35.7881 141.224Z" fill="#FFFAEF"/>
<path d="M48.0521 128.96L35.7881 129.836V128.376L48.0521 128.96Z" fill="#FFFAEF"/>
<path d="M23.8159 128.96L35.7879 128.376V129.836L23.8159 128.96Z" fill="#FFFAEF"/>
<path opacity="0.5" d="M276.98 248.972C276.98 253.644 273.184 257.44 268.512 257.44C263.84 257.44 260.044 253.644 260.044 248.972C260.044 244.3 263.84 240.504 268.512 240.504C273.184 240.504 276.98 244.3 276.98 248.972Z" fill="url(#paint8_radial_310_2565)"/>
<path d="M268.804 236.708L269.388 248.68H267.928L268.804 236.708Z" fill="#FFFAEF"/>
<path d="M268.804 260.944L267.928 248.68H269.388L268.804 260.944Z" fill="#FFFAEF"/>
<path d="M280.776 248.68L268.804 249.556V247.804L280.776 248.68Z" fill="#FFFAEF"/>
<path d="M256.54 248.68L268.804 247.804V249.556L256.54 248.68Z" fill="#FFFAEF"/>
<path opacity="0.5" d="M733.084 671.204C733.084 675.876 729.288 679.672 724.616 679.672C719.944 679.672 716.148 675.876 716.148 671.204C716.148 666.532 719.944 662.736 724.616 662.736C729.288 662.736 733.084 666.532 733.084 671.204Z" fill="url(#paint9_radial_310_2565)"/>
<path d="M724.616 658.94L725.492 671.204H723.74L724.616 658.94Z" fill="#FFFAEF"/>
<path d="M724.616 683.176L723.74 671.204H725.492L724.616 683.176Z" fill="#FFFAEF"/>
<path d="M736.88 671.204L724.616 672.08V670.328L736.88 671.204Z" fill="#FFFAEF"/>
<path d="M712.644 671.204L724.616 670.328V672.08L712.644 671.204Z" fill="#FFFAEF"/>
<path opacity="0.5" d="M1283.21 432.056C1283.21 436.728 1279.42 440.524 1274.74 440.524C1270.07 440.524 1266.28 436.728 1266.28 432.056C1266.28 427.384 1270.07 423.588 1274.74 423.588C1279.71 423.588 1283.21 427.384 1283.21 432.056Z" fill="url(#paint10_radial_310_2565)"/>
<path d="M1275.04 419.792L1275.91 432.056H1274.16L1275.04 419.792Z" fill="#FFFAEF"/>
<path d="M1275.04 444.028L1274.16 432.056H1275.91L1275.04 444.028Z" fill="#FFFAEF"/>
<path d="M1287.01 432.056L1275.04 432.64V431.18L1287.01 432.056Z" fill="#FFFAEF"/>
<path d="M1262.77 432.056L1275.04 431.18V432.64L1262.77 432.056Z" fill="#FFFAEF"/>
<path opacity="0.5" d="M705.928 141.516C705.928 150.86 698.336 158.452 688.992 158.452C679.648 158.452 672.056 150.86 672.056 141.516C672.056 132.172 679.648 124.58 688.992 124.58C698.628 124.58 705.928 132.172 705.928 141.516Z" fill="url(#paint11_radial_310_2565)"/>
<path d="M689.576 116.988L691.036 141.224H687.824L689.576 116.988Z" fill="#FFFAEF"/>
<path d="M689.284 165.46L687.824 141.224H691.036L689.284 165.46Z" fill="#FFFAEF"/>
<path d="M713.52 141.224L689.284 142.684V139.472L713.52 141.224Z" fill="#FFFAEF"/>
<path d="M665.048 141.224L689.284 139.472V142.684L665.048 141.224Z" fill="#FFFAEF"/>
<path opacity="0.5" d="M1151.52 514.108C1151.52 523.452 1143.93 531.044 1134.58 531.044C1125.24 531.044 1117.65 523.452 1117.65 514.108C1117.65 504.764 1125.24 497.172 1134.58 497.172C1143.93 497.464 1151.52 505.056 1151.52 514.108Z" fill="url(#paint12_radial_310_2565)"/>
<path d="M1134.88 489.872L1136.34 514.108H1133.12L1134.88 489.872Z" fill="#FFFAEF"/>
<path d="M1134.88 538.344L1133.12 514.108H1136.34L1134.88 538.344Z" fill="#FFFAEF"/>
<path d="M1159.11 514.108L1134.88 515.568V512.356L1159.11 514.108Z" fill="#FFFAEF"/>
<path d="M1110.64 513.816L1134.88 512.356V515.568L1110.64 513.816Z" fill="#FFFAEF"/>
<path d="M124.556 74.648C124.556 75.524 123.972 76.108 123.096 76.108C122.22 76.108 121.636 75.524 121.636 74.648C121.636 73.772 122.22 73.188 123.096 73.188C123.68 73.188 124.556 73.772 124.556 74.648Z" fill="#FFFAEF"/>
<path d="M454.808 153.196C454.808 154.072 454.224 154.656 453.348 154.656C452.472 154.656 451.888 154.072 451.888 153.196C451.888 152.32 452.472 151.736 453.348 151.736C454.224 151.736 454.808 152.32 454.808 153.196Z" fill="#FFFAEF"/>
<path d="M785.644 185.608C785.644 185.9 785.352 186.192 785.06 186.192C784.768 186.192 784.476 185.9 784.476 185.608C784.476 185.316 784.768 185.024 785.06 185.024C785.352 185.024 785.644 185.316 785.644 185.608Z" fill="#FFFAEF"/>
<path d="M797.032 43.404C797.032 43.696 796.74 43.988 796.448 43.988C796.156 43.988 795.864 43.696 795.864 43.404C795.864 43.112 796.156 42.82 796.448 42.82C796.74 42.528 797.032 42.82 797.032 43.404Z" fill="#FFFAEF"/>
<path d="M905.948 72.604C905.948 72.896 905.656 73.188 905.364 73.188C905.072 73.188 904.78 72.896 904.78 72.604C904.78 72.312 905.072 72.02 905.364 72.02C905.656 72.02 905.948 72.312 905.948 72.604Z" fill="#FFFAEF"/>
<path d="M556.132 6.61206C556.132 6.90406 555.84 7.19604 555.548 7.19604C555.256 7.19604 554.964 6.90406 554.964 6.61206C554.964 6.32006 555.256 6.02808 555.548 6.02808C555.84 6.02808 556.132 6.32006 556.132 6.61206Z" fill="#FFFAEF"/>
<path d="M757.028 120.784C757.028 121.076 756.736 121.368 756.444 121.368C756.152 121.368 755.86 121.076 755.86 120.784C755.86 120.492 756.152 120.2 756.444 120.2C756.736 119.908 757.028 120.492 757.028 120.784Z" fill="#FFFAEF"/>
<path d="M1273.28 536.3C1273.28 536.592 1272.99 536.884 1272.7 536.884C1272.41 536.884 1272.12 536.592 1272.12 536.3C1272.12 536.008 1272.41 535.716 1272.7 535.716C1272.99 535.716 1273.28 536.008 1273.28 536.3Z" fill="#FFFAEF"/>
<path d="M1189.77 618.936C1189.77 619.228 1189.48 619.52 1189.19 619.52C1188.9 619.52 1188.6 619.228 1188.6 618.936C1188.6 618.644 1188.9 618.352 1189.19 618.352C1189.48 618.06 1189.77 618.352 1189.77 618.936Z" fill="#FFFAEF"/>
<path d="M1088.74 594.992C1088.74 595.284 1088.45 595.576 1088.16 595.576C1087.86 595.576 1087.57 595.284 1087.57 594.992C1087.57 594.7 1087.86 594.408 1088.16 594.408C1088.45 594.408 1088.74 594.7 1088.74 594.992Z" fill="#FFFAEF"/>
<path d="M1074.72 677.336C1074.72 677.628 1074.43 677.92 1074.14 677.92C1073.85 677.92 1073.56 677.628 1073.56 677.336C1073.56 677.044 1073.85 676.752 1074.14 676.752C1074.43 676.46 1074.72 676.752 1074.72 677.336Z" fill="#FFFAEF"/>
<path d="M1238.24 594.408C1238.24 594.7 1237.95 594.992 1237.66 594.992C1237.37 594.992 1237.08 594.7 1237.08 594.408C1237.08 594.116 1237.37 593.824 1237.66 593.824C1237.95 593.532 1238.24 593.824 1238.24 594.408Z" fill="#FFFAEF"/>
<path d="M1212.55 531.044C1212.55 531.336 1212.26 531.628 1211.96 531.628C1211.67 531.628 1211.38 531.336 1211.38 531.044C1211.38 530.752 1211.67 530.46 1211.96 530.46C1211.96 530.46 1212.55 530.752 1212.55 531.044Z" fill="#FFFAEF"/>
<path d="M38.7081 291.604C38.7081 291.896 38.416 292.188 38.124 292.188C37.832 292.188 37.54 291.896 37.54 291.604C37.54 291.312 37.832 291.02 38.124 291.02C38.416 291.02 38.7081 291.312 38.7081 291.604Z" fill="#FFFAEF"/>
<path d="M28.1958 237.292C28.1958 237.584 27.9038 237.876 27.6118 237.876C27.3198 237.876 27.0278 237.584 27.0278 237.292C27.0278 237 27.3198 236.708 27.6118 236.708C27.6118 236.708 28.1958 237 28.1958 237.292Z" fill="#FFFAEF"/>
<path d="M149.084 242.548C149.084 242.84 148.792 243.132 148.5 243.132C148.208 243.132 147.916 242.84 147.916 242.548C147.916 242.256 148.208 241.964 148.5 241.964C148.792 241.964 149.084 242.256 149.084 242.548Z" fill="#FFFAEF"/>
<path d="M100.612 190.28C100.612 190.572 100.32 190.864 100.028 190.864C99.7359 190.864 99.4438 190.572 99.4438 190.28C99.4438 189.988 99.7359 189.696 100.028 189.696C100.32 189.696 100.612 189.988 100.612 190.28Z" fill="#FFFAEF"/>
<path d="M100.028 397.016C100.028 397.308 99.7359 397.6 99.4439 397.6C99.1519 397.6 98.8599 397.308 98.8599 397.016C98.8599 396.724 99.1519 396.432 99.4439 396.432C99.7359 396.432 100.028 396.724 100.028 397.016Z" fill="#FFFAEF"/>
<path d="M121.928 482.864C121.928 483.156 121.636 483.448 121.344 483.448C121.052 483.448 120.76 483.156 120.76 482.864C120.76 482.572 121.052 482.28 121.344 482.28C121.636 481.988 121.928 482.28 121.928 482.864Z" fill="#FFFAEF"/>
<path d="M177.408 434.684C177.408 434.976 177.116 435.268 176.824 435.268C176.532 435.268 176.24 434.976 176.24 434.684C176.24 434.392 176.532 434.1 176.824 434.1C177.116 434.1 177.408 434.392 177.408 434.684Z" fill="#FFFAEF"/>
<path d="M705.928 573.968C705.928 574.26 705.636 574.552 705.344 574.552C705.052 574.552 704.76 574.26 704.76 573.968C704.76 573.676 705.052 573.384 705.344 573.384C705.636 573.384 705.928 573.676 705.928 573.968Z" fill="#FFFAEF"/>
<path d="M698.336 496.296C698.336 496.588 698.044 496.88 697.752 496.88C697.46 496.88 697.168 496.588 697.168 496.296C697.168 496.004 697.46 495.712 697.752 495.712C698.044 495.712 698.336 496.004 698.336 496.296Z" fill="#FFFAEF"/>
<path d="M729.872 528.124C729.872 528.416 729.58 528.708 729.288 528.708C728.996 528.708 728.704 528.416 728.704 528.124C728.704 527.832 728.996 527.54 729.288 527.54C729.58 527.54 729.872 527.832 729.872 528.124Z" fill="#FFFAEF"/>
<path d="M588.544 528.124C588.544 528.416 588.252 528.708 587.96 528.708C587.668 528.708 587.376 528.416 587.376 528.124C587.376 527.832 587.668 527.54 587.96 527.54C588.252 527.54 588.544 527.832 588.544 528.124Z" fill="#FFFAEF"/>
<path d="M593.508 575.428C593.508 575.72 593.216 576.012 592.924 576.012C592.632 576.012 592.34 575.72 592.34 575.428C592.34 575.136 592.632 574.844 592.924 574.844C593.216 574.844 593.508 574.844 593.508 575.428Z" fill="#FFFAEF"/>
<path d="M523.136 576.012C523.136 576.304 522.844 576.596 522.552 576.596C522.26 576.596 521.968 576.304 521.968 576.012C521.968 575.72 522.26 575.428 522.552 575.428C522.844 575.428 523.136 575.72 523.136 576.012Z" fill="#FFFAEF"/>
<path d="M531.604 618.06C531.604 618.352 531.312 618.644 531.02 618.644C530.728 618.644 530.436 618.352 530.436 618.06C530.436 617.768 530.728 617.476 531.02 617.476C531.312 617.476 531.604 617.768 531.604 618.06Z" fill="#FFFAEF"/>
<path d="M577.74 624.484C577.74 624.776 577.448 625.068 577.156 625.068C576.864 625.068 576.572 624.776 576.572 624.484C576.572 624.192 576.864 623.9 577.156 623.9C577.448 623.9 577.74 624.192 577.74 624.484Z" fill="#FFFAEF"/>
<path d="M524.596 463.008C524.596 463.3 524.304 463.592 524.012 463.592C523.72 463.592 523.428 463.3 523.428 463.008C523.428 462.716 523.72 462.424 524.012 462.424C524.304 462.424 524.596 462.424 524.596 463.008Z" fill="#FFFAEF"/>
<path d="M333.628 558.2C333.628 558.492 333.336 558.784 333.044 558.784C332.752 558.784 332.46 558.492 332.46 558.2C332.46 557.908 332.752 557.616 333.044 557.616C333.336 557.616 333.628 557.908 333.628 558.2Z" fill="#FFFAEF"/>
<path d="M305.596 592.948C305.596 593.24 305.304 593.532 305.012 593.532C304.72 593.532 304.428 593.24 304.428 592.948C304.428 592.656 304.72 592.364 305.012 592.364C305.304 592.364 305.596 592.364 305.596 592.948Z" fill="#FFFAEF"/>
<path d="M359.032 665.072C359.032 665.364 358.74 665.656 358.448 665.656C358.156 665.656 357.864 665.364 357.864 665.072C357.864 664.78 358.156 664.488 358.448 664.488C358.74 664.488 359.032 664.78 359.032 665.072Z" fill="#FFFAEF"/>
<path d="M415.388 619.52C415.388 619.812 415.096 620.104 414.804 620.104C414.512 620.104 414.22 619.812 414.22 619.52C414.22 619.228 414.512 618.936 414.804 618.936C415.096 618.936 415.388 619.228 415.388 619.52Z" fill="#FFFAEF"/>
<path d="M333.044 643.464C333.044 643.756 332.752 644.048 332.46 644.048C332.168 644.048 331.876 643.756 331.876 643.464C331.876 643.172 332.168 642.88 332.46 642.88C332.752 642.588 333.044 642.88 333.044 643.464Z" fill="#FFFAEF"/>
<path d="M396.7 676.46C396.7 676.752 396.408 677.044 396.116 677.044C395.824 677.044 395.532 676.752 395.532 676.46C395.532 676.168 395.824 675.876 396.116 675.876C396.408 675.876 396.7 676.168 396.7 676.46Z" fill="#FFFAEF"/>
<path d="M128.644 677.92C128.644 678.212 128.352 678.504 128.06 678.504C127.768 678.504 127.476 678.212 127.476 677.92C127.476 677.628 127.768 677.336 128.06 677.336C128.352 677.336 128.644 677.628 128.644 677.92Z" fill="#FFFAEF"/>
<path d="M152.296 665.656C152.296 665.948 152.004 666.24 151.712 666.24C151.42 666.24 151.128 665.948 151.128 665.656C151.128 665.364 151.42 665.072 151.712 665.072C152.004 665.072 152.296 665.364 152.296 665.656Z" fill="#FFFAEF"/>
<path d="M40.46 606.38C40.46 606.672 40.168 606.964 39.876 606.964C39.584 606.964 39.292 606.672 39.292 606.38C39.292 606.088 39.584 605.796 39.876 605.796C40.168 605.796 40.46 606.088 40.46 606.38Z" fill="#FFFAEF"/>
<path d="M40.46 565.208C40.46 565.5 40.168 565.792 39.876 565.792C39.584 565.792 39.292 565.5 39.292 565.208C39.292 564.916 39.584 564.624 39.876 564.624C40.168 564.624 40.46 564.916 40.46 565.208Z" fill="#FFFAEF"/>
<path d="M257.124 642.004C257.124 642.296 256.832 642.588 256.54 642.588C256.248 642.588 255.956 642.296 255.956 642.004C255.956 641.712 256.248 641.42 256.54 641.42C256.832 641.42 257.124 641.712 257.124 642.004Z" fill="#FFFAEF"/>
<path d="M322.824 666.532C322.824 666.824 322.532 667.116 322.24 667.116C321.948 667.116 321.656 666.824 321.656 666.532C321.656 666.24 321.948 665.948 322.24 665.948C322.532 665.656 322.824 665.948 322.824 666.532Z" fill="#FFFAEF"/>
<path d="M290.12 671.204C290.12 671.496 289.828 671.788 289.536 671.788C289.244 671.788 288.952 671.496 288.952 671.204C288.952 670.912 289.244 670.62 289.536 670.62C289.828 670.62 290.12 670.912 290.12 671.204Z" fill="#FFFAEF"/>
<path d="M272.308 598.204C272.308 598.496 272.016 598.788 271.724 598.788C271.432 598.788 271.14 598.496 271.14 598.204C271.14 597.912 271.432 597.62 271.724 597.62C272.016 597.328 272.308 597.62 272.308 598.204Z" fill="#FFFAEF"/>
<path d="M459.772 672.08C459.772 672.372 459.48 672.664 459.188 672.664C458.896 672.664 458.604 672.372 458.604 672.08C458.604 671.788 458.896 671.496 459.188 671.496C459.48 671.496 459.772 671.496 459.772 672.08Z" fill="#FFFAEF"/>
<path d="M371.004 335.988C371.004 336.28 370.712 336.572 370.42 336.572C370.128 336.572 369.836 336.28 369.836 335.988C369.836 335.696 370.128 335.404 370.42 335.404C370.712 335.404 371.004 335.696 371.004 335.988Z" fill="#FFFAEF"/>
<path d="M329.832 301.532C329.832 301.824 329.54 302.116 329.248 302.116C328.956 302.116 328.664 301.824 328.664 301.532C328.664 301.24 328.956 300.948 329.248 300.948C329.54 300.656 329.832 300.948 329.832 301.532Z" fill="#FFFAEF"/>
<path d="M342.68 243.424C342.68 243.716 342.388 244.008 342.096 244.008C341.804 244.008 341.512 243.716 341.512 243.424C341.512 243.132 341.804 242.84 342.096 242.84C342.388 242.548 342.68 242.84 342.68 243.424Z" fill="#FFFAEF"/>
<path d="M192.3 606.964C192.3 607.256 192.008 607.548 191.716 607.548C191.424 607.548 191.132 607.256 191.132 606.964C191.132 606.672 191.424 606.38 191.716 606.38C192.008 606.38 192.3 606.672 192.3 606.964Z" fill="#FFFAEF"/>
<path d="M127.768 540.096C127.768 540.388 127.476 540.68 127.184 540.68C126.892 540.68 126.6 540.388 126.6 540.096C126.6 539.804 126.892 539.512 127.184 539.512C127.476 539.512 127.768 539.804 127.768 540.096Z" fill="#FFFAEF"/>
<path d="M374.8 431.18C374.8 431.472 374.508 431.764 374.216 431.764C373.924 431.764 373.632 431.472 373.632 431.18C373.632 430.888 373.924 430.596 374.216 430.596C374.508 430.596 374.8 430.888 374.8 431.18Z" fill="#FFFAEF"/>
<path d="M510.872 677.92C510.872 678.212 510.58 678.504 510.288 678.504C509.996 678.504 509.704 678.212 509.704 677.92C509.704 677.628 509.996 677.336 510.288 677.336C510.58 677.336 510.872 677.628 510.872 677.92Z" fill="#FFFAEF"/>
<path d="M776.884 642.588C776.884 642.88 776.592 643.172 776.3 643.172C776.008 643.172 775.716 642.88 775.716 642.588C775.716 642.296 776.008 642.004 776.3 642.004C776.592 642.004 776.884 642.296 776.884 642.588Z" fill="#FFFAEF"/>
<path d="M825.064 658.94C825.064 659.232 824.772 659.524 824.48 659.524C824.188 659.524 823.896 659.232 823.896 658.94C823.896 658.648 824.188 658.356 824.48 658.356C824.772 658.356 825.064 658.648 825.064 658.94Z" fill="#FFFAEF"/>
<path d="M801.996 595.576C801.996 595.868 801.704 596.16 801.412 596.16C801.12 596.16 800.828 595.868 800.828 595.576C800.828 595.284 801.12 594.992 801.412 594.992C801.704 594.992 801.996 595.284 801.996 595.576Z" fill="#FFFAEF"/>
<path d="M811.632 474.688C811.632 474.98 811.34 475.272 811.048 475.272C810.756 475.272 810.464 474.98 810.464 474.688C810.464 474.396 810.756 474.104 811.048 474.104C811.34 474.104 811.632 474.396 811.632 474.688Z" fill="#FFFAEF"/>
<path d="M820.976 347.084C820.976 347.376 820.684 347.668 820.392 347.668C820.1 347.668 819.808 347.376 819.808 347.084C819.808 346.792 820.1 346.5 820.392 346.5C820.684 346.5 820.976 346.792 820.976 347.084Z" fill="#FFFAEF"/>
<path d="M854.556 332.776C854.556 333.068 854.264 333.36 853.972 333.36C853.68 333.36 853.388 333.068 853.388 332.776C853.388 332.484 853.68 332.192 853.972 332.192C854.264 332.192 854.556 332.484 854.556 332.776Z" fill="#FFFAEF"/>
<path d="M757.028 281.676C757.028 281.968 756.736 282.26 756.444 282.26C756.152 282.26 755.86 281.968 755.86 281.676C755.86 281.384 756.152 281.092 756.444 281.092C756.736 280.8 757.028 281.092 757.028 281.676Z" fill="#FFFAEF"/>
<path d="M764.036 244.008C764.036 244.3 763.744 244.592 763.452 244.592C763.16 244.592 762.868 244.3 762.868 244.008C762.868 243.716 763.16 243.424 763.452 243.424C763.744 243.424 764.036 243.716 764.036 244.008Z" fill="#FFFAEF"/>
<path d="M1174.3 1.06396C1174.3 1.35596 1174 1.64795 1173.71 1.64795C1173.42 1.64795 1173.13 1.35596 1173.13 1.06396C1173.13 0.771968 1173.42 0.47998 1173.71 0.47998C1174 0.47998 1174.3 0.771968 1174.3 1.06396Z" fill="#FFFAEF"/>
<path d="M824.772 0.480003C824.772 0.771999 824.48 0.771973 824.48 0.771973C824.188 0.771973 824.188 0.480003 824.188 0.480003C824.188 0.188006 824.48 0.187988 824.48 0.187988C824.48 0.187988 824.772 0.188006 824.772 0.480003Z" fill="#FFFAEF"/>
<path d="M847.256 43.9881C847.256 44.28 846.964 44.2801 846.964 44.2801C846.672 44.2801 846.672 43.9881 846.672 43.9881C846.672 43.6961 846.964 43.696 846.964 43.696C846.964 43.696 847.256 43.6961 847.256 43.9881Z" fill="#FFFAEF"/>
<path d="M897.772 25.592C897.772 25.884 897.48 25.884 897.48 25.884C897.188 25.884 897.188 25.592 897.188 25.592C897.188 25.3 897.48 25.3 897.48 25.3C897.772 25.008 897.772 25.3 897.772 25.592Z" fill="#FFFAEF"/>
<path d="M1073.85 139.472C1073.85 139.764 1073.56 139.764 1073.56 139.764C1073.26 139.764 1073.26 139.472 1073.26 139.472C1073.26 139.18 1073.56 139.18 1073.56 139.18C1073.85 139.18 1073.85 139.472 1073.85 139.472Z" fill="#FFFAEF"/>
<path d="M333.336 126.332C333.336 126.624 333.044 126.624 333.044 126.624C332.752 126.624 332.752 126.332 332.752 126.332C332.752 126.04 333.044 126.04 333.044 126.04C333.336 125.748 333.336 126.04 333.336 126.332Z" fill="#FFFAEF"/>
<path d="M350.856 88.372C350.856 88.664 350.564 88.6641 350.564 88.6641C350.272 88.6641 350.272 88.372 350.272 88.372C350.272 88.08 350.564 88.0801 350.564 88.0801C350.856 87.7881 350.856 88.08 350.856 88.372Z" fill="#FFFAEF"/>
<path d="M365.164 112.316C365.164 112.608 364.872 112.608 364.872 112.608C364.58 112.608 364.58 112.316 364.58 112.316C364.58 112.024 364.872 112.024 364.872 112.024C364.872 112.024 365.164 112.024 365.164 112.316Z" fill="#FFFAEF"/>
<path d="M283.988 35.5201C283.988 35.8121 283.696 35.812 283.696 35.812C283.404 35.812 283.404 35.5201 283.404 35.5201C283.404 35.228 283.696 35.228 283.696 35.228C283.696 35.228 283.988 35.228 283.988 35.5201Z" fill="#FFFAEF"/>
<path d="M395.532 249.556C395.532 249.848 395.24 249.848 395.24 249.848C394.948 249.848 394.948 249.556 394.948 249.556C394.948 249.264 395.24 249.264 395.24 249.264C395.532 249.264 395.532 249.264 395.532 249.556Z" fill="#FFFAEF"/>
<path d="M751.772 327.228C751.772 327.52 751.48 327.52 751.48 327.52C751.188 327.52 751.188 327.228 751.188 327.228C751.188 326.936 751.48 326.936 751.48 326.936C751.48 326.644 751.772 326.936 751.772 327.228Z" fill="#FFFAEF"/>
<path d="M784.476 307.664C784.476 307.956 784.184 307.956 784.184 307.956C783.892 307.956 783.892 307.664 783.892 307.664C783.892 307.372 784.184 307.372 784.184 307.372C784.476 307.372 784.476 307.372 784.476 307.664Z" fill="#FFFAEF"/>
<path d="M717.024 264.74C717.024 265.032 716.732 265.032 716.732 265.032C716.44 265.032 716.44 264.74 716.44 264.74C716.44 264.448 716.732 264.448 716.732 264.448C716.732 264.448 717.024 264.448 717.024 264.74Z" fill="#FFFAEF"/>
<path d="M764.328 207.216C764.328 207.508 764.036 207.508 764.036 207.508C763.744 207.508 763.744 207.216 763.744 207.216C763.744 206.924 764.036 206.924 764.036 206.924C764.328 206.924 764.328 206.924 764.328 207.216Z" fill="#FFFAEF"/>
<path d="M818.932 251.892C818.932 252.184 818.64 252.184 818.64 252.184C818.348 252.184 818.348 251.892 818.348 251.892C818.348 251.6 818.64 251.6 818.64 251.6C818.64 251.6 818.932 251.6 818.932 251.892Z" fill="#FFFAEF"/>
<path d="M1014.57 359.348C1014.57 359.64 1014.28 359.64 1014.28 359.64C1013.99 359.64 1013.99 359.348 1013.99 359.348C1013.99 359.056 1014.28 359.056 1014.28 359.056C1014.28 358.764 1014.57 359.056 1014.57 359.348Z" fill="#FFFAEF"/>
<path d="M1035.3 301.532C1035.3 301.824 1035.01 301.824 1035.01 301.824C1034.72 301.824 1034.72 301.532 1034.72 301.532C1034.72 301.24 1035.01 301.24 1035.01 301.24C1035.01 300.948 1035.3 301.24 1035.3 301.532Z" fill="#FFFAEF"/>
<path d="M1101.3 312.336C1101.3 312.628 1101 312.628 1101 312.628C1100.71 312.628 1100.71 312.336 1100.71 312.336C1100.71 312.044 1101 312.044 1101 312.044C1101.3 312.044 1101.3 312.044 1101.3 312.336Z" fill="#FFFAEF"/>
<path d="M1073.56 341.828C1073.56 342.12 1073.26 342.12 1073.26 342.12C1072.97 342.12 1072.97 341.828 1072.97 341.828C1072.97 341.536 1073.26 341.536 1073.26 341.536C1073.56 341.244 1073.56 341.536 1073.56 341.828Z" fill="#FFFAEF"/>
<path d="M1075.89 300.656C1075.89 300.948 1075.6 300.948 1075.6 300.948C1075.31 300.948 1075.31 300.656 1075.31 300.656C1075.31 300.364 1075.6 300.364 1075.6 300.364C1075.89 300.364 1075.89 300.656 1075.89 300.656Z" fill="#FFFAEF"/>
<path d="M1049.9 406.36C1049.9 406.652 1049.61 406.652 1049.61 406.652C1049.32 406.652 1049.32 406.36 1049.32 406.36C1049.32 406.068 1049.61 406.068 1049.61 406.068L1049.9 406.36Z" fill="#FFFAEF"/>
<path d="M1101.3 370.152C1101.3 370.444 1101 370.444 1101 370.444C1100.71 370.444 1100.71 370.152 1100.71 370.152C1100.71 369.86 1101 369.86 1101 369.86C1101.3 369.568 1101.3 369.86 1101.3 370.152Z" fill="#FFFAEF"/>
<path d="M1021 502.72C1021 503.012 1020.7 503.012 1020.7 503.012C1020.41 503.012 1020.41 502.72 1020.41 502.72C1020.41 502.428 1020.7 502.428 1020.7 502.428C1021 502.136 1021 502.428 1021 502.72Z" fill="#FFFAEF"/>
<path d="M935.148 559.66C935.148 559.952 934.856 559.952 934.856 559.952C934.564 559.952 934.564 559.66 934.564 559.66C934.564 559.368 934.856 559.368 934.856 559.368C935.148 559.368 935.148 559.368 935.148 559.66Z" fill="#FFFAEF"/>
<path d="M1008.44 659.816C1008.44 660.108 1008.15 660.108 1008.15 660.108C1007.86 660.108 1007.86 659.816 1007.86 659.816C1007.86 659.524 1008.15 659.524 1008.15 659.524C1008.44 659.232 1008.44 659.524 1008.44 659.816Z" fill="#FFFAEF"/>
<path d="M1082.9 626.82C1082.9 627.112 1082.61 627.112 1082.61 627.112C1082.32 627.112 1082.32 626.82 1082.32 626.82C1082.32 626.528 1082.61 626.528 1082.61 626.528C1082.61 626.236 1082.9 626.528 1082.9 626.82Z" fill="#FFFAEF"/>
<path d="M1099.25 536.3C1099.25 536.592 1098.96 536.592 1098.96 536.592C1098.67 536.592 1098.67 536.3 1098.67 536.3C1098.67 536.008 1098.96 536.008 1098.96 536.008C1099.25 536.008 1099.25 536.3 1099.25 536.3Z" fill="#FFFAEF"/>
<path d="M1141.59 571.924C1141.59 572.216 1141.3 572.216 1141.3 572.216C1141.01 572.216 1141.01 571.924 1141.01 571.924C1141.01 571.632 1141.3 571.632 1141.3 571.632C1141.3 571.632 1141.59 571.632 1141.59 571.924Z" fill="#FFFAEF"/>
<path d="M1195.61 498.048C1195.61 498.34 1195.32 498.34 1195.32 498.34C1195.03 498.34 1195.03 498.048 1195.03 498.048C1195.03 497.756 1195.32 497.756 1195.32 497.756C1195.61 497.756 1195.61 498.048 1195.61 498.048Z" fill="#FFFAEF"/>
<path d="M1151.81 474.104C1151.81 474.396 1151.52 474.396 1151.52 474.396C1151.23 474.396 1151.23 474.104 1151.23 474.104C1151.23 473.812 1151.52 473.812 1151.52 473.812C1151.81 473.812 1151.81 473.812 1151.81 474.104Z" fill="#FFFAEF"/>
<path d="M1072.68 460.964C1072.68 461.256 1072.39 461.256 1072.39 461.256C1072.1 461.256 1072.1 460.964 1072.1 460.964C1072.1 460.672 1072.39 460.672 1072.39 460.672L1072.68 460.964Z" fill="#FFFAEF"/>
<path d="M1093.7 446.072C1093.7 446.364 1093.41 446.364 1093.41 446.364C1093.12 446.364 1093.12 446.072 1093.12 446.072C1093.12 445.78 1093.41 445.78 1093.41 445.78C1093.7 445.78 1093.7 446.072 1093.7 446.072Z" fill="#FFFAEF"/>
<path d="M1141.3 369.568C1141.3 369.86 1141.01 369.86 1141.01 369.86C1140.72 369.86 1140.72 369.568 1140.72 369.568C1140.72 369.276 1141.01 369.276 1141.01 369.276L1141.3 369.568Z" fill="#FFFAEF"/>
<path d="M1198.24 254.812C1198.24 255.104 1197.95 255.104 1197.95 255.104C1197.66 255.104 1197.66 254.812 1197.66 254.812C1197.66 254.52 1197.95 254.52 1197.95 254.52C1197.95 254.52 1198.24 254.52 1198.24 254.812Z" fill="#FFFAEF"/>
<path d="M1172.25 57.4199C1172.25 57.7119 1171.96 57.7119 1171.96 57.7119C1171.67 57.7119 1171.67 57.4199 1171.67 57.4199C1171.67 57.1279 1171.96 57.1279 1171.96 57.1279C1172.25 57.1279 1172.25 57.1279 1172.25 57.4199Z" fill="#FFFAEF"/>
<path d="M1194.44 29.388C1194.44 29.68 1194.15 29.68 1194.15 29.68C1193.86 29.68 1193.86 29.388 1193.86 29.388C1193.86 29.096 1194.15 29.0959 1194.15 29.0959L1194.44 29.388Z" fill="#FFFAEF"/>
<path d="M1235.32 257.148C1235.32 257.44 1235.03 257.732 1234.74 257.732C1234.45 257.732 1234.16 257.44 1234.16 257.148C1234.16 256.856 1234.45 256.564 1234.74 256.564C1235.03 256.564 1235.32 256.856 1235.32 257.148Z" fill="#FFFAEF"/>
<path d="M1245.54 207.8C1245.54 208.092 1245.25 208.384 1244.96 208.384C1244.67 208.384 1244.38 208.092 1244.38 207.8C1244.38 207.508 1244.67 207.216 1244.96 207.216C1245.25 207.216 1245.54 207.508 1245.54 207.8Z" fill="#FFFAEF"/>
<path d="M1252.26 151.736C1252.26 152.028 1251.97 152.32 1251.68 152.32C1251.38 152.32 1251.09 152.028 1251.09 151.736C1251.09 151.444 1251.38 151.152 1251.68 151.152C1251.97 151.152 1252.26 151.444 1252.26 151.736Z" fill="#FFFAEF"/>
<path d="M1329.35 211.888C1329.35 212.18 1329.06 212.472 1328.76 212.472C1328.47 212.472 1328.18 212.18 1328.18 211.888C1328.18 211.596 1328.47 211.304 1328.76 211.304C1329.06 211.012 1329.35 211.304 1329.35 211.888Z" fill="#FFFAEF"/>
<path d="M1327.89 73.188C1327.89 73.48 1327.6 73.772 1327.3 73.772C1327.01 73.772 1326.72 73.48 1326.72 73.188C1326.72 72.896 1327.01 72.604 1327.3 72.604C1327.6 72.604 1327.89 72.896 1327.89 73.188Z" fill="#FFFAEF"/>
<path d="M1298.69 93.92C1298.69 94.212 1298.4 94.504 1298.1 94.504C1297.81 94.504 1297.52 94.212 1297.52 93.92C1297.52 93.628 1297.81 93.336 1298.1 93.336C1298.1 93.044 1298.69 93.336 1298.69 93.92Z" fill="#FFFAEF"/>
<path d="M1329.35 430.596C1329.35 430.888 1329.06 431.18 1328.76 431.18C1328.47 431.18 1328.18 430.888 1328.18 430.596C1328.18 430.304 1328.47 430.012 1328.76 430.012C1329.06 429.72 1329.35 430.012 1329.35 430.596Z" fill="#FFFAEF"/>
<path d="M1329.35 389.716C1329.35 390.008 1329.06 390.3 1328.76 390.3C1328.47 390.3 1328.18 390.008 1328.18 389.716C1328.18 389.424 1328.47 389.132 1328.76 389.132C1329.06 388.84 1329.35 389.132 1329.35 389.716Z" fill="#FFFAEF"/>
<path d="M1263.65 376.868C1263.65 377.16 1263.36 377.452 1263.06 377.452C1262.77 377.452 1262.48 377.16 1262.48 376.868C1262.48 376.576 1262.77 376.284 1263.06 376.284C1263.36 375.992 1263.65 376.284 1263.65 376.868Z" fill="#FFFAEF"/>
<path d="M1260.44 489.872C1260.44 490.164 1260.14 490.456 1259.85 490.456C1259.56 490.456 1259.27 490.164 1259.27 489.872C1259.27 489.58 1259.56 489.288 1259.85 489.288C1260.14 488.996 1260.44 489.288 1260.44 489.872Z" fill="#FFFAEF"/>
<path d="M1321.46 501.844C1321.46 502.136 1321.17 502.428 1320.88 502.428C1320.59 502.428 1320.3 502.136 1320.3 501.844C1320.3 501.552 1320.59 501.26 1320.88 501.26C1321.17 501.26 1321.46 501.552 1321.46 501.844Z" fill="#FFFAEF"/>
<path d="M1322.34 552.652C1322.34 552.944 1322.05 553.236 1321.76 553.236C1321.46 553.236 1321.17 552.944 1321.17 552.652C1321.17 552.36 1321.46 552.068 1321.76 552.068C1322.05 551.776 1322.34 552.068 1322.34 552.652Z" fill="#FFFAEF"/>
<path d="M1299.27 576.596C1299.27 576.888 1298.98 577.18 1298.69 577.18C1298.4 577.18 1298.1 576.888 1298.1 576.596C1298.1 576.304 1298.4 576.012 1298.69 576.012C1298.98 576.012 1299.27 576.304 1299.27 576.596Z" fill="#FFFAEF"/>
<path d="M1239.12 556.448C1239.12 556.74 1238.83 557.032 1238.54 557.032C1238.24 557.032 1237.95 556.74 1237.95 556.448C1237.95 556.156 1238.24 555.864 1238.54 555.864C1238.83 555.864 1239.12 556.156 1239.12 556.448Z" fill="#FFFAEF"/>
<path d="M1022.16 584.772C1022.16 585.064 1021.87 585.356 1021.58 585.356C1021.29 585.356 1021 585.064 1021 584.772C1021 584.48 1021.29 584.188 1021.58 584.188C1021.87 583.896 1022.16 584.188 1022.16 584.772Z" fill="#FFFAEF"/>
<path d="M1044.94 540.096C1044.94 540.388 1044.65 540.68 1044.36 540.68C1044.06 540.68 1043.77 540.388 1043.77 540.096C1043.77 539.804 1044.06 539.512 1044.36 539.512C1044.65 539.512 1044.94 539.804 1044.94 540.096Z" fill="#FFFAEF"/>
<path d="M975.152 559.076C975.152 559.368 974.86 559.66 974.568 559.66C974.276 559.66 973.984 559.368 973.984 559.076C973.984 558.784 974.276 558.492 974.568 558.492C974.86 558.2 975.152 558.492 975.152 559.076Z" fill="#FFFAEF"/>
<path d="M968.436 501.844C968.436 502.136 968.144 502.428 967.852 502.428C967.56 502.428 967.268 502.136 967.268 501.844C967.268 501.552 967.56 501.26 967.852 501.26C968.144 501.26 968.436 501.552 968.436 501.844Z" fill="#FFFAEF"/>
<path d="M869.448 512.356C869.448 512.648 869.156 512.94 868.864 512.94C868.572 512.94 868.28 512.648 868.28 512.356C868.28 512.064 868.572 511.772 868.864 511.772C869.156 511.772 869.448 512.064 869.448 512.356Z" fill="#FFFAEF"/>
<path d="M910.036 475.564C910.036 475.856 909.744 476.148 909.452 476.148C909.16 476.148 908.868 475.856 908.868 475.564C908.868 475.272 909.16 474.98 909.452 474.98C909.744 474.688 910.036 474.98 910.036 475.564Z" fill="#FFFAEF"/>
<path d="M910.62 497.464C910.62 497.756 910.328 498.048 910.036 498.048C909.744 498.048 909.452 497.756 909.452 497.464C909.452 497.172 909.744 496.88 910.036 496.88C910.328 496.588 910.62 497.172 910.62 497.464Z" fill="#FFFAEF"/>
<path d="M956.756 446.072C956.756 446.364 956.464 446.656 956.172 446.656C955.88 446.656 955.588 446.364 955.588 446.072C955.588 445.78 955.88 445.488 956.172 445.488C956.464 445.488 956.756 445.78 956.756 446.072Z" fill="#FFFAEF"/>
<path d="M713.228 369.276C713.228 369.568 712.936 369.86 712.644 369.86C712.352 369.86 712.06 369.568 712.06 369.276C712.06 368.984 712.352 368.692 712.644 368.692C712.936 368.692 713.228 368.984 713.228 369.276Z" fill="#FFFAEF"/>
<path d="M691.62 401.688C691.62 401.98 691.328 402.272 691.036 402.272C690.744 402.272 690.452 401.98 690.452 401.688C690.452 401.396 690.744 401.104 691.036 401.104C691.328 401.104 691.62 401.396 691.62 401.688Z" fill="#FFFAEF"/>
<path d="M747.392 419.792C747.392 420.084 747.1 420.376 746.808 420.376C746.516 420.376 746.224 420.084 746.224 419.792C746.224 419.5 746.516 419.208 746.808 419.208C747.1 419.208 747.392 419.5 747.392 419.792Z" fill="#FFFAEF"/>
<path d="M975.152 598.204C975.152 598.496 974.86 598.788 974.568 598.788C974.276 598.788 973.984 598.496 973.984 598.204C973.984 597.912 974.276 597.62 974.568 597.62C974.86 597.328 975.152 597.62 975.152 598.204Z" fill="#FFFAEF"/>
<path d="M1008.15 554.696C1008.15 554.988 1007.86 555.28 1007.56 555.28C1007.27 555.28 1006.98 554.988 1006.98 554.696C1006.98 554.404 1007.27 554.112 1007.56 554.112C1007.86 553.82 1008.15 554.112 1008.15 554.696Z" fill="#FFFAEF"/>
<path d="M945.952 643.464C945.952 643.756 945.66 644.048 945.368 644.048C945.076 644.048 944.784 643.756 944.784 643.464C944.784 643.172 945.076 642.88 945.368 642.88C945.66 642.588 945.952 642.88 945.952 643.464Z" fill="#FFFAEF"/>
<path d="M1042.9 622.44C1042.9 622.732 1042.6 623.024 1042.31 623.024C1042.02 623.024 1041.73 622.732 1041.73 622.44C1041.73 622.148 1042.02 621.856 1042.31 621.856C1042.6 621.856 1042.9 622.148 1042.9 622.44Z" fill="#FFFAEF"/>
<path d="M1073.56 572.508C1073.56 572.8 1073.26 573.092 1072.97 573.092C1072.68 573.092 1072.39 572.8 1072.39 572.508C1072.39 572.216 1072.68 571.924 1072.97 571.924C1073.26 571.924 1073.56 572.216 1073.56 572.508Z" fill="#FFFAEF"/>
<path d="M1102.17 575.428C1102.17 575.72 1101.88 576.012 1101.59 576.012C1101.3 576.012 1101 575.72 1101 575.428C1101 575.136 1101.3 574.844 1101.59 574.844C1101.88 574.844 1102.17 574.844 1102.17 575.428Z" fill="#FFFAEF"/>
<path d="M1179.26 215.976C1179.26 216.268 1178.97 216.56 1178.68 216.56C1178.38 216.56 1178.09 216.268 1178.09 215.976C1178.09 215.684 1178.38 215.392 1178.68 215.392C1178.97 215.1 1179.26 215.392 1179.26 215.976Z" fill="#FFFAEF"/>
<path d="M1278.54 317.008C1278.54 317.3 1278.25 317.592 1277.96 317.592C1277.66 317.592 1277.37 317.3 1277.37 317.008C1277.37 316.716 1277.66 316.424 1277.96 316.424C1278.25 316.424 1278.54 316.716 1278.54 317.008Z" fill="#FFFAEF"/>
<path d="M1269.49 93.0441C1269.49 93.3361 1269.2 93.6281 1268.9 93.6281C1268.61 93.6281 1268.32 93.3361 1268.32 93.0441C1268.32 92.7521 1268.61 92.4601 1268.9 92.4601C1269.2 92.4601 1269.49 92.7521 1269.49 93.0441Z" fill="#FFFAEF"/>
<path d="M1327.3 112.316C1327.3 112.608 1327.01 112.9 1326.72 112.9C1326.43 112.9 1326.14 112.608 1326.14 112.316C1326.14 112.024 1326.43 111.732 1326.72 111.732C1327.01 111.732 1327.3 112.024 1327.3 112.316Z" fill="#FFFAEF"/>
<path d="M1306.57 345.332C1306.57 345.624 1306.28 345.916 1305.99 345.916C1305.7 345.916 1305.4 345.624 1305.4 345.332C1305.4 345.04 1305.7 344.748 1305.99 344.748C1306.28 344.456 1306.57 344.748 1306.57 345.332Z" fill="#FFFAEF"/>
<path d="M1234.16 371.32C1234.16 371.612 1233.86 371.904 1233.57 371.904C1233.28 371.904 1232.99 371.612 1232.99 371.32C1232.99 371.028 1233.28 370.736 1233.57 370.736C1233.86 370.736 1234.16 371.028 1234.16 371.32Z" fill="#FFFAEF"/>
<path d="M1031.8 235.832C1031.8 236.124 1031.51 236.416 1031.22 236.416C1030.92 236.416 1030.63 236.124 1030.63 235.832C1030.63 235.54 1030.92 235.248 1031.22 235.248C1031.51 235.248 1031.8 235.54 1031.8 235.832Z" fill="#FFFAEF"/>
<path d="M1014.28 215.976C1014.28 216.268 1013.99 216.56 1013.7 216.56C1013.4 216.56 1013.11 216.268 1013.11 215.976C1013.11 215.684 1013.4 215.392 1013.7 215.392C1013.7 215.1 1014.28 215.392 1014.28 215.976Z" fill="#FFFAEF"/>
<path d="M1031.22 135.092C1031.22 135.384 1030.92 135.676 1030.63 135.676C1030.34 135.676 1030.05 135.384 1030.05 135.092C1030.05 134.8 1030.34 134.508 1030.63 134.508C1030.92 134.508 1031.22 134.8 1031.22 135.092Z" fill="#FFFAEF"/>
<path d="M1101 185.024C1101 185.316 1100.71 185.608 1100.42 185.608C1100.13 185.608 1099.84 185.316 1099.84 185.024C1099.84 184.732 1100.13 184.44 1100.42 184.44C1100.71 184.148 1101 184.44 1101 185.024Z" fill="#FFFAEF"/>
<path d="M1060.12 240.504C1060.12 240.796 1059.83 241.088 1059.54 241.088C1059.25 241.088 1058.96 240.796 1058.96 240.504C1058.96 240.212 1059.25 239.92 1059.54 239.92C1059.83 239.628 1060.12 239.92 1060.12 240.504Z" fill="#FFFAEF"/>
<path d="M561.096 196.412C561.096 196.704 560.804 196.996 560.512 196.996C560.22 196.996 559.928 196.704 559.928 196.412C559.928 196.12 560.22 195.828 560.512 195.828C560.512 195.828 561.096 196.12 561.096 196.412Z" fill="#FFFAEF"/>
<path d="M514.668 207.216C514.668 207.508 514.376 207.8 514.084 207.8C513.792 207.8 513.5 207.508 513.5 207.216C513.5 206.924 513.792 206.632 514.084 206.632C514.376 206.632 514.668 206.924 514.668 207.216Z" fill="#FFFAEF"/>
<path d="M525.472 275.544C525.472 275.836 525.18 276.128 524.888 276.128C524.596 276.128 524.304 275.836 524.304 275.544C524.304 275.252 524.596 274.96 524.888 274.96C525.18 274.96 525.472 274.96 525.472 275.544Z" fill="#FFFAEF"/>
<path d="M287.492 312.92C287.492 313.212 287.2 313.504 286.908 313.504C286.616 313.504 286.324 313.212 286.324 312.92C286.324 312.628 286.616 312.336 286.908 312.336C287.2 312.336 287.492 312.628 287.492 312.92Z" fill="#FFFAEF"/>
<path d="M312.896 370.736C312.896 371.028 312.604 371.32 312.312 371.32C312.02 371.32 311.728 371.028 311.728 370.736C311.728 370.444 312.02 370.152 312.312 370.152C312.604 370.152 312.896 370.444 312.896 370.736Z" fill="#FFFAEF"/>
<path d="M1075.31 57.42C1075.31 57.712 1075.02 58.004 1074.72 58.004C1074.43 58.004 1074.14 57.712 1074.14 57.42C1074.14 57.128 1074.43 56.8359 1074.72 56.8359C1075.02 56.8359 1075.31 57.128 1075.31 57.42Z" fill="#FFFAEF"/>
<path d="M523.136 8.948C523.136 9.23999 522.844 9.53198 522.552 9.53198C522.26 9.53198 521.968 9.23999 521.968 8.948C521.968 8.656 522.26 8.36401 522.552 8.36401C522.844 8.36401 523.136 8.656 523.136 8.948Z" fill="#FFFAEF"/>
<path d="M1052.53 172.176C1052.53 172.468 1052.24 172.76 1051.95 172.76C1051.66 172.76 1051.36 172.468 1051.36 172.176C1051.36 171.884 1051.66 171.592 1051.95 171.592C1052.24 171.592 1052.53 171.592 1052.53 172.176Z" fill="#FFFAEF"/>
<path d="M877.624 236.708C877.624 237 877.332 237.292 877.04 237.292C876.748 237.292 876.456 237 876.456 236.708C876.456 236.416 876.748 236.124 877.04 236.124C877.332 235.832 877.624 236.124 877.624 236.708Z" fill="#FFFAEF"/>
<path d="M1060.71 112.9C1060.71 113.192 1060.42 113.484 1060.12 113.484C1059.83 113.484 1059.54 113.192 1059.54 112.9C1059.54 112.608 1059.83 112.316 1060.12 112.316C1060.42 112.316 1060.71 112.608 1060.71 112.9Z" fill="#FFFAEF"/>
<path d="M801.412 375.992C801.412 376.284 801.12 376.576 800.828 376.576C800.536 376.576 800.244 376.284 800.244 375.992C800.244 375.7 800.536 375.408 800.828 375.408C801.12 375.408 801.412 375.7 801.412 375.992Z" fill="#FFFAEF"/>
<path d="M323.408 214.516C323.408 214.808 323.116 215.1 322.824 215.1C322.532 215.1 322.24 214.808 322.24 214.516C322.24 214.224 322.532 213.932 322.824 213.932C323.116 213.932 323.408 214.224 323.408 214.516Z" fill="#FFFAEF"/>
<path d="M427.944 37.272C427.944 37.564 427.652 37.856 427.36 37.856C427.068 37.856 426.776 37.564 426.776 37.272C426.776 36.98 427.068 36.688 427.36 36.688C427.652 36.688 427.944 36.98 427.944 37.272Z" fill="#FFFAEF"/>
<path d="M187.628 93.92C187.628 94.212 187.336 94.504 187.044 94.504C186.752 94.504 186.46 94.212 186.46 93.92C186.46 93.628 186.752 93.336 187.044 93.336C187.336 93.044 187.628 93.336 187.628 93.92Z" fill="#FFFAEF"/>
<path d="M173.904 185.024C173.904 185.316 173.612 185.608 173.32 185.608C173.028 185.608 172.736 185.316 172.736 185.024C172.736 184.732 173.028 184.44 173.32 184.44C173.612 184.148 173.904 184.44 173.904 185.024Z" fill="#FFFAEF"/>
<path d="M1.62405 78.152C1.62405 78.444 1.33205 78.736 1.04005 78.736C0.748056 78.736 0.456055 78.444 0.456055 78.152C0.456055 77.86 0.748056 77.568 1.04005 77.568C1.33205 77.276 1.62405 77.568 1.62405 78.152Z" fill="#FFFAEF"/>
<path d="M297.712 6.02797C297.712 6.31997 297.42 6.61197 297.128 6.61197C296.836 6.61197 296.544 6.31997 296.544 6.02797C296.544 5.73597 296.836 5.44397 297.128 5.44397C297.42 5.44397 297.712 5.44396 297.712 6.02797Z" fill="#FFFAEF"/>
<path d="M368.96 5.15198C368.96 5.44397 368.668 5.73596 368.376 5.73596C368.084 5.73596 367.792 5.44397 367.792 5.15198C367.792 4.85998 368.084 4.56799 368.376 4.56799C368.668 4.56799 368.96 4.85998 368.96 5.15198Z" fill="#FFFAEF"/>
<path d="M350.564 39.3159C350.564 39.6079 350.272 39.9 349.98 39.9C349.688 39.9 349.396 39.6079 349.396 39.3159C349.396 39.0239 349.688 38.7319 349.98 38.7319C350.272 38.7319 350.564 39.0239 350.564 39.3159Z" fill="#FFFAEF"/>
<path d="M921.716 124.58C921.716 125.456 921.132 126.04 920.256 126.04C919.38 126.04 918.796 125.456 918.796 124.58C918.796 123.704 919.38 123.12 920.256 123.12C920.84 123.12 921.716 123.704 921.716 124.58Z" fill="#FFFAEF"/>
<path d="M652.2 360.808C652.2 361.684 651.616 362.268 650.74 362.268C649.864 362.268 649.28 361.684 649.28 360.808C649.28 359.932 649.864 359.348 650.74 359.348C651.616 359.348 652.2 359.932 652.2 360.808Z" fill="#FFFAEF"/>
<path d="M742.428 467.096C742.428 467.972 741.844 468.556 740.968 468.556C740.092 468.556 739.508 467.972 739.508 467.096C739.508 466.22 740.092 465.636 740.968 465.636C741.844 465.636 742.428 466.22 742.428 467.096Z" fill="#FFFAEF"/>
<path d="M479.336 552.652C479.336 553.528 478.752 554.112 477.876 554.112C477 554.112 476.416 553.528 476.416 552.652C476.416 551.776 477 551.192 477.876 551.192C478.46 550.9 479.336 551.776 479.336 552.652Z" fill="#FFFAEF"/>
<path d="M476.416 273.792C476.416 274.668 475.832 275.252 474.956 275.252C474.08 275.252 473.496 274.668 473.496 273.792C473.496 272.916 474.08 272.332 474.956 272.332C475.832 272.332 476.416 272.916 476.416 273.792Z" fill="#FFFAEF"/>
<path d="M1297.81 247.804C1297.81 248.68 1297.23 249.264 1296.35 249.264C1295.48 249.264 1294.89 248.68 1294.89 247.804C1294.89 246.928 1295.48 246.344 1296.35 246.344C1297.23 246.344 1297.81 246.928 1297.81 247.804Z" fill="#FFFAEF"/>
<path d="M546.788 328.688C546.788 329.564 546.204 330.148 545.328 330.148C544.452 330.148 543.868 329.564 543.868 328.688C543.868 327.812 544.452 327.228 545.328 327.228C546.204 327.228 546.788 327.812 546.788 328.688Z" fill="#FFFAEF"/>
<path d="M1153.56 139.472C1153.56 140.64 1152.69 141.516 1151.52 141.516C1150.35 141.516 1149.48 140.64 1149.48 139.472C1149.48 138.304 1150.35 137.428 1151.52 137.428C1152.69 137.428 1153.56 138.596 1153.56 139.472Z" fill="#FFFAEF"/>
<path d="M824.48 139.472C824.48 140.64 823.604 141.516 822.436 141.516C821.268 141.516 820.392 140.64 820.392 139.472C820.392 138.304 821.268 137.428 822.436 137.428C823.604 137.428 824.48 138.596 824.48 139.472Z" fill="#FFFAEF"/>
<path d="M164.268 124.58C164.268 125.748 163.392 126.624 162.224 126.624C161.056 126.624 160.18 125.748 160.18 124.58C160.18 123.412 161.056 122.536 162.224 122.536C163.392 122.536 164.268 123.412 164.268 124.58Z" fill="#FFFAEF"/>
<path d="M127.184 314.964C127.184 316.132 126.308 317.008 125.14 317.008C123.972 317.008 123.096 316.132 123.096 314.964C123.096 313.796 123.972 312.92 125.14 312.92C126.308 312.92 127.184 313.796 127.184 314.964Z" fill="#FFFAEF"/>
<path d="M76.9601 460.964C76.9601 462.132 76.0841 463.008 74.9161 463.008C73.7481 463.008 72.8721 462.132 72.8721 460.964C72.8721 459.796 73.7481 458.92 74.9161 458.92C76.0841 458.92 76.9601 460.088 76.9601 460.964Z" fill="#FFFAEF"/>
<path d="M1195.32 444.028C1195.32 445.196 1194.44 446.072 1193.28 446.072C1192.11 446.072 1191.23 445.196 1191.23 444.028C1191.23 442.86 1192.11 441.984 1193.28 441.984C1194.44 441.984 1195.32 442.86 1195.32 444.028Z" fill="#FFFAEF"/>
<path d="M1003.48 526.08C1003.48 527.248 1002.6 528.124 1001.43 528.124C1000.26 528.124 999.388 527.248 999.388 526.08C999.388 524.912 1000.26 524.036 1001.43 524.036C1002.6 524.036 1003.48 524.912 1003.48 526.08Z" fill="#FFFAEF"/>
<path d="M1005.81 624.484C1005.81 625.652 1004.94 626.528 1003.77 626.528C1002.6 626.528 1001.72 625.652 1001.72 624.484C1001.72 623.316 1002.6 622.44 1003.77 622.44C1004.64 622.44 1005.81 623.608 1005.81 624.484Z" fill="#FFFAEF"/>
<path d="M909.452 683.176C909.452 684.344 908.576 685.22 907.408 685.22C906.24 685.22 905.364 684.344 905.364 683.176C905.364 682.008 906.24 681.132 907.408 681.132C908.284 681.132 909.452 682.008 909.452 683.176Z" fill="#FFFAEF"/>
<path d="M235.224 681.132C235.224 682.3 234.348 683.176 233.18 683.176C232.012 683.176 231.136 682.3 231.136 681.132C231.136 679.964 232.012 679.088 233.18 679.088C234.348 679.088 235.224 679.964 235.224 681.132Z" fill="#FFFAEF"/>
<path d="M1046.4 332.192C1046.4 333.36 1045.52 334.236 1044.36 334.236C1043.19 334.236 1042.31 333.36 1042.31 332.192C1042.31 331.024 1043.19 330.148 1044.36 330.148C1045.23 330.148 1046.4 331.316 1046.4 332.192Z" fill="#FFFAEF"/>
<path d="M562.264 151.736C562.264 152.904 561.388 153.78 560.22 153.78C559.052 153.78 558.176 152.904 558.176 151.736C558.176 150.568 559.052 149.692 560.22 149.692C561.388 149.692 562.264 150.568 562.264 151.736Z" fill="#FFFAEF"/>
<path d="M104.116 620.688C104.116 621.856 103.24 622.732 102.072 622.732C100.904 622.732 100.028 621.856 100.028 620.688C100.028 619.52 100.904 618.644 102.072 618.644C103.24 618.644 104.116 619.52 104.116 620.688Z" fill="#FFFAEF"/>
<path d="M4.83604 554.696C4.83604 555.864 3.96004 556.74 2.79204 556.74C1.62404 556.74 0.748047 555.864 0.748047 554.696C0.748047 553.528 1.62404 552.652 2.79204 552.652C3.96004 552.652 4.83604 553.528 4.83604 554.696Z" fill="#FFFAEF"/>
<path d="M29.3639 357.304C29.3639 358.472 28.4879 359.348 27.3199 359.348C26.1519 359.348 25.2759 358.472 25.2759 357.304C25.2759 356.136 26.1519 355.26 27.3199 355.26C28.4879 354.968 29.3639 356.136 29.3639 357.304Z" fill="#FFFAEF"/>
<path d="M322.824 74.648C322.824 75.816 321.948 76.692 320.78 76.692C319.612 76.692 318.736 75.816 318.736 74.648C318.736 73.48 319.612 72.604 320.78 72.604C321.656 72.604 322.824 73.48 322.824 74.648Z" fill="#FFFAEF"/>
<path d="M509.996 416.58C509.996 417.456 509.412 418.04 508.536 418.04C507.66 418.04 507.076 417.456 507.076 416.58C507.076 415.704 507.66 415.12 508.536 415.12C509.412 415.12 509.996 415.704 509.996 416.58Z" fill="#FFFAEF"/>
<path d="M264.132 376.868C264.132 377.744 263.548 378.328 262.672 378.328C261.796 378.328 261.212 377.744 261.212 376.868C261.212 375.992 261.796 375.408 262.672 375.408C263.548 375.116 264.132 375.992 264.132 376.868Z" fill="#FFFAEF"/>
<path d="M340.344 8.07205C340.344 8.94805 339.76 9.53204 338.884 9.53204C338.008 9.53204 337.424 8.94805 337.424 8.07205C337.424 7.19606 338.008 6.61206 338.884 6.61206C339.76 6.61206 340.344 7.48806 340.344 8.07205Z" fill="#FFFAEF"/>
<path d="M524.012 58.004C524.012 58.88 523.428 59.464 522.552 59.464C521.676 59.464 521.092 58.88 521.092 58.004C521.092 57.1279 521.676 56.5439 522.552 56.5439C523.428 56.5439 524.012 57.1279 524.012 58.004Z" fill="#FFFAEF"/>
<path d="M105.576 334.528C105.576 335.404 104.992 335.988 104.116 335.988C103.24 335.988 102.656 335.404 102.656 334.528C102.656 333.652 103.24 333.068 104.116 333.068C104.992 332.776 105.576 333.652 105.576 334.528Z" fill="#FFFAEF"/>
<path d="M82.5079 290.144C82.5079 291.02 81.9239 291.604 81.0479 291.604C80.1719 291.604 79.5879 291.02 79.5879 290.144C79.5879 289.268 80.1719 288.684 81.0479 288.684C81.9239 288.392 82.5079 289.268 82.5079 290.144Z" fill="#FFFAEF"/>
<path d="M151.712 260.944C151.712 261.82 151.128 262.404 150.252 262.404C149.376 262.404 148.792 261.82 148.792 260.944C148.792 260.068 149.376 259.484 150.252 259.484C150.836 259.192 151.712 260.068 151.712 260.944Z" fill="#FFFAEF"/>
<path d="M74.0401 190.28C74.0401 191.156 73.4561 191.74 72.5801 191.74C71.7041 191.74 71.1201 191.156 71.1201 190.28C71.1201 189.404 71.7041 188.82 72.5801 188.82C73.4561 188.82 74.0401 189.404 74.0401 190.28Z" fill="#FFFAEF"/>
<path d="M317.276 159.328C317.276 160.204 316.692 160.788 315.816 160.788C314.94 160.788 314.356 160.204 314.356 159.328C314.356 158.452 314.94 157.868 315.816 157.868C316.692 157.868 317.276 158.452 317.276 159.328Z" fill="#FFFAEF"/>
<path d="M253.912 196.996C253.912 197.872 253.328 198.456 252.452 198.456C251.576 198.456 250.992 197.872 250.992 196.996C250.992 196.12 251.576 195.536 252.452 195.536C253.036 195.536 253.912 196.12 253.912 196.996Z" fill="#FFFAEF"/>
<path d="M1191.82 415.12C1191.82 415.996 1191.23 416.58 1190.36 416.58C1189.48 416.58 1188.9 415.996 1188.9 415.12C1188.9 414.244 1189.48 413.66 1190.36 413.66C1191.23 413.66 1191.82 414.244 1191.82 415.12Z" fill="#FFFAEF"/>
<path d="M383.56 596.452C383.56 597.328 382.976 597.912 382.1 597.912C381.224 597.912 380.64 597.328 380.64 596.452C380.64 595.576 381.224 594.992 382.1 594.992C382.976 594.992 383.56 595.576 383.56 596.452Z" fill="#FFFAEF"/>
<path d="M225.296 299.488C225.296 300.656 224.42 301.24 223.544 301.24C222.376 301.24 221.792 300.364 221.792 299.488C221.792 298.32 222.668 297.736 223.544 297.736C224.42 297.736 225.296 298.612 225.296 299.488Z" fill="#FFFAEF"/>
<path d="M176.532 425.924C176.532 427.092 175.656 427.676 174.78 427.676C173.612 427.676 173.028 426.8 173.028 425.924C173.028 424.756 173.904 424.172 174.78 424.172C175.948 423.88 176.532 424.756 176.532 425.924Z" fill="#FFFAEF"/>
<path d="M116.38 11.576C116.38 12.744 115.504 13.328 114.628 13.328C113.46 13.328 112.876 12.452 112.876 11.576C112.876 10.408 113.752 9.82405 114.628 9.82405C115.504 9.53205 116.38 10.408 116.38 11.576Z" fill="#FFFAEF"/>
<path d="M971.648 120.784C971.648 121.952 970.772 122.536 969.896 122.536C968.728 122.536 968.144 121.66 968.144 120.784C968.144 119.616 969.02 119.032 969.896 119.032C970.772 118.74 971.648 119.616 971.648 120.784Z" fill="#FFFAEF"/>
<path d="M1239.41 76.1081C1239.41 77.276 1238.54 77.86 1237.66 77.86C1236.49 77.86 1235.91 76.984 1235.91 76.1081C1235.91 74.9401 1236.78 74.3561 1237.66 74.3561C1238.83 74.3561 1239.41 75.2321 1239.41 76.1081Z" fill="#FFFAEF"/>
<path d="M1124.66 399.936C1124.66 401.104 1123.78 401.688 1122.9 401.688C1121.74 401.688 1121.15 400.812 1121.15 399.936C1121.15 398.768 1122.03 398.184 1122.9 398.184C1123.78 397.892 1124.66 398.768 1124.66 399.936Z" fill="#FFFAEF"/>
<path d="M1007.56 423.88C1007.56 425.048 1006.69 425.632 1005.81 425.632C1004.64 425.632 1004.06 424.756 1004.06 423.88C1004.06 422.712 1004.94 422.128 1005.81 422.128C1006.69 422.128 1007.56 423.004 1007.56 423.88Z" fill="#FFFAEF"/>
<path d="M1197.95 347.084C1197.95 348.252 1197.07 348.836 1196.2 348.836C1195.03 348.836 1194.44 347.96 1194.44 347.084C1194.44 345.916 1195.32 345.332 1196.2 345.332C1197.07 345.332 1197.95 345.916 1197.95 347.084Z" fill="#FFFAEF"/>
<path d="M896.312 432.64C896.312 433.808 895.436 434.392 894.56 434.392C893.392 434.392 892.808 433.516 892.808 432.64C892.808 431.472 893.684 430.888 894.56 430.888C895.436 430.888 896.312 431.764 896.312 432.64Z" fill="#FFFAEF"/>
<path d="M899.524 538.344C899.524 539.512 898.648 540.096 897.772 540.096C896.604 540.096 896.02 539.22 896.02 538.344C896.02 537.176 896.896 536.592 897.772 536.592C898.648 536.3 899.524 537.176 899.524 538.344Z" fill="#FFFAEF"/>
<path d="M655.996 556.448C655.996 557.616 655.12 558.2 654.244 558.2C653.076 558.2 652.492 557.324 652.492 556.448C652.492 555.28 653.368 554.696 654.244 554.696C655.12 554.696 655.996 555.28 655.996 556.448Z" fill="#FFFAEF"/>
<path d="M422.688 480.82C422.688 481.988 421.812 482.572 420.936 482.572C420.06 482.572 419.184 481.696 419.184 480.82C419.184 479.652 420.06 479.068 420.936 479.068C421.812 479.068 422.688 479.944 422.688 480.82Z" fill="#FFFAEF"/>
<path d="M629.132 620.688C629.132 621.856 628.256 622.44 627.38 622.44C626.504 622.44 625.628 621.564 625.628 620.688C625.628 619.52 626.504 618.936 627.38 618.936C628.256 618.936 629.132 619.52 629.132 620.688Z" fill="#FFFAEF"/>
<path d="M628.84 39.316C628.84 41.36 627.088 43.112 625.044 43.112C623 43.112 621.248 41.36 621.248 39.316C621.248 37.272 623 35.52 625.044 35.52C627.088 35.52 628.84 37.272 628.84 39.316Z" fill="#FFFAEF"/>
<path d="M82.216 247.804C82.216 249.848 80.464 251.6 78.42 251.6C76.376 251.6 74.624 249.848 74.624 247.804C74.624 245.76 76.376 244.008 78.42 244.008C80.464 244.008 82.216 245.76 82.216 247.804Z" fill="#FFFAEF"/>
</g>
<defs>
<radialGradient id="paint0_radial_310_2565" cx="0" cy="0" r="1" gradientUnits="userSpaceOnUse" gradientTransform="translate(295.609 462.905) scale(16.8034)">
<stop stop-color="white"/>
<stop offset="0.0767177" stop-color="white" stop-opacity="0.9233"/>
<stop offset="1" stop-color="#272525" stop-opacity="0"/>
</radialGradient>
<radialGradient id="paint1_radial_310_2565" cx="0" cy="0" r="1" gradientUnits="userSpaceOnUse" gradientTransform="translate(235.461 514.231) scale(16.8034)">
<stop stop-color="white"/>
<stop offset="0.0767177" stop-color="white" stop-opacity="0.9233"/>
<stop offset="1" stop-color="#272525" stop-opacity="0"/>
</radialGradient>
<radialGradient id="paint2_radial_310_2565" cx="0" cy="0" r="1" gradientUnits="userSpaceOnUse" gradientTransform="translate(1122.68 273.144) scale(8.43058)">
<stop stop-color="white"/>
<stop offset="0.0767177" stop-color="white" stop-opacity="0.9233"/>
<stop offset="1" stop-color="#272525" stop-opacity="0"/>
</radialGradient>
<radialGradient id="paint3_radial_310_2565" cx="0" cy="0" r="1" gradientUnits="userSpaceOnUse" gradientTransform="translate(982.772 13.4319) scale(8.43058)">
<stop stop-color="white"/>
<stop offset="0.0767177" stop-color="white" stop-opacity="0.9233"/>
<stop offset="1" stop-color="#272525" stop-opacity="0"/>
</radialGradient>
<radialGradient id="paint4_radial_310_2565" cx="0" cy="0" r="1" gradientUnits="userSpaceOnUse" gradientTransform="translate(717.331 184.335) scale(8.43064)">
<stop stop-color="white"/>
<stop offset="0.0767177" stop-color="white" stop-opacity="0.9233"/>
<stop offset="1" stop-color="#272525" stop-opacity="0"/>
</radialGradient>
<radialGradient id="paint5_radial_310_2565" cx="0" cy="0" r="1" gradientUnits="userSpaceOnUse" gradientTransform="translate(735.196 398.054) scale(8.43064)">
<stop stop-color="white"/>
<stop offset="0.0767177" stop-color="white" stop-opacity="0.9233"/>
<stop offset="1" stop-color="#272525" stop-opacity="0"/>
</radialGradient>
<radialGradient id="paint6_radial_310_2565" cx="0" cy="0" r="1" gradientUnits="userSpaceOnUse" gradientTransform="translate(1300.12 165.543) scale(8.43052)">
<stop stop-color="white"/>
<stop offset="0.0767177" stop-color="white" stop-opacity="0.9233"/>
<stop offset="1" stop-color="#272525" stop-opacity="0"/>
</radialGradient>
<radialGradient id="paint7_radial_310_2565" cx="0" cy="0" r="1" gradientUnits="userSpaceOnUse" gradientTransform="translate(35.8033 129.168) scale(8.43062)">
<stop stop-color="white"/>
<stop offset="0.0767177" stop-color="white" stop-opacity="0.9233"/>
<stop offset="1" stop-color="#272525" stop-opacity="0"/>
</radialGradient>
<radialGradient id="paint8_radial_310_2565" cx="0" cy="0" r="1" gradientUnits="userSpaceOnUse" gradientTransform="translate(268.642 248.841) scale(8.43063)">
<stop stop-color="white"/>
<stop offset="0.0767177" stop-color="white" stop-opacity="0.9233"/>
<stop offset="1" stop-color="#272525" stop-opacity="0"/>
</radialGradient>
<radialGradient id="paint9_radial_310_2565" cx="0" cy="0" r="1" gradientUnits="userSpaceOnUse" gradientTransform="translate(724.614 671.239) scale(8.43064)">
<stop stop-color="white"/>
<stop offset="0.0767177" stop-color="white" stop-opacity="0.9233"/>
<stop offset="1" stop-color="#272525" stop-opacity="0"/>
</radialGradient>
<radialGradient id="paint10_radial_310_2565" cx="0" cy="0" r="1" gradientUnits="userSpaceOnUse" gradientTransform="translate(1274.92 432.07) scale(8.43064)">
<stop stop-color="white"/>
<stop offset="0.0767177" stop-color="white" stop-opacity="0.9233"/>
<stop offset="1" stop-color="#272525" stop-opacity="0"/>
</radialGradient>
<radialGradient id="paint11_radial_310_2565" cx="0" cy="0" r="1" gradientUnits="userSpaceOnUse" gradientTransform="translate(689.203 141.422) scale(16.8035)">
<stop stop-color="white"/>
<stop offset="0.0767177" stop-color="white" stop-opacity="0.9233"/>
<stop offset="1" stop-color="#272525" stop-opacity="0"/>
</radialGradient>
<radialGradient id="paint12_radial_310_2565" cx="0" cy="0" r="1" gradientUnits="userSpaceOnUse" gradientTransform="translate(1134.72 514.228) scale(16.8037)">
<stop stop-color="white"/>
<stop offset="0.0767177" stop-color="white" stop-opacity="0.9233"/>
<stop offset="1" stop-color="#272525" stop-opacity="0"/>
</radialGradient>
</defs>
</svg>
