<svg width="21" height="15" viewBox="0 0 21 15" fill="none" xmlns="http://www.w3.org/2000/svg">
<path d="M7.34876 5.31577C7.23292 5.33236 7.07196 5.34538 6.91987 5.34538C6.89408 5.34538 6.86857 5.34566 6.84359 5.34593C6.77224 5.34669 6.70525 5.34741 6.6484 5.34155L7.34876 5.31577ZM7.34876 5.31577L7.54029 5.28641L7.34876 5.31577ZM7.29886 5.08763L7.29914 5.08759L7.49089 5.06029L7.29886 5.08763ZM7.29886 5.08763C7.205 5.10126 7.06303 5.10982 6.91952 5.10982C6.82793 5.10982 6.7441 5.10606 6.68383 5.09988L6.68382 5.09987M7.29886 5.08763L6.68382 5.09987M6.68382 5.09987L6.14343 5.04448C6.10627 5.04065 6.06525 5.02395 6.03267 5.00011C5.99745 4.97433 5.98802 4.95253 5.98722 4.94791L5.98721 4.94785M6.68382 5.09987L5.98721 4.94785M5.98721 4.94785L5.89808 4.43554C5.89883 4.43402 5.90069 4.43122 5.90496 4.4272C5.91577 4.41702 5.93665 4.40573 5.9657 4.40275L6.50615 4.34735L6.50632 4.34734M5.98721 4.94785L6.50632 4.34734M6.50632 4.34734C6.59485 4.33811 6.72228 4.33256 6.85591 4.33256C6.9673 4.33256 7.0701 4.33659 7.14415 4.34315L7.86039 4.40747L7.86046 4.40748M6.50632 4.34734L7.86046 4.40748M7.86046 4.40748C7.87107 4.40842 7.87932 4.41028 7.88533 4.41227L7.70776 4.92286M7.86046 4.40748L7.70776 4.92286M10.2188 1.39161L10.2187 1.39156C10.0313 1.23371 9.7554 1.13253 9.38919 1.07218C9.02402 1.01201 8.58025 0.994087 8.06619 0.994087C7.0899 0.994087 6.4051 1.15123 5.96591 1.46677C5.59603 1.73252 5.38844 2.11968 5.33652 2.65503C5.43095 2.56768 5.56498 2.51247 5.75153 2.51247C5.90145 2.51247 6.0281 2.55482 6.16595 2.60093L6.17411 2.60366L6.17418 2.60368L6.17664 2.60451C6.4357 2.69134 6.86862 2.83643 7.71085 2.83643C8.58874 2.83643 9.1918 2.59839 9.68592 2.40258L9.69572 2.39869C10.0142 2.27248 10.2886 2.16374 10.5791 2.16374C10.7815 2.16374 11.0781 2.21905 11.2955 2.49221C11.2955 2.49222 11.2955 2.49223 11.2956 2.49225L11.2173 2.55451L10.2188 1.39161ZM10.2188 1.39161L10.3254 1.48122L10.3533 1.50467H10.3897H10.5535C10.6846 1.50467 10.9182 1.50637 11.122 1.67348C11.3096 1.82723 11.4929 2.13985 11.5169 2.78935L10.2188 1.39161ZM7.70776 4.92286C7.7025 4.9379 7.67955 4.96912 7.63219 5.00155C7.58738 5.03223 7.53513 5.0539 7.49102 5.06027L7.70776 4.92286ZM6.10103 5.40197L6.6397 5.44118C6.70243 5.44751 6.77742 5.44669 6.84986 5.4459C6.87365 5.44564 6.89716 5.44538 6.91987 5.44538C7.07684 5.44538 7.24254 5.432 7.36294 5.41476L7.36294 5.41476L7.36392 5.41461L7.55454 5.38539C7.5547 5.38536 7.55486 5.38534 7.55502 5.38532C7.65668 5.37065 7.76426 5.34385 7.85536 5.29962C7.94423 5.25646 8.03193 5.1894 8.06856 5.08655L8.24802 4.63261L8.2487 4.63287L8.25054 4.62582C8.25065 4.62562 8.25077 4.6254 8.25091 4.62515C8.25258 4.62219 8.25684 4.61569 8.26568 4.60816C8.28187 4.59438 8.32414 4.56819 8.42152 4.56819C8.5189 4.56819 8.56117 4.59438 8.57737 4.60816C8.58584 4.61538 8.5901 4.62165 8.59191 4.62477L8.59509 4.63276L8.77487 5.08535C8.81001 5.18404 8.89301 5.25866 8.98132 5.3102C9.07231 5.3633 9.18163 5.39956 9.28886 5.415L9.28881 5.41534L9.29712 5.41584L9.48464 5.42709C9.60854 5.44433 9.77513 5.44513 9.92353 5.44513C10.0275 5.44513 10.1272 5.43712 10.2056 5.42874C10.2056 5.42873 10.2056 5.42873 10.2056 5.42873L10.7453 5.37133C10.7454 5.37133 10.7455 5.37132 10.7455 5.37131C10.8489 5.36067 10.9553 5.33683 11.0422 5.2923C11.1289 5.24787 11.2094 5.17519 11.2293 5.06351L11.302 4.69584H11.5177C11.519 4.78606 11.5195 4.87957 11.5195 4.97878L11.7112 5.01879L11.6195 4.97878L11.7112 5.01873L11.7113 5.01866L11.7113 5.01845L11.7116 5.0178L11.7126 5.01562L11.7159 5.00772C11.7187 5.00091 11.7228 4.99099 11.7278 4.97808C11.738 4.95225 11.7524 4.91441 11.7695 4.86536C11.8037 4.76725 11.849 4.62419 11.8943 4.44243C11.9847 4.07901 12.0749 3.56022 12.0749 2.93643C12.0749 2.55981 12.0306 2.09146 11.8176 1.71455C11.7102 1.52432 11.5593 1.35664 11.3499 1.23708C11.1485 1.12208 10.8981 1.05454 10.5896 1.04966C10.3149 0.829984 9.95516 0.704163 9.53963 0.632045C9.10935 0.557366 8.60992 0.538794 8.06619 0.538794C6.72205 0.538794 5.89277 0.828106 5.39994 1.28335C4.90491 1.74062 4.76816 2.34761 4.76816 2.93643C4.76816 3.5803 4.8583 4.09915 4.94887 4.45798C4.99416 4.6374 5.03957 4.77688 5.07391 4.87207C5.09109 4.91966 5.1055 4.95619 5.11575 4.98111C5.12087 4.99357 5.12496 5.00314 5.12783 5.00973L5.13121 5.01738L5.13217 5.01952L5.13247 5.02017L5.13257 5.02039L5.1326 5.02047L5.2235 4.97878L5.13263 5.02053L5.3235 4.97878C5.3235 4.87628 5.32904 4.78372 5.33777 4.69584H5.54117L5.61414 5.06306C5.63325 5.17036 5.70884 5.25036 5.7941 5.30323C5.8808 5.357 5.98881 5.39048 6.09806 5.40171L6.09805 5.40176L6.10103 5.40197ZM11.3476 3.58872C11.4335 3.80647 11.4763 4.01506 11.4977 4.24055H11.2451C11.1729 4.15124 11.0565 4.09091 10.9226 4.07717L10.9226 4.07717L10.3825 4.02177L10.3825 4.02177C10.2728 4.01059 10.1278 4.00491 9.98713 4.00491C9.86869 4.00491 9.75148 4.00905 9.65913 4.01731L9.6591 4.01731L8.94274 4.08164L8.94272 4.08165C8.81244 4.09338 8.69801 4.14958 8.63334 4.24055H8.20992C8.14525 4.14975 8.03126 4.0934 7.90069 4.08165L7.90066 4.08164L7.1843 4.01731L7.18423 4.0173C7.09156 4.00905 6.97473 4.00491 6.85627 4.00491C6.71561 4.00491 6.57095 4.01059 6.46098 4.02176L6.46088 4.02177L5.92077 4.07717L5.92076 4.07717C5.78681 4.09092 5.67038 4.1511 5.59804 4.24055H5.41671C5.4429 4.13503 5.4727 4.03266 5.50393 3.9254C5.51287 3.89466 5.52194 3.86353 5.53107 3.8318C5.58373 3.6488 5.63725 3.45025 5.6778 3.20832C5.69861 3.08469 5.71535 3.01889 5.73308 2.98404C5.73822 2.97394 5.74185 2.96979 5.74321 2.96846C5.74446 2.96817 5.74711 2.96776 5.75188 2.96776C5.78143 2.96776 5.8299 2.98109 5.92643 3.01325C5.93725 3.01686 5.9485 3.02063 5.96018 3.02455C6.04588 3.05328 6.15499 3.08987 6.29113 3.12634C6.60181 3.20956 7.05103 3.29173 7.71121 3.29173C8.5013 3.29173 9.10639 3.11996 9.57454 2.94933C9.69125 2.90679 9.79944 2.86432 9.89922 2.82487C9.9101 2.82057 9.92087 2.8163 9.93153 2.81208C10.0191 2.77742 10.0995 2.74562 10.1745 2.71797C10.3452 2.65505 10.4749 2.61903 10.5795 2.61903C10.6794 2.61903 10.758 2.65188 10.831 2.74347C11.0888 3.06742 11.248 3.33649 11.3476 3.58872ZM5.74231 2.96875C5.74229 2.96874 5.74244 2.96868 5.74277 2.96858L5.74231 2.96875ZM10.8558 4.94752L10.8558 4.94765C10.855 4.95218 10.8456 4.97398 10.8103 4.99982C10.7776 5.02371 10.7366 5.0404 10.6996 5.04423L10.1593 5.09962C10.1593 5.09962 10.1592 5.09962 10.1592 5.09962C10.1592 5.09962 10.1592 5.09962 10.1592 5.09962C10.0986 5.10581 10.0147 5.10957 9.92353 5.10957C9.78003 5.10957 9.63804 5.101 9.54378 5.08736L9.5436 5.08734L9.35243 5.06002L9.33829 5.15902L9.35243 5.06002C9.30792 5.05366 9.25556 5.03195 9.21084 5.00131C9.1636 4.96894 9.14089 4.93782 9.13576 4.92294L9.13566 4.92264L8.95783 4.41233C8.9638 4.41028 8.97198 4.4084 8.98242 4.40752L8.98301 4.40747L9.69921 4.34315C9.69924 4.34315 9.69928 4.34314 9.69931 4.34314C9.77375 4.33658 9.87617 4.33256 9.98749 4.33256C10.1213 4.33256 10.2486 4.33787 10.3372 4.34731L10.3376 4.34735L10.8773 4.40275C10.9065 4.40574 10.9276 4.41708 10.9386 4.42736C10.9427 4.4312 10.9445 4.4339 10.9453 4.43542L10.8558 4.94752ZM8.9465 4.4183L8.9467 4.4181C8.94664 4.41817 8.94656 4.41824 8.9465 4.4183Z" fill="white" stroke="white" stroke-width="0.2"/>
<path d="M11.2549 5.47324L11.1553 5.46513C11.1357 5.70591 11.0532 5.95281 10.9247 6.19442L10.7981 6.43224L11.0492 6.33459C11.1874 6.28083 11.3315 6.23402 11.4802 6.19121L11.5264 6.17788L11.5449 6.1334C11.6199 5.95232 11.6751 5.76765 11.6998 5.58386C11.7858 5.57201 11.8651 5.54131 11.9288 5.49555C12.0116 5.43606 12.0748 5.34492 12.0748 5.23404V4.97876H11.9748H11.8748C11.8748 5.01832 11.8485 5.09228 11.7933 5.15929C11.7386 5.22561 11.6754 5.26169 11.6195 5.26169H11.6195H11.6195H11.6195H11.6195H11.6195H11.6194H11.6194H11.6194H11.6194H11.6193H11.6193H11.6193H11.6192H11.6192H11.6192H11.6191H11.6191H11.619H11.619H11.6189H11.6189H11.6188H11.6188H11.6187H11.6186H11.6185H11.6185H11.6184H11.6183H11.6182H11.6182H11.6181H11.618H11.6179H11.6178H11.6177H11.6176H11.6175H11.6174H11.6173H11.6172H11.6171H11.617H11.6169H11.6167H11.6166H11.6165H11.6164H11.6162H11.6161H11.616H11.6158H11.6157H11.6155H11.6154H11.6153H11.6151H11.615H11.6148H11.6146H11.6145H11.6143H11.6142H11.614H11.6138H11.6136H11.6135H11.6133H11.6131H11.6129H11.6127H11.6126H11.6124H11.6122H11.612H11.6118H11.6116H11.6114H11.6112H11.611H11.6107H11.6105H11.6103H11.6101H11.6099H11.6097H11.6094H11.6092H11.609H11.6087H11.6085H11.6083H11.608H11.6078H11.6075H11.6073H11.607H11.6068H11.6065H11.6063H11.606H11.6057H11.6055H11.6052H11.6049H11.6046H11.6044H11.6041H11.6038H11.6035H11.6032H11.603H11.6027H11.6024H11.6021H11.6018H11.6015H11.6012H11.6009H11.6006H11.6002H11.5999H11.5996H11.5993H11.599H11.5986H11.5983H11.598H11.5977H11.5973H11.597H11.5967H11.5963H11.596H11.5956H11.5953H11.5949H11.5946H11.5942H11.5939H11.5935H11.5931H11.5928H11.5924H11.592H11.5917H11.5913H11.5909H11.5905H11.5902H11.5898H11.5894H11.589H11.5886H11.5882H11.5878H11.5874H11.587H11.5866H11.5862H11.5858H11.5854H11.585H11.5845H11.5841H11.5837H11.5833H11.5829H11.5824H11.582H11.5816H11.5811H11.5807H11.5803H11.5798H11.5794H11.5789H11.5785H11.578H11.5776H11.5771H11.5767H11.5762H11.5757H11.5753H11.5748H11.5743H11.5739H11.5734H11.5729H11.5724H11.5719H11.5714H11.571H11.5705H11.57H11.5695H11.569H11.5685H11.568H11.5675H11.567H11.5665H11.566H11.5654H11.5649H11.5644H11.5639H11.5634H11.5628H11.5623H11.5618H11.5613H11.5607H11.5602H11.5596H11.5591H11.5586H11.558H11.5575H11.5569H11.5564H11.5558H11.5553H11.5547H11.5541H11.5536H11.553H11.5524H11.5519H11.5513H11.5507H11.5501H11.5496H11.549H11.5484H11.5478H11.5472H11.5466H11.546H11.5454H11.5448H11.5442H11.5436H11.543H11.5424H11.5418H11.5412H11.5406H11.54H11.5393H11.5387H11.5381H11.5375H11.5368H11.5362H11.5356H11.5349H11.5343H11.5337H11.533H11.5324H11.5317H11.5311H11.5304H11.5298H11.5291H11.5285H11.5278H11.5272H11.5265H11.5258H11.5252H11.5245H11.5238H11.5231H11.5225H11.5218H11.5211H11.5204H11.5197H11.519H11.5184H11.5177H11.517H11.5163H11.5156H11.5149H11.5142H11.5135H11.5127H11.512H11.5113H11.5106H11.5099H11.5092H11.5085H11.5077H11.507H11.5063H11.5055H11.5048H11.5041H11.5033H11.5026H11.5019H11.5011H11.5004H11.4996H11.4989H11.4981H11.4974H11.4966H11.4959H11.4951H11.4943H11.4936H11.4928H11.492H11.4913H11.4905H11.4897H11.4889H11.4881H11.4874H11.4866H11.4858H11.485H11.4842H11.4834H11.4826H11.4818H11.481H11.4802H11.4794H11.4786H11.4778H11.477H11.4762H11.4754H11.4746H11.4737H11.4729H11.4721H11.4713H11.4704H11.4696H11.4688H11.4679H11.4671H11.4663H11.4654H11.4646H11.4638H11.4629H11.4621H11.4612H11.4604H11.4595H11.4586H11.4578H11.4569H11.4561H11.4552H11.4543H11.4535H11.4526H11.4517H11.4508H11.45H11.4491H11.4482H11.4473H11.4464H11.4455H11.4447H11.4438H11.4429H11.442H11.4411H11.4402H11.4393H11.4384H11.4375H11.4366H11.4356H11.4347H11.4338H11.4329H11.432H11.4311H11.4301H11.4292H11.4283H11.4274H11.4264H11.4255H11.4246H11.4236H11.4227H11.4217H11.4208H11.4199H11.4189H11.418H11.417H11.4161H11.4151H11.4141H11.4132H11.4122H11.4113H11.4103H11.4093H11.4084H11.4074H11.4064H11.4054H11.4045H11.4035H11.4025H11.4015H11.4005H11.3995H11.3985H11.3976H11.3966H11.3956H11.3946H11.3936H11.3926H11.3916H11.3906H11.3896H11.3885H11.3875H11.3865H11.3855H11.3845H11.3835H11.3824H11.3814H11.3804H11.3794H11.3783H11.3773H11.3763H11.3752H11.3742H11.3732H11.3721H11.3711H11.37H11.369H11.3679H11.3669H11.3658H11.3648H11.3637H11.3627H11.3616H11.3606H11.3595H11.3584H11.3574H11.3563H11.3552H11.3541H11.3531H11.352H11.3509H11.3498H11.3487H11.3477H11.3466H11.3455H11.3444H11.3433H11.3422H11.3411H11.34H11.3389H11.3378H11.3367H11.3356H11.3345H11.3334H11.3323H11.3312H11.33H11.3289H11.3278H11.3267H11.3256H11.3244H11.3233H11.3222H11.3211H11.3199H11.3188H11.3176H11.3165H11.3154H11.3142H11.3131H11.3119H11.3108H11.3096H11.3085H11.3073H11.3062H11.305H11.257L11.2269 5.29922C11.193 5.34169 11.1606 5.39738 11.1552 5.46534L11.2549 5.47324ZM11.2549 5.47324C11.2376 5.68615 11.1746 5.9008 11.0781 6.11027L11.305 5.36169C11.2777 5.39589 11.2581 5.43291 11.2549 5.47324Z" fill="white" stroke="white" stroke-width="0.2"/>
<path d="M10.8549 8.35072L10.2197 9.91529L10.1463 10.0962L10.0424 9.93089C9.95357 9.78961 9.88354 9.64094 9.83329 9.48602L9.82204 9.45134L9.83575 9.41757L9.89718 9.26614L9.77929 9.31832L9.76081 9.18728C9.74919 9.1049 9.74277 9.02083 9.74277 8.93589C9.74277 8.91941 9.74422 8.90416 9.74529 8.89324L9.74554 8.89065C9.74659 8.87995 9.74723 8.87338 9.74744 8.86683L9.74925 8.81045L9.79843 8.78284C9.94412 8.70101 10.0421 8.62079 10.0981 8.56725V7.88791V7.85579L10.1168 7.82968C10.2215 7.68353 10.3452 7.54632 10.4869 7.42007L10.6534 7.27178V7.49475V7.8344L12.8847 8.32766L12.9631 8.34499V8.4253V8.4663L14.4969 8.68679L14.497 8.6868L14.4827 8.78578L10.8549 8.35072ZM10.8549 8.35072L12.4081 8.69402V8.94303L11.8157 9.1132L11.8157 9.1132L11.3154 9.25693L11.1171 9.31389L11.2847 9.43426L11.6656 9.70793L12.0478 9.98252L11.1719 10.7568L11.06 10.8557L11.1942 10.9215C11.2954 10.9711 11.4006 11.0168 11.5097 11.0582L11.5662 11.0796L11.6114 11.0397L12.7517 10.032L12.8456 9.949L12.7438 9.87586L12.2006 9.48562L12.8907 9.2873L12.9631 9.2665V9.19119V8.92875L14.3992 9.13521L14.3992 9.13521C14.5949 9.16332 14.7964 9.25273 14.9572 9.37196C15.1201 9.49286 15.227 9.63357 15.2555 9.75573L10.8549 8.35072ZM15.8008 9.66881L15.8007 9.66874L15.2556 9.75586L15.3454 10.144L15.3455 10.1443C15.3613 10.2119 15.373 10.3115 15.38 10.4248L15.3923 10.624L15.5445 10.4949C15.6676 10.3906 15.777 10.2782 15.8741 10.1596L15.9065 10.12L15.8939 10.0722L15.8937 10.0712L15.8929 10.0663L15.8913 10.0579L15.8913 10.0579L15.891 10.0566L15.8271 9.7824L15.8078 9.69927L15.8026 9.67667L15.8012 9.6708L15.8009 9.66931L15.8008 9.66893L15.8008 9.66884L15.8008 9.66881L15.8008 9.66881L15.7033 9.69131L15.8008 9.66881Z" fill="white" stroke="white" stroke-width="0.2"/>
<path d="M12.8876 11.8937L12.865 11.8932L12.8443 11.9025L8.42147 13.8864L8.40238 13.8778L10.9321 11.641L11.0505 11.5363L10.9051 11.4741C10.8043 11.431 10.7066 11.3856 10.6119 11.337L10.5512 11.3058L10.5 11.351L9.15298 12.5424L9.82034 10.8981L9.84695 10.8325L9.794 10.7856C9.70272 10.7047 9.6183 10.6194 9.53864 10.5311L9.43176 10.4125L9.37172 10.5604L8.41741 12.9114L6.94414 9.26633C7.29037 9.41992 7.77277 9.54639 8.42183 9.54639C8.57387 9.54639 8.71318 9.53774 8.84586 9.52528L8.95915 9.51463L8.93404 9.40364C8.91582 9.32312 8.90134 9.24317 8.89297 9.16287L8.8827 9.06433L8.78407 9.07368C8.67099 9.08439 8.55121 9.0911 8.42183 9.0911C7.39079 9.0911 6.90179 8.71918 6.74479 8.5678V7.75452C7.25114 8.06797 7.8329 8.26993 8.42147 8.26993C8.60137 8.26993 8.78028 8.24941 8.95577 8.21467L9.00984 8.20396L9.02966 8.15254C9.0683 8.05231 9.11333 7.95432 9.16572 7.85925L9.28362 7.64527L9.04952 7.71516C8.83785 7.77836 8.62624 7.81463 8.42147 7.81463C7.81105 7.81463 7.14869 7.5143 6.62491 7.06307C6.10039 6.61119 5.73213 6.02316 5.68735 5.46526C5.68197 5.39805 5.65038 5.34209 5.61526 5.29875L5.58525 5.2617H5.53757H5.53641H5.53526H5.53411H5.53296H5.53181H5.53067H5.52952H5.52838H5.52724H5.5261H5.52497H5.52383H5.5227H5.52157H5.52044H5.51931H5.51819H5.51707H5.51594H5.51483H5.51371H5.51259H5.51148H5.51037H5.50926H5.50815H5.50704H5.50594H5.50484H5.50374H5.50264H5.50154H5.50045H5.49935H5.49826H5.49717H5.49609H5.495H5.49392H5.49284H5.49176H5.49068H5.4896H5.48853H5.48746H5.48639H5.48532H5.48426H5.48319H5.48213H5.48107H5.48001H5.47895H5.4779H5.47685H5.4758H5.47475H5.4737H5.47266H5.47161H5.47057H5.46953H5.4685H5.46746H5.46643H5.4654H5.46437H5.46334H5.46231H5.46129H5.46027H5.45925H5.45823H5.45722H5.4562H5.45519H5.45418H5.45317H5.45217H5.45116H5.45016H5.44916H5.44816H5.44717H5.44618H5.44518H5.44419H5.44321H5.44222H5.44124H5.44025H5.43927H5.4383H5.43732H5.43635H5.43537H5.4344H5.43343H5.43247H5.4315H5.43054H5.42958H5.42862H5.42767H5.42671H5.42576H5.42481H5.42386H5.42292H5.42197H5.42103H5.42009H5.41916H5.41822H5.41729H5.41635H5.41542H5.4145H5.41357H5.41265H5.41173H5.41081H5.40989H5.40897H5.40806H5.40715H5.40624H5.40533H5.40443H5.40352H5.40262H5.40172H5.40082H5.39993H5.39904H5.39815H5.39726H5.39637H5.39548H5.3946H5.39372H5.39284H5.39197H5.39109H5.39022H5.38935H5.38848H5.38762H5.38675H5.38589H5.38503H5.38417H5.38332H5.38246H5.38161H5.38076H5.37991H5.37907H5.37823H5.37738H5.37655H5.37571H5.37487H5.37404H5.37321H5.37238H5.37156H5.37073H5.36991H5.36909H5.36827H5.36746H5.36664H5.36583H5.36502H5.36421H5.36341H5.36261H5.3618H5.36101H5.36021H5.35941H5.35862H5.35783H5.35704H5.35626H5.35547H5.35469H5.35391H5.35314H5.35236H5.35159H5.35082H5.35005H5.34928H5.34852H5.34775H5.34699H5.34623H5.34548H5.34473H5.34397H5.34322H5.34248H5.34173H5.34099H5.34025H5.33951H5.33877H5.33804H5.33731H5.33658H5.33585H5.33512H5.3344H5.33368H5.33296H5.33224H5.33153H5.33082H5.33011H5.3294H5.32869H5.32799H5.32729H5.32659H5.32589H5.3252H5.3245H5.32381H5.32312H5.32244H5.32175H5.32107H5.32039H5.31972H5.31904H5.31837H5.3177H5.31703H5.31636H5.3157H5.31504H5.31438H5.31372H5.31307H5.31241H5.31176H5.31112H5.31047H5.30983H5.30919H5.30855H5.30791H5.30727H5.30664H5.30601H5.30538H5.30476H5.30413H5.30351H5.30289H5.30228H5.30166H5.30105H5.30044H5.29983H5.29923H5.29862H5.29802H5.29742H5.29683H5.29623H5.29564H5.29505H5.29447H5.29388H5.2933H5.29272H5.29214H5.29156H5.29099H5.29042H5.28985H5.28928H5.28872H5.28816H5.2876H5.28704H5.28648H5.28593H5.28538H5.28483H5.28429H5.28374H5.2832H5.28266H5.28213H5.28159H5.28106H5.28053H5.28H5.27948H5.27895H5.27843H5.27792H5.2774H5.27689H5.27638H5.27587H5.27536H5.27486H5.27435H5.27385H5.27336H5.27286H5.27237H5.27188H5.27139H5.27091H5.27042H5.26994H5.26946H5.26899H5.26852H5.26804H5.26758H5.26711H5.26664H5.26618H5.26572H5.26527H5.26481H5.26436H5.26391H5.26346H5.26302H5.26257H5.26213H5.26169H5.26126H5.26083H5.26039H5.25997H5.25954H5.25912H5.25869H5.25828H5.25786H5.25744H5.25703H5.25662H5.25622H5.25581H5.25541H5.25501H5.25461H5.25422H5.25382H5.25343H5.25305H5.25266H5.25228H5.2519H5.25152H5.25114H5.25077H5.2504H5.25003H5.24966H5.2493H5.24894H5.24858H5.24823H5.24787H5.24752H5.24717H5.24682H5.24648H5.24614H5.2458H5.24546H5.24513H5.2448H5.24447H5.24414H5.24382H5.24349H5.24317H5.24286H5.24254H5.24223H5.24192H5.24161H5.24131H5.24101H5.24071H5.24041H5.24011H5.23982H5.23953H5.23924H5.23896H5.23868H5.2384H5.23812H5.23784H5.23757H5.2373H5.23703H5.23677H5.2365H5.23624H5.23599H5.23573H5.23548H5.23523H5.23498H5.23474H5.23449H5.23425H5.23401H5.23378H5.23355H5.23332H5.23309H5.23286H5.23264H5.23242H5.2322H5.23199H5.23178H5.23157H5.23136H5.23115H5.23095H5.23075H5.23055H5.23036H5.23017H5.22998H5.22979H5.22961H5.22942H5.22924H5.22907H5.22889H5.22872H5.22855H5.22838H5.22822H5.22806H5.2279H5.22774H5.22759H5.22744H5.22729H5.22714H5.227H5.22686H5.22672H5.22658H5.22645H5.22632H5.22619H5.22606H5.22594H5.22582H5.2257H5.22559H5.22547H5.22536H5.22526H5.22515H5.22505H5.22495H5.22485H5.22476H5.22466H5.22458H5.22449H5.2244H5.22432H5.22424H5.22417H5.22409H5.22402H5.22395H5.22389H5.22382H5.22376H5.2237H5.22365H5.2236H5.22355H5.2235H5.22345H5.22341H5.22337H5.22333H5.2233H5.22327H5.22324H5.22321H5.22319H5.22317H5.22315H5.22313H5.22312H5.22311H5.2231H5.22309C5.16723 5.2617 5.10395 5.22562 5.04932 5.1593C4.99411 5.09228 4.96776 5.01832 4.96776 4.97876H4.86776H4.76776V5.23405C4.76776 5.34493 4.83098 5.43607 4.91379 5.49557C4.97735 5.54123 5.05649 5.5719 5.1423 5.5838C5.22303 6.20245 5.6281 6.84549 6.1891 7.34412V7.83433L3.95783 8.32758L3.87942 8.34491V8.42522V8.46645L2.34526 8.6867C2.34525 8.68671 2.34524 8.68671 2.34523 8.68671C2.03915 8.73056 1.74282 8.85951 1.5094 9.03274C1.27766 9.20473 1.09725 9.42865 1.04146 9.66857L1.04144 9.66866L0.951585 10.0568C0.951578 10.0568 0.951571 10.0568 0.951564 10.0569C0.898216 10.2853 0.884711 10.6988 0.918363 10.9882L0.924927 11.0446L0.976773 11.0679L8.38055 14.3882L8.42147 14.4066L8.4624 14.3882L13.6535 12.0597L13.603 11.8689C13.4172 11.8868 13.2309 11.8993 13.0408 11.8993C13.0108 11.8993 12.9862 11.8981 12.9593 11.8967C12.9381 11.8956 12.9155 11.8944 12.8876 11.8937ZM8.14285 13.5869L8.08288 13.7344L1.45882 10.7631C1.44985 10.5368 1.46533 10.2822 1.49744 10.144L1.49746 10.1439L1.58734 9.7557C1.58735 9.75569 1.58735 9.75568 1.58735 9.75566C1.58735 9.75566 1.58736 9.75565 1.58736 9.75564C1.61653 9.63009 1.72208 9.48967 1.88325 9.37016C2.04243 9.25212 2.24372 9.16383 2.44399 9.13513L2.44403 9.13512L3.87977 8.92867V9.1911V9.26641L3.95215 9.28721L4.64225 9.48553L4.09909 9.87577L3.99692 9.94917L4.09149 10.0321L8.14285 13.5869ZM5.0272 9.11337L4.43511 8.94299V8.69395L5.98788 8.35092L7.66428 12.4982L4.79656 9.98186L5.17733 9.7081L5.17736 9.70808L5.55825 9.43442L5.72578 9.31406L5.52751 9.2571L5.02724 9.11338L5.0272 9.11337Z" fill="white" stroke="white" stroke-width="0.2"/>
<path d="M16.2019 11.4887L16.594 11.2069L19.4737 13.2758L19.0815 13.5576L16.2019 11.4887ZM19.9546 13.0141L16.9037 10.8222C16.8145 10.7581 16.7016 10.7291 16.5941 10.7291C16.5427 10.7291 16.4938 10.7376 16.4485 10.7504L16.2899 10.6365C16.7629 10.162 17.0495 9.57598 17.0495 8.93581C17.0495 8.11993 16.589 7.39049 15.863 6.86888C15.1368 6.34715 14.1387 6.02756 13.0408 6.02756C11.9429 6.02756 10.9448 6.34715 10.2186 6.86888C9.49257 7.39049 9.03208 8.11993 9.03208 8.93581C9.03208 9.75169 9.49257 10.4811 10.2186 11.0027C10.9448 11.5245 11.9429 11.8441 13.0408 11.8441C13.9297 11.8441 14.7505 11.6325 15.4163 11.2763L15.5934 11.4035C15.5789 11.4485 15.5749 11.4962 15.5835 11.5441C15.5982 11.6258 15.6473 11.6975 15.721 11.7505L18.7719 13.9424C18.8611 14.0065 18.974 14.0355 19.0815 14.0355C19.189 14.0355 19.3019 14.0065 19.3911 13.9424L19.9546 13.5375C20.0451 13.4726 20.0999 13.379 20.0999 13.2758C20.0999 13.1727 20.0451 13.0791 19.9546 13.0141ZM9.58742 8.93581C9.58742 8.27137 9.96222 7.66051 10.5866 7.2119C11.2109 6.7634 12.0783 6.48286 13.0408 6.48286C14.0033 6.48286 14.8707 6.7634 15.4949 7.2119C16.1193 7.66051 16.4941 8.27137 16.4941 8.93581C16.4941 9.60026 16.1193 10.2111 15.4949 10.6597C14.8707 11.1082 14.0033 11.3888 13.0408 11.3888C12.0783 11.3888 11.2109 11.1082 10.5866 10.6597C9.96222 10.2111 9.58742 9.60026 9.58742 8.93581ZM15.8689 10.9942C15.8812 10.9854 15.8934 10.9765 15.9055 10.9675L15.9939 11.031L15.957 11.0575L15.8689 10.9942Z" fill="white" stroke="white" stroke-width="0.2"/>
</svg>
