<svg width="14" height="15" viewBox="0 0 14 15" fill="none" xmlns="http://www.w3.org/2000/svg">
<g clip-path="url(#clip0_162_303)">
<path d="M1.3999 2.15214H1.2999V2.25214V14.0121V14.1121H1.3999H10.9199H11.0199V14.0121V12.4321H12.5999H12.6999V12.3321V0.572144V0.472144H12.5999H3.0799H2.9799V0.572144V2.15214H1.3999ZM8.3999 4.87214H10.2599V12.3321V13.3521H2.0599V2.91214H3.0799H8.2999V4.77214V4.87214H8.3999ZM8.79582 2.15214H3.7399V1.23214H11.9399V11.6721H11.0199V4.37622V4.3348L10.9906 4.30551L8.86653 2.18143L8.83724 2.15214H8.79582ZM9.0599 4.11214V3.44948L9.72256 4.11214H9.0599Z" fill="white" stroke="white" stroke-width="0.2"/>
<path d="M9.33983 5.89221V5.79221H9.23983H3.07983H2.97983V5.89221V6.45221V6.55221H3.07983H9.23983H9.33983V6.45221V5.89221Z" fill="white" stroke="white" stroke-width="0.2"/>
<path d="M9.33983 7.57214V7.47214H9.23983H3.07983H2.97983V7.57214V8.13214V8.23214H3.07983H9.23983H9.33983V8.13214V7.57214Z" fill="white" stroke="white" stroke-width="0.2"/>
<path d="M9.33983 9.25208V9.15208H9.23983H3.07983H2.97983V9.25208V9.81208V9.91208H3.07983H9.23983H9.33983V9.81208V9.25208Z" fill="white" stroke="white" stroke-width="0.2"/>
<path d="M5.69983 11.4922V11.3922H5.59983H3.07983H2.97983V11.4922V12.0522V12.1522H3.07983H5.59983H5.69983V12.0522V11.4922Z" fill="white" stroke="white" stroke-width="0.2"/>
<path d="M9.33997 11.4922V11.3922H9.23997H6.71997H6.61997V11.4922V12.0522V12.1522H6.71997H9.23997H9.33997V12.0522V11.4922Z" fill="white" stroke="white" stroke-width="0.2"/>
<path d="M7.37979 4.21216V4.11216H7.27979H5.03979H4.93979V4.21216V4.77216V4.87216H5.03979H7.27979H7.37979V4.77216V4.21216Z" fill="white" stroke="white" stroke-width="0.2"/>
</g>
<defs>
<clipPath id="clip0_162_303">
<rect width="14" height="14" fill="white" transform="translate(0 0.292114)"/>
</clipPath>
</defs>
</svg>
