<svg width="16" height="17" viewBox="0 0 16 17" fill="none" xmlns="http://www.w3.org/2000/svg">
<g clip-path="url(#clip0_162_282)">
<path d="M9.00006 15.7921C8.91668 15.768 8.84103 15.7226 8.78054 15.6603C8.72005 15.5981 8.6768 15.5212 8.65506 15.4371L7.75006 12.7271M9.00006 15.7921C9.03821 15.7974 9.0769 15.7974 9.11506 15.7921C9.18086 15.7925 9.24609 15.7799 9.30701 15.755C9.36793 15.7301 9.42334 15.6935 9.47006 15.6471M9.00006 15.7921L9.05439 15.3942L9.05756 15.371L9.06294 15.3316L9.06733 15.2995L9.0677 15.2967C9.06097 15.2958 9.05414 15.2958 9.04741 15.2967L9.08252 15.2919L9.08972 15.292L9.11793 15.2921L9.1298 15.2802M9.00006 15.7921L9.0782 15.5222L9.1174 15.3869L9.13367 15.3306M9.47006 15.6471L10.5251 14.5871C10.8112 14.3053 11.0379 13.969 11.1916 13.5979C11.3454 13.2269 11.4231 12.8288 11.4201 12.4271V9.87214C11.4208 9.77511 11.3933 9.67995 11.341 9.59827C11.2886 9.51659 11.2136 9.45192 11.1251 9.41214M9.47006 15.6471L9.13779 15.3164L9.13367 15.3306M9.47006 15.6471L9.13875 15.3131L9.13911 15.3119L9.13478 15.2951L9.1298 15.2802M11.1251 9.41214C11.034 9.37385 10.9336 9.36339 10.8367 9.38208C10.7397 9.40076 10.6504 9.44776 10.5801 9.51714M11.1251 9.41214L10.9382 9.85659L10.9332 9.86829L10.9326 9.86972L10.9336 9.87069L10.9322 9.87214L10.9201 9.88425M11.1251 9.41214L10.9272 9.85225L10.9235 9.86058L10.5801 9.51714M10.5801 9.51714L7.87006 12.2271C7.80665 12.2918 7.76199 12.3725 7.74086 12.4605C7.71972 12.5486 7.7229 12.6407 7.75006 12.7271M10.5801 9.51714L10.9221 9.86375L10.9201 9.86819L10.9265 9.86824L10.9201 9.86819V9.87214V9.88425M7.75006 12.7271L8.21073 12.5733L8.21484 12.5719L7.87007 12.2272L8.21992 12.5702L8.22431 12.5688L8.22712 12.5772M7.75006 12.7271L8.22179 12.5789L8.22361 12.5807L8.22712 12.5772M8.22712 12.5772L9.12931 15.2788L9.1298 15.2802M8.22712 12.5772L10.9201 9.88425M9.1298 15.2802L10.1707 14.2344L10.1742 14.2309L10.1742 14.2309C10.4127 13.996 10.6016 13.7157 10.7297 13.4065C10.8578 13.0973 10.9226 12.7656 10.9201 12.4309L10.92 12.4271H10.9201V9.88425M9.13367 15.3306L9.12973 15.321L9.13367 15.3306Z" stroke="white"/>
<mask id="path-2-inside-1_162_282" fill="white">
<path d="M6.41991 4.85714H3.86491C3.4633 4.85414 3.06517 4.93181 2.69414 5.08555C2.3231 5.23929 1.98671 5.46597 1.70491 5.75214L0.644914 6.79214C0.577159 6.85413 0.527785 6.93358 0.502207 7.02178C0.476629 7.10998 0.475836 7.20352 0.499915 7.29214C0.519091 7.37479 0.558986 7.4512 0.615842 7.51418C0.672699 7.57716 0.744647 7.62464 0.824914 7.65214L3.54991 8.54214C3.60186 8.55772 3.65569 8.56614 3.70991 8.56714C3.77572 8.56752 3.84095 8.55491 3.90187 8.53002C3.96279 8.50514 4.01819 8.46848 4.06491 8.42214L6.77491 5.71214C6.84429 5.64183 6.89129 5.55254 6.90998 5.45555C6.92867 5.35855 6.9182 5.25819 6.87991 5.16714C6.8424 5.07583 6.77871 4.99767 6.69684 4.9425C6.61498 4.88733 6.51863 4.85763 6.41991 4.85714Z"/>
</mask>
<path d="M6.41991 4.85714L6.42491 3.85714H6.41991V4.85714ZM3.86491 4.85714L3.85745 5.85714H3.86491V4.85714ZM1.70491 5.75214L2.40526 6.46595L2.4114 6.45992L2.41745 6.45378L1.70491 5.75214ZM0.644914 6.79214L1.31993 7.52994L1.3328 7.51817L1.34526 7.50595L0.644914 6.79214ZM0.499915 7.29214L1.47404 7.06612L1.46982 7.04795L1.46493 7.02994L0.499915 7.29214ZM0.824914 7.65214L0.500791 8.59815L0.507603 8.60049L0.514448 8.60272L0.824914 7.65214ZM3.54991 8.54214L3.23945 9.49272L3.25094 9.49648L3.26252 9.49995L3.54991 8.54214ZM3.70991 8.56714L3.69143 9.56705L3.70413 9.56712L3.70991 8.56714ZM4.06491 8.42214L4.76914 9.13213L4.77202 9.12925L4.06491 8.42214ZM6.77491 5.71214L7.48204 6.41926L7.48673 6.41451L6.77491 5.71214ZM6.87991 5.16714L5.95489 5.54714L5.9581 5.55477L6.87991 5.16714ZM6.41991 3.85714H3.86491V5.85714H6.41991V3.85714ZM3.87238 3.85717C3.3369 3.85317 2.80606 3.95673 2.31134 4.16172L3.07693 6.00939C3.32428 5.90689 3.5897 5.85511 3.85745 5.85711L3.87238 3.85717ZM2.31134 4.16172C1.81663 4.3667 1.36811 4.66894 0.992382 5.0505L2.41745 6.45378C2.60531 6.263 2.82957 6.11188 3.07693 6.00939L2.31134 4.16172ZM1.00457 5.03833L-0.0554262 6.07833L1.34526 7.50595L2.40526 6.46595L1.00457 5.03833ZM-0.0301002 6.05433C-0.233366 6.2403 -0.381489 6.47866 -0.458222 6.74325L1.46264 7.3003C1.43706 7.3885 1.38768 7.46795 1.31993 7.52994L-0.0301002 6.05433ZM-0.458222 6.74325C-0.534955 7.00785 -0.537335 7.28847 -0.4651 7.55433L1.46493 7.02994C1.48901 7.11856 1.48821 7.2121 1.46264 7.3003L-0.458222 6.74325ZM-0.474209 7.51815C-0.416679 7.76611 -0.296995 7.99535 -0.126426 8.18429L1.35811 6.84408C1.41497 6.90706 1.45486 6.98347 1.47404 7.06612L-0.474209 7.51815ZM-0.126426 8.18429C0.0441425 8.37322 0.259987 8.51565 0.500791 8.59815L1.14904 6.70612C1.22931 6.73363 1.30126 6.7811 1.35811 6.84408L-0.126426 8.18429ZM0.514448 8.60272L3.23945 9.49272L3.86038 7.59155L1.13538 6.70155L0.514448 8.60272ZM3.26252 9.49995C3.40177 9.54173 3.54608 9.56428 3.69143 9.56697L3.7284 7.56731C3.7653 7.56799 3.80195 7.57372 3.83731 7.58433L3.26252 9.49995ZM3.70413 9.56712C3.90154 9.56826 4.09723 9.53043 4.27999 9.45578L3.52374 7.60427C3.58466 7.57939 3.64989 7.56677 3.7157 7.56716L3.70413 9.56712ZM4.27999 9.45578C4.46275 9.38113 4.62897 9.27115 4.76913 9.13212L3.3607 7.71216C3.40742 7.66581 3.46283 7.62915 3.52374 7.60427L4.27999 9.45578ZM4.77202 9.12925L7.48202 6.41925L6.06781 5.00503L3.35781 7.71503L4.77202 9.12925ZM7.48673 6.41451C7.69486 6.20357 7.83586 5.93571 7.89192 5.64473L5.92804 5.26636C5.94672 5.16937 5.99372 5.08008 6.0631 5.00977L7.48673 6.41451ZM7.89192 5.64473C7.94798 5.35374 7.9166 5.05267 7.80173 4.77951L5.9581 5.55477C5.91981 5.46372 5.90935 5.36336 5.92804 5.26636L7.89192 5.64473ZM7.80491 4.78715C7.69238 4.51322 7.50128 4.27873 7.2557 4.11323L6.13799 5.77177C6.05613 5.7166 5.99243 5.63844 5.95492 5.54713L7.80491 4.78715ZM7.2557 4.11323C7.01012 3.94773 6.72104 3.85863 6.42491 3.85715L6.41492 5.85713C6.31621 5.85663 6.21985 5.82693 6.13799 5.77177L7.2557 4.11323Z" fill="white" mask="url(#path-2-inside-1_162_282)"/>
<path d="M6.42159 12.5807L6.42863 12.5878L6.43588 12.5944L6.42918 12.601L6.08418 12.941L6.08417 12.941L6.08054 12.9447C5.47255 13.5563 4.74893 14.0408 3.95183 14.37C3.15472 14.6992 2.30008 14.8665 1.43768 14.8622V14.8622H1.43515L1.43514 14.8596C1.43077 13.9972 1.59806 13.1426 1.92727 12.3455C2.25612 11.5492 2.73997 10.8263 3.35069 10.2187L3.70361 9.87573L3.70367 9.87579L3.71015 9.86927L3.71159 9.87072L6.42159 12.5807Z" stroke="white"/>
<path d="M14.9988 1.29216H15.0002L15.0002 1.29357C15.0042 2.72582 14.7241 4.14465 14.1761 5.46792C13.6281 6.7912 12.8231 7.99262 11.8076 9.00265L11.8066 9.0036L8.03162 12.7786L8.03101 12.7792C7.93811 12.8724 7.82771 12.9464 7.70616 12.9969C7.58461 13.0474 7.45429 13.0733 7.32268 13.0733C7.19106 13.0733 7.06074 13.0474 6.93919 12.9969L6.74745 13.4587L6.93919 12.9969C6.81764 12.9464 6.70725 12.8724 6.61434 12.7792L6.61373 12.7786L3.51373 9.6786L3.51312 9.67799C3.41989 9.58509 3.34592 9.4747 3.29545 9.35314L2.83367 9.54489L3.29545 9.35314C3.24498 9.23159 3.21899 9.10127 3.21899 8.96966C3.21899 8.83804 3.24497 8.70773 3.29545 8.58617C3.34592 8.46462 3.41989 8.35423 3.51312 8.26133L3.51373 8.26071L7.28873 4.48571L7.28968 4.48476C8.29971 3.46928 9.50114 2.66423 10.8244 2.11622C12.1477 1.56821 13.5665 1.28812 14.9988 1.29216Z" stroke="white"/>
<path d="M8.82864 6.28578C9.11957 6.34352 9.38684 6.48622 9.59669 6.69583C9.73615 6.83514 9.84679 7.00057 9.92228 7.18267L10.339 7.0099L9.92228 7.18267C9.99777 7.36477 10.0366 7.55996 10.0366 7.75708C10.0366 7.9542 9.99777 8.14939 9.92228 8.33149C9.84679 8.51359 9.73615 8.67902 9.59669 8.81833C9.38684 9.02794 9.11957 9.17064 8.82864 9.22838C8.53772 9.28612 8.2362 9.25632 7.96221 9.14274C7.68822 9.02916 7.45405 8.8369 7.2893 8.59026C7.12455 8.34363 7.03662 8.05368 7.03662 7.75708C7.03662 7.46048 7.12455 7.17054 7.2893 6.9239C7.45405 6.67726 7.68822 6.485 7.96221 6.37142C8.2362 6.25784 8.53772 6.22804 8.82864 6.28578Z" stroke="white"/>
<path d="M15 1.29267C15.0016 2.78813 14.6939 4.26384 14.1004 5.6283C13.7249 4.90111 13.2393 4.23362 12.6591 3.65023C12.0771 3.06501 11.4099 2.57462 10.6821 2.19462C12.0409 1.60251 13.5104 1.29383 15 1.29211L15 1.29267Z" stroke="white"/>
</g>
<defs>
<clipPath id="clip0_162_282">
<rect width="16" height="16" fill="white" transform="translate(0 0.292114)"/>
</clipPath>
</defs>
</svg>
