<svg width="21" height="22" viewBox="0 0 21 22" fill="none" xmlns="http://www.w3.org/2000/svg">
<path d="M10.5 7.42303C10.5 9.28548 10.5 11.4577 10.5 12.2921C13 13.7921 17.5 13.1254 18.5 12.2921C18.5 11.3765 18.5 9.09627 18.5 7.42303M10.5 7.42303C10.5 6.6071 10.5 5.85062 10.5 5.29211C11.6667 5.95878 15.7 6.89211 18.5 5.29211C18.5 5.91867 18.5 6.65972 18.5 7.42303M10.5 7.42303C11.5 7.96667 15.3 8.72777 18.5 7.42303M10.5 9.93979C11.5 10.4834 15.3 11.2445 18.5 9.93979" stroke="white"/>
<path d="M18.5 4.29211C18.5 4.40557 18.4504 4.55129 18.2842 4.72591C18.1155 4.90311 17.8479 5.08543 17.4789 5.24942C16.7422 5.57684 15.6894 5.79211 14.5 5.79211C13.3106 5.79211 12.2578 5.57684 11.5211 5.24942C11.1521 5.08543 10.8845 4.90311 10.7158 4.72591C10.5496 4.55129 10.5 4.40557 10.5 4.29211C10.5 4.17866 10.5496 4.03294 10.7158 3.85832C10.8845 3.68112 11.1521 3.4988 11.5211 3.33481C12.2578 3.00738 13.3106 2.79211 14.5 2.79211C15.6894 2.79211 16.7422 3.00738 17.4789 3.33481C17.8479 3.4988 18.1155 3.68112 18.2842 3.85832C18.4504 4.03294 18.5 4.17866 18.5 4.29211Z" stroke="white"/>
<path d="M2.5 12.423C2.5 14.2855 2.5 16.4577 2.5 17.2921C5 18.7921 9.5 18.1254 10.5 17.2921C10.5 16.3765 10.5 14.0963 10.5 12.423M2.5 12.423C2.5 11.6071 2.5 10.8506 2.5 10.2921C3.66667 10.9588 7.7 11.8921 10.5 10.2921C10.5 10.9187 10.5 11.6597 10.5 12.423M2.5 12.423C3.5 12.9667 7.3 13.7278 10.5 12.423M2.5 14.9398C3.5 15.4834 7.3 16.2445 10.5 14.9398" stroke="white"/>
<path d="M10.5 9.29211C10.5 9.40557 10.4504 9.55129 10.2842 9.72591C10.1155 9.90311 9.84789 10.0854 9.47891 10.2494C8.74221 10.5768 7.68943 10.7921 6.5 10.7921C5.31057 10.7921 4.25779 10.5768 3.52109 10.2494C3.15211 10.0854 2.88446 9.90311 2.71583 9.72591C2.54965 9.55129 2.5 9.40557 2.5 9.29211C2.5 9.17866 2.54965 9.03294 2.71583 8.85832C2.88446 8.68112 3.15211 8.4988 3.52109 8.33481C4.25779 8.00738 5.31057 7.79211 6.5 7.79211C7.68943 7.79211 8.74221 8.00738 9.47891 8.33481C9.84789 8.4988 10.1155 8.68112 10.2842 8.85832C10.4504 9.03294 10.5 9.17866 10.5 9.29211Z" stroke="white"/>
</svg>
