<svg width="14" height="15" viewBox="0 0 14 15" fill="none" xmlns="http://www.w3.org/2000/svg">
<g clip-path="url(#clip0_162_208)">
<path d="M7.49292 14.2898C7.52296 14.2901 7.55271 14.2921 7.58305 14.2921C7.61338 14.2921 7.64313 14.2901 7.67317 14.2898H7.49292Z" fill="white"/>
<path d="M3.9375 7.29211H2.1875V9.04211H3.9375V7.29211Z" fill="white"/>
<path d="M6.61133 7.29211H4.86133V9.04211H6.61133V7.29211Z" fill="white"/>
<path d="M3.9375 9.91711H2.1875V11.6671H3.9375V9.91711Z" fill="white"/>
<path d="M6.61133 9.91711H4.86133V11.6671H6.61133V9.91711Z" fill="white"/>
<path d="M4.08333 0.292114H2.91667V1.45878H0V4.92961V6.09628V14.2921H6.61121V13.1254H1.16667V6.09628H6.61121V4.92961H1.16667V2.62545H2.91667V3.79211H4.08333V2.62545H6.61121V1.45878H4.08333V0.292114Z" fill="white"/>
<path d="M7.72974 1.46228V2.63274C10.5609 2.71091 12.8333 5.02528 12.8333 7.87545C12.8333 10.7253 10.5609 13.0397 7.72974 13.1182V14.2886C11.2058 14.2104 14 11.3702 14 7.87545C14 4.3807 11.2058 1.54045 7.72974 1.46228Z" fill="white"/>
<path d="M11.6667 8.45874V7.29208H8.89611V3.81628H7.72974V7.29208V8.45874H8.89611H11.6667Z" fill="white"/>
</g>
<defs>
<clipPath id="clip0_162_208">
<rect width="14" height="14" fill="white" transform="translate(0 0.292114)"/>
</clipPath>
</defs>
</svg>
