<svg width="19" height="20" viewBox="0 0 19 20" fill="none" xmlns="http://www.w3.org/2000/svg">
<path d="M14.3629 16.3886C14.2398 16.3896 14.1195 16.3522 14.0185 16.2818L8.31258 12.2799C8.24199 12.2301 8.18311 12.1656 8.14004 12.0907C8.09697 12.0158 8.07075 11.9325 8.06321 11.8464C8.05521 11.7595 8.06649 11.6718 8.09626 11.5897C8.12602 11.5076 8.17353 11.4331 8.23539 11.3714L9.79102 9.79206L7.12508 11.4605L8.31258 14.1858L8.83508 13.6633C8.9461 13.5515 9.09699 13.4884 9.25455 13.4878C9.41211 13.4873 9.56343 13.5493 9.67524 13.6603C9.78704 13.7714 9.85017 13.9222 9.85072 14.0798C9.85128 14.2374 9.78922 14.3887 9.67821 14.5005L8.49071 15.6405C8.42225 15.7097 8.33785 15.7609 8.24492 15.7898C8.152 15.8187 8.0534 15.8243 7.95781 15.8061C7.86221 15.7879 7.77255 15.7465 7.69672 15.6855C7.62088 15.6246 7.56119 15.5459 7.52289 15.4564L5.80696 11.4546C5.75202 11.3237 5.74578 11.1775 5.78934 11.0424C5.83291 10.9074 5.92342 10.7924 6.04446 10.7183L13.4782 6.1405C13.6022 6.06419 13.7499 6.03609 13.8932 6.06153C14.0366 6.08698 14.1656 6.1642 14.2557 6.27852C14.3458 6.39284 14.3908 6.53629 14.3821 6.68161C14.3734 6.82694 14.3116 6.964 14.2085 7.06675L9.5654 11.7099L13.9829 14.8093L16.3579 4.7155L3.43196 9.52488L4.86289 10.1186C4.93972 10.1444 5.01045 10.1857 5.07073 10.2398C5.13101 10.294 5.17957 10.3599 5.21341 10.4335C5.24726 10.5071 5.26568 10.5869 5.26753 10.6679C5.26938 10.7489 5.25463 10.8295 5.22419 10.9046C5.19374 10.9797 5.14824 11.0477 5.0905 11.1046C5.03276 11.1615 4.96399 11.2059 4.88842 11.2352C4.81286 11.2644 4.73211 11.2779 4.65113 11.2748C4.57016 11.2717 4.49067 11.252 4.41758 11.2171L1.56164 10.0593C1.44899 10.0165 1.352 9.94053 1.28356 9.84137C1.21512 9.74221 1.17847 9.62458 1.17847 9.50409C1.17847 9.38361 1.21512 9.26598 1.28356 9.16682C1.352 9.06766 1.44899 8.99167 1.56164 8.94894L17.011 3.26081C17.111 3.22474 17.2189 3.21618 17.3233 3.23602C17.4278 3.25587 17.525 3.30339 17.6048 3.37363C17.6873 3.44592 17.7482 3.53968 17.7807 3.64449C17.8132 3.7493 17.816 3.86106 17.7888 3.96738L14.9388 15.9314C14.9169 16.0266 14.8718 16.1148 14.8076 16.1883C14.7433 16.2618 14.662 16.3184 14.5707 16.353C14.5039 16.3764 14.4337 16.3884 14.3629 16.3886Z" fill="white"/>
</svg>
