<svg width="14" height="14" viewBox="0 0 14 14" fill="none" xmlns="http://www.w3.org/2000/svg">
<path d="M13.2244 11.6333L7.5481 5.95703C7.74586 5.60813 7.69714 5.15627 7.40008 4.85927L7.37836 4.83755L10.3173 1.89862C10.4552 1.76068 10.5137 1.56425 10.4736 1.37309C10.4337 1.18301 10.3021 1.02754 10.1216 0.957165C9.9541 0.891885 9.76156 0.858765 9.54934 0.858765C8.54494 0.858765 7.02376 1.61716 5.44048 2.89967L5.31688 2.77607C5.14432 2.60345 4.91458 2.50841 4.67008 2.50841C4.5091 2.50841 4.35496 2.55034 4.21888 2.6278L4.1866 2.59553C3.94804 2.35696 3.63088 2.22563 3.29356 2.22563C2.95618 2.22563 2.63902 2.35696 2.40052 2.59553C2.16196 2.83409 2.03062 3.15119 2.03062 3.48857C2.03062 3.82595 2.16196 4.14305 2.40052 4.38161L2.43304 4.41413C2.23528 4.76303 2.284 5.21489 2.58106 5.51195L2.70478 5.63567C1.44058 7.19987 0.319115 9.17999 0.762155 10.3166C0.848435 10.5379 1.05838 10.6809 1.29694 10.6809C1.45042 10.6809 1.59484 10.621 1.70356 10.5123L4.64248 7.57337L4.6642 7.59509C4.83682 7.76771 5.0665 7.86275 5.311 7.86275C5.47198 7.86275 5.62612 7.82081 5.7622 7.74335L11.4382 13.4193C11.6768 13.6579 11.9939 13.7892 12.3312 13.7892C12.6686 13.7892 12.9857 13.6579 13.2243 13.4193C13.7168 12.927 13.7168 12.1258 13.2244 11.6333ZM5.31106 7.16639C5.25256 7.16639 5.19772 7.14377 5.15668 7.10273L4.64254 6.58853L1.36594 9.86513C1.33108 9.52163 1.4563 9.01373 1.72522 8.42663C2.08672 7.63751 2.68006 6.74213 3.44116 5.83727L3.64684 5.59277L3.07354 5.01947C2.9884 4.93433 2.9884 4.79579 3.07354 4.71065L4.51576 3.26842C4.55686 3.22732 4.6117 3.20471 4.67014 3.20471C4.72864 3.20471 4.78348 3.22732 4.82452 3.26842L5.39782 3.84173L5.64226 3.63611C7.1683 2.35253 8.66542 1.55512 9.5494 1.55512C9.5917 1.55512 9.63196 1.55704 9.67006 1.56094L6.39352 4.83749L6.90766 5.35163C6.9928 5.43677 6.9928 5.57531 6.90766 5.66045L5.46544 7.10267C5.42434 7.14377 5.3695 7.16639 5.31106 7.16639ZM2.75032 3.32729C2.7607 3.29225 2.7745 3.25798 2.79178 3.2251C2.8177 3.17578 2.85142 3.12947 2.89288 3.08795C2.962 3.01883 3.04456 2.97125 3.13216 2.94533C3.18472 2.92979 3.23908 2.92198 3.29344 2.92198C3.3478 2.92198 3.40216 2.92979 3.45472 2.94533C3.5248 2.96609 3.59164 3.00065 3.65098 3.04907C3.6658 3.06119 3.6802 3.07415 3.694 3.08795L3.70258 3.09653L2.90134 3.89776L2.89276 3.88919C2.80978 3.80621 2.75794 3.70391 2.73718 3.59681C2.73028 3.56111 2.7268 3.52486 2.7268 3.48862C2.72698 3.4342 2.73478 3.37985 2.75032 3.32729ZM12.8953 12.5807C12.8901 12.6349 12.8772 12.6885 12.8564 12.7396C12.8288 12.8078 12.7873 12.8717 12.732 12.927C12.6767 12.9824 12.6128 13.0238 12.5445 13.0515C12.5105 13.0653 12.4752 13.0757 12.4395 13.0826C12.4038 13.0895 12.3676 13.093 12.3313 13.093C12.1863 13.093 12.0413 13.0377 11.9307 12.927L6.27832 7.27469L7.07956 6.47345L8.21302 7.60691L12.7319 12.1258C12.7872 12.1811 12.8287 12.245 12.8564 12.3132C12.8771 12.3644 12.8901 12.4179 12.8952 12.4721C12.8987 12.5082 12.8987 12.5446 12.8953 12.5807Z" fill="white"/>
</svg>
