<svg width="16" height="17" viewBox="0 0 16 17" fill="none" xmlns="http://www.w3.org/2000/svg">
<path d="M12.6084 3.66055L12.6082 3.66031C12.1522 3.17134 11.5068 2.89211 10.8375 2.89211C9.49887 2.89211 8.40942 3.98188 8.40942 5.31399C8.40942 5.50671 8.4305 5.69268 8.47235 5.86903L8.47247 5.86952L8.62246 6.5164L8.65246 6.64573L8.51987 6.63885L7.85752 6.60449C6.54033 6.53815 5.27958 6.2001 4.1106 5.59669C3.27948 5.17076 2.53152 4.62584 1.872 3.97771C1.8517 4.10664 1.84067 4.23707 1.84067 4.36711C1.84067 5.18356 2.24576 5.9369 2.9214 6.39033L2.92239 6.391L2.86567 6.47336L2.9224 6.39101L2.92243 6.39103L2.92256 6.39112L2.92311 6.3915L2.92532 6.39302L2.93406 6.39902L2.96771 6.42205C2.99693 6.442 3.03915 6.47074 3.0911 6.50584C3.19501 6.57606 3.33775 6.67167 3.49307 6.77327C3.80615 6.97807 4.16282 7.20217 4.35872 7.2956L4.70681 7.46161L4.32191 7.48567C3.94306 7.50935 3.50411 7.51008 3.16107 7.50499C2.98928 7.50244 2.84104 7.49843 2.73571 7.49504C2.68303 7.49335 2.64107 7.49182 2.61223 7.4907L2.57913 7.48938L2.57053 7.48902L2.56831 7.48893L2.56774 7.4889L2.56759 7.4889L2.56755 7.48889L2.57192 7.38899L2.56753 7.48889L2.56605 7.48883L2.56605 7.48882C2.36098 7.47675 2.16956 7.45901 1.97777 7.42234C2.26988 8.18038 2.93139 8.76595 3.75916 8.93133L5.6862 9.27176L5.70037 9.46512L3.8035 10.0964L3.79816 10.0982L3.79812 10.098C3.63199 10.1431 3.46191 10.1778 3.28922 10.1993C3.73095 10.7326 4.38914 11.0626 5.11121 11.0765C5.11125 11.0765 5.11129 11.0765 5.11134 11.0765M12.6084 3.66055L5.10942 11.1765L5.11134 11.0765M12.6084 3.66055L12.799 3.86367L12.8368 3.90399L12.8911 3.89338L13.163 3.84026L13.1634 3.84017C13.1897 3.83492 13.2158 3.82956 13.2419 3.82407M12.6084 3.66055L12.6594 4.49836M5.11134 11.0765L6.51433 11.1015L6.79557 11.1065L6.57428 11.2802L5.47121 12.1457L5.11134 11.0765ZM13.2157 3.98274C13.2958 3.91167 13.3716 3.8406 13.432 3.78122C13.3688 3.79648 13.3056 3.81067 13.2419 3.82407M13.2157 3.98274L8.37505 5.89211C8.3313 5.70774 8.30942 5.51399 8.30942 5.31399C8.30942 3.92649 9.4438 2.79211 10.8375 2.79211C11.5344 2.79211 12.2063 3.08274 12.6813 3.59211L12.8719 3.79524L13.1438 3.74211C13.2238 3.72611 13.3029 3.70908 13.3815 3.69047C13.377 3.69491 13.3724 3.69948 13.3677 3.70415C13.3311 3.74028 13.2883 3.78123 13.2419 3.82407M13.2157 3.98274C13.1148 4.07237 12.8726 4.2986 12.7436 4.41943L13.2157 3.98274ZM13.2419 3.82407C13.2122 3.8515 13.1811 3.8797 13.1493 3.90792L13.1492 3.908C13.0779 3.97145 12.9379 4.10124 12.8166 4.21429C12.7558 4.271 12.6994 4.3238 12.6582 4.36241L12.6091 4.40842L12.5957 4.42106L12.5921 4.42436L12.5912 4.42521L12.591 4.42542L12.591 4.42548L12.5909 4.42549L12.6594 4.49836M12.6594 4.49836L12.5909 4.4255L12.4666 4.54239L12.6293 4.59373L12.6594 4.49836ZM12.6594 4.49836L12.6294 4.59374L12.6294 4.59375L12.6295 4.59377L12.6297 4.59385L12.6307 4.59416L12.6343 4.59529L12.6481 4.59953C12.6599 4.60317 12.6771 4.60838 12.6985 4.61471C12.7411 4.62735 12.8007 4.6445 12.8684 4.66256C13.0022 4.69827 13.1732 4.73905 13.3078 4.754C13.3914 4.7633 13.4787 4.76488 13.5604 4.76249M12.6594 4.49836L13.5604 4.76249M13.5604 4.76249C13.5441 4.7739 13.5287 4.78467 13.5146 4.79457L13.5146 4.79455L13.513 4.79567L13.2943 4.95504L13.2508 4.98674L13.2533 5.04051L13.2658 5.30926L13.2658 5.30987C13.272 5.42674 13.2751 5.54998 13.2751 5.67336C13.2751 6.60444 13.0931 7.58007 12.7502 8.49763L13.5604 4.76249ZM3.00245 13.3625C3.73338 13.5788 4.49333 13.689 5.26255 13.689C6.50551 13.689 7.66285 13.4448 8.7048 12.9608L8.70493 12.9607C9.65765 12.5198 10.4965 11.8908 11.2063 11.0854C11.8698 10.3323 12.3886 9.46166 12.7501 8.49773L3.00245 13.3625ZM3.00245 13.3625C3.19229 13.314 3.37952 13.2569 3.56411 13.1928L3.56435 13.1927C4.25294 12.9516 4.89386 12.5994 5.47116 12.1458L3.00245 13.3625ZM7.71255 5.32024C7.71255 5.51883 7.72953 5.71388 7.76545 5.90353C5.33253 5.74556 3.17844 4.56368 1.73078 2.78217L1.63941 2.66974L1.56669 2.79504C1.29875 3.25666 1.1438 3.79578 1.1438 4.36711C1.1438 5.32543 1.57477 6.18543 2.25389 6.76009C1.90004 6.7084 1.56646 6.5914 1.26776 6.42367L1.1188 6.34002V6.51086V6.51094V6.51101V6.51108V6.51116V6.51123V6.5113V6.51138V6.51145V6.51152V6.5116V6.51167V6.51174V6.51182V6.51189V6.51196V6.51204V6.51211V6.51218V6.51226V6.51233V6.5124V6.51248V6.51255V6.51262V6.5127V6.51277V6.51284V6.51292V6.51299V6.51306V6.51313V6.51321V6.51328V6.51335V6.51343V6.5135V6.51357V6.51365V6.51372V6.51379V6.51387V6.51394V6.51401V6.51409V6.51416V6.51423V6.51431V6.51438V6.51445V6.51453V6.5146V6.51467V6.51475V6.51482V6.51489V6.51497V6.51504V6.51511V6.51519V6.51526V6.51533V6.51541V6.51548V6.51555V6.51562V6.5157V6.51577V6.51584V6.51592V6.51599V6.51606V6.51614V6.51621V6.51628V6.51636V6.51643V6.5165V6.51658V6.51665V6.51672V6.5168V6.51687V6.51694V6.51702V6.51709V6.51716V6.51724V6.51731V6.51738V6.51746V6.51753V6.5176V6.51768V6.51775V6.51782V6.5179V6.51797V6.51804V6.51812V6.51819V6.51826V6.51833V6.51841V6.51848V6.51855V6.51863V6.5187V6.51877V6.51885V6.51892V6.51899V6.51907V6.51914V6.51921V6.51929V6.51936V6.51943V6.51951V6.51958V6.51965V6.51973V6.5198V6.51987V6.51995V6.52002V6.52009V6.52017V6.52024V6.52031V6.52039V6.52046V6.52053V6.52061V6.52068V6.52075V6.52082V6.5209V6.52097V6.52104V6.52112V6.52119V6.52126V6.52134V6.52141V6.52148V6.52156V6.52163V6.5217V6.52178V6.52185V6.52192V6.522V6.52207V6.52214V6.52222V6.52229V6.52236V6.52244V6.52251V6.52258V6.52266V6.52273V6.5228V6.52288V6.52295V6.52302V6.5231V6.52317V6.52324V6.52332V6.52339V6.52346V6.52354V6.52361V6.52368V6.52375V6.52383V6.5239V6.52397V6.52405V6.52412V6.52419V6.52427V6.52434V6.52441V6.52449V6.52456V6.52463V6.52471V6.52478V6.52485V6.52493V6.525V6.52507V6.52515V6.52522V6.52529V6.52537V6.52544V6.52551V6.52559V6.52566V6.52573V6.52581V6.52588V6.52595V6.52603V6.5261V6.52617V6.52625V6.52632V6.52639V6.52646V6.52654V6.52661V6.52668V6.52676V6.52683V6.5269V6.52698V6.52705V6.52712V6.5272V6.52727V6.52734V6.52742V6.52749V6.52756V6.52764V6.52771V6.52778V6.52786V6.52793V6.528V6.52808V6.52815V6.52822V6.5283V6.52837V6.52844V6.52852V6.52859V6.52866V6.52874V6.52881V6.52888V6.52895V6.52903V6.5291V6.52917V6.52925V6.52932V6.52939V6.52947V6.52954V6.52961V6.52969V6.52976V6.52983V6.52991V6.52998V6.53005V6.53013V6.5302V6.53027V6.53035V6.53042V6.53049V6.53057V6.53064V6.53071V6.53079V6.53086V6.53093V6.53101V6.53108V6.53115V6.53123V6.5313V6.53137V6.53145V6.53152V6.53159V6.53166V6.53174V6.53181V6.53188V6.53196V6.53203V6.5321V6.53218V6.53225V6.53232V6.5324V6.53247V6.53254V6.53262V6.53269V6.53276V6.53284V6.53291V6.53298V6.53306V6.53313V6.5332V6.53328V6.53335V6.53342V6.5335V6.53357V6.53364V6.53372V6.53379V6.53386V6.53394V6.53401V6.53408V6.53416V6.53423V6.5343V6.53438V6.53445V6.53452V6.53459V6.53467V6.53474V6.53481V6.53489V6.53496V6.53503V6.53511V6.53518V6.53525V6.53533V6.5354V6.53547V6.53555V6.53562V6.53569V6.53577V6.53584V6.53591V6.53599V6.53606V6.53613V6.53621V6.53628V6.53635V6.53643V6.5365V6.53657V6.53665V6.53672V6.53679V6.53687V6.53694V6.53701V6.53709V6.53716V6.53723V6.5373V6.53738V6.53745V6.53752V6.5376V6.53767V6.53774V6.53782V6.53789V6.53796V6.53804V6.53811V6.53818V6.53826V6.53833V6.5384V6.53848V6.53855V6.53862V6.5387V6.53877V6.53884V6.53892V6.53899V6.53906V6.53914V6.53921V6.53928V6.53936V6.53943V6.5395V6.53958V6.53965V6.53972V6.53979V6.53987V6.53994V6.54001V6.54009V6.54016V6.54023V6.54031V6.54038V6.54045V6.54053V6.5406V6.54067V6.54075V6.54082V6.54089V6.54097V6.54104V6.54111V6.54119V6.54126V6.54133V6.54141V6.54148V6.54155V6.54163V6.5417V6.54177V6.54185V6.54192V6.54199V6.54207V6.54214V6.54221V6.54228V6.54236V6.54243V6.5425V6.54258V6.54265V6.54272V6.5428V6.54287V6.54294V6.54302V6.54309V6.54316V6.54324V6.54331V6.54338V6.54346V6.54353V6.5436V6.54368V6.54375V6.54382V6.5439V6.54397V6.54404V6.54412V6.54419V6.54426V6.54434V6.54441V6.54448V6.54456V6.54463V6.5447V6.54478V6.54485V6.54492V6.54499V6.54507V6.54514V6.54521V6.54529V6.54536V6.54543V6.54551V6.54558V6.54565V6.54573V6.5458V6.54587V6.54595V6.54602V6.54609V6.54617V6.54624V6.54631V6.54639V6.54646V6.54653V6.54661V6.54668V6.54675V6.54683V6.5469V6.54697V6.54705V6.54712V6.54719V6.54727V6.54734V6.54741V6.54749V6.54756V6.54763V6.54771V6.54778V6.54785V6.54792V6.548V6.54807V6.54814V6.54822V6.54829V6.54836C1.1188 7.91465 1.99308 9.074 3.21126 9.50106C3.09271 9.51574 2.97201 9.52336 2.85005 9.52336C2.66274 9.52336 2.4788 9.50524 2.30123 9.46912L2.13416 9.43514L2.18604 9.59755C2.55622 10.7562 3.58557 11.6203 4.83234 11.753C3.85172 12.4545 2.64895 12.8671 1.35005 12.8671C1.11058 12.8671 0.873894 12.8518 0.639934 12.8241L0.573703 13.0072C1.92699 13.8862 3.53646 14.3921 5.26255 14.3921C10.8981 14.3921 13.9751 9.71941 13.9751 5.67336C13.9751 5.55888 13.9727 5.44435 13.968 5.33179C14.5498 4.90236 15.0554 4.37374 15.4583 3.76946L15.6489 3.48343L15.3346 3.62254C14.9268 3.80301 14.4975 3.93881 14.0494 4.02585C14.5185 3.64662 14.8769 3.13489 15.0641 2.54747L15.1439 2.29688L14.9178 2.43112C14.358 2.76338 13.7402 3.00807 13.0813 3.14266C12.5124 2.55637 11.7151 2.19211 10.8375 2.19211C9.11031 2.19211 7.71255 3.59327 7.71255 5.32024Z" fill="white" stroke="white" stroke-width="0.2"/>
</svg>
