<svg width="46" height="47" viewBox="0 0 46 47" fill="none" xmlns="http://www.w3.org/2000/svg">
<mask id="path-1-inside-1_290_379" fill="white">
<rect x="30" y="26" width="13" height="5" rx="0.7"/>
</mask>
<rect x="30" y="26" width="13" height="5" rx="0.7" stroke="url(#paint0_linear_290_379)" stroke-width="3" mask="url(#path-1-inside-1_290_379)"/>
<rect x="36" y="27" width="1" height="3" fill="url(#paint1_linear_290_379)"/>
<rect x="38" y="27" width="2" height="3" fill="url(#paint2_linear_290_379)"/>
<mask id="path-4-inside-2_290_379" fill="white">
<rect x="15" y="33" width="13" height="5" rx="0.7"/>
</mask>
<rect x="15" y="33" width="13" height="5" rx="0.7" stroke="url(#paint3_linear_290_379)" stroke-width="3" mask="url(#path-4-inside-2_290_379)"/>
<rect x="21" y="34" width="1" height="3" fill="url(#paint4_linear_290_379)"/>
<rect x="23" y="34" width="2" height="3" fill="url(#paint5_linear_290_379)"/>
<mask id="path-7-inside-3_290_379" fill="white">
<rect y="37" width="13" height="5" rx="0.7"/>
</mask>
<rect y="37" width="13" height="5" rx="0.7" stroke="url(#paint6_linear_290_379)" stroke-width="3" mask="url(#path-7-inside-3_290_379)"/>
<rect x="6" y="38" width="1" height="3" fill="url(#paint7_linear_290_379)"/>
<rect x="8" y="38" width="2" height="3" fill="url(#paint8_linear_290_379)"/>
<mask id="path-10-inside-4_290_379" fill="white">
<rect x="32" y="30" width="13" height="5" rx="0.7"/>
</mask>
<rect x="32" y="30" width="13" height="5" rx="0.7" stroke="url(#paint9_linear_290_379)" stroke-width="3" mask="url(#path-10-inside-4_290_379)"/>
<rect x="38" y="31" width="1" height="3" fill="url(#paint10_linear_290_379)"/>
<rect x="40" y="31" width="2" height="3" fill="url(#paint11_linear_290_379)"/>
<mask id="path-13-inside-5_290_379" fill="white">
<rect x="17" y="37" width="13" height="5" rx="0.7"/>
</mask>
<rect x="17" y="37" width="13" height="5" rx="0.7" stroke="url(#paint12_linear_290_379)" stroke-width="3" mask="url(#path-13-inside-5_290_379)"/>
<rect x="23" y="38" width="1" height="3" fill="url(#paint13_linear_290_379)"/>
<rect x="25" y="38" width="2" height="3" fill="url(#paint14_linear_290_379)"/>
<mask id="path-16-inside-6_290_379" fill="white">
<rect x="2" y="41" width="13" height="5" rx="0.7"/>
</mask>
<rect x="2" y="41" width="13" height="5" rx="0.7" stroke="url(#paint15_linear_290_379)" stroke-width="3" mask="url(#path-16-inside-6_290_379)"/>
<rect x="8" y="42" width="1" height="3" fill="url(#paint16_linear_290_379)"/>
<rect x="10" y="42" width="2" height="3" fill="url(#paint17_linear_290_379)"/>
<path d="M29.5 0L12 31.5H16.5L34 0H29.5Z" fill="url(#paint18_linear_290_379)"/>
<mask id="path-20-inside-7_290_379" fill="white">
<rect x="32" y="34" width="13" height="5" rx="0.7"/>
</mask>
<rect x="32" y="34" width="13" height="5" rx="0.7" stroke="url(#paint19_linear_290_379)" stroke-width="3" mask="url(#path-20-inside-7_290_379)"/>
<rect x="38" y="35" width="1" height="3" fill="url(#paint20_linear_290_379)"/>
<rect x="40" y="35" width="2" height="3" fill="url(#paint21_linear_290_379)"/>
<mask id="path-23-inside-8_290_379" fill="white">
<rect x="17" y="41" width="13" height="5" rx="0.7"/>
</mask>
<rect x="17" y="41" width="13" height="5" rx="0.7" stroke="url(#paint22_linear_290_379)" stroke-width="3" mask="url(#path-23-inside-8_290_379)"/>
<rect x="23" y="42" width="1" height="3" fill="url(#paint23_linear_290_379)"/>
<rect x="25" y="42" width="2" height="3" fill="url(#paint24_linear_290_379)"/>
<mask id="path-26-inside-9_290_379" fill="white">
<rect x="33" y="38" width="13" height="5" rx="0.7"/>
</mask>
<rect x="33" y="38" width="13" height="5" rx="0.7" stroke="url(#paint25_linear_290_379)" stroke-width="3" mask="url(#path-26-inside-9_290_379)"/>
<rect x="39" y="39" width="1" height="3" fill="url(#paint26_linear_290_379)"/>
<rect x="41" y="39" width="2" height="3" fill="url(#paint27_linear_290_379)"/>
<mask id="path-29-inside-10_290_379" fill="white">
<rect x="32" y="42" width="13" height="5" rx="0.7"/>
</mask>
<rect x="32" y="42" width="13" height="5" rx="0.7" stroke="url(#paint28_linear_290_379)" stroke-width="3" mask="url(#path-29-inside-10_290_379)"/>
<rect x="38" y="43" width="1" height="3" fill="url(#paint29_linear_290_379)"/>
<rect x="40" y="43" width="2" height="3" fill="url(#paint30_linear_290_379)"/>
<path d="M17.5 9.5C17.5 13.7858 14.6522 16.5 12 16.5C9.3478 16.5 6.5 13.7858 6.5 9.5C6.5 5.2142 9.3478 2.5 12 2.5C14.6522 2.5 17.5 5.2142 17.5 9.5Z" stroke="url(#paint31_linear_290_379)" stroke-width="5"/>
<path d="M28.9998 14.5C23.4998 19.5 25.9998 26.5 27.9998 29C27.1998 25.4 30.3331 24.8333 31.9998 25C31.4998 22.5 31.4998 18.5 33.4998 17.5C37.0998 16.7 37.3332 22.1667 36.9998 25H42.9998C44.4998 17.5 40.8332 14.3333 38.9998 13.5C37.1665 12.6666 32.5998 11.7 28.9998 14.5Z" fill="url(#paint32_linear_290_379)"/>
<defs>
<linearGradient id="paint0_linear_290_379" x1="36.5" y1="26" x2="36.5" y2="31" gradientUnits="userSpaceOnUse">
<stop offset="1" stop-color="#FABE25"/>
</linearGradient>
<linearGradient id="paint1_linear_290_379" x1="36.5" y1="27" x2="36.5" y2="30" gradientUnits="userSpaceOnUse">
<stop offset="1" stop-color="#FABE25"/>
</linearGradient>
<linearGradient id="paint2_linear_290_379" x1="39" y1="27" x2="39" y2="30" gradientUnits="userSpaceOnUse">
<stop offset="1" stop-color="#FABE25"/>
</linearGradient>
<linearGradient id="paint3_linear_290_379" x1="21.5" y1="33" x2="21.5" y2="38" gradientUnits="userSpaceOnUse">
<stop offset="1" stop-color="#FABE25"/>
</linearGradient>
<linearGradient id="paint4_linear_290_379" x1="21.5" y1="34" x2="21.5" y2="37" gradientUnits="userSpaceOnUse">
<stop offset="1" stop-color="#FABE25"/>
</linearGradient>
<linearGradient id="paint5_linear_290_379" x1="24" y1="34" x2="24" y2="37" gradientUnits="userSpaceOnUse">
<stop offset="1" stop-color="#FABE25"/>
</linearGradient>
<linearGradient id="paint6_linear_290_379" x1="6.5" y1="37" x2="6.5" y2="42" gradientUnits="userSpaceOnUse">
<stop offset="1" stop-color="#FABE25"/>
</linearGradient>
<linearGradient id="paint7_linear_290_379" x1="6.5" y1="38" x2="6.5" y2="41" gradientUnits="userSpaceOnUse">
<stop offset="1" stop-color="#FABE25"/>
</linearGradient>
<linearGradient id="paint8_linear_290_379" x1="9" y1="38" x2="9" y2="41" gradientUnits="userSpaceOnUse">
<stop offset="1" stop-color="#FABE25"/>
</linearGradient>
<linearGradient id="paint9_linear_290_379" x1="38.5" y1="30" x2="38.5" y2="35" gradientUnits="userSpaceOnUse">
<stop offset="1" stop-color="#FABE25"/>
</linearGradient>
<linearGradient id="paint10_linear_290_379" x1="38.5" y1="31" x2="38.5" y2="34" gradientUnits="userSpaceOnUse">
<stop offset="1" stop-color="#FABE25"/>
</linearGradient>
<linearGradient id="paint11_linear_290_379" x1="41" y1="31" x2="41" y2="34" gradientUnits="userSpaceOnUse">
<stop offset="1" stop-color="#FABE25"/>
</linearGradient>
<linearGradient id="paint12_linear_290_379" x1="23.5" y1="37" x2="23.5" y2="42" gradientUnits="userSpaceOnUse">
<stop offset="1" stop-color="#FABE25"/>
</linearGradient>
<linearGradient id="paint13_linear_290_379" x1="23.5" y1="38" x2="23.5" y2="41" gradientUnits="userSpaceOnUse">
<stop offset="1" stop-color="#FABE25"/>
</linearGradient>
<linearGradient id="paint14_linear_290_379" x1="26" y1="38" x2="26" y2="41" gradientUnits="userSpaceOnUse">
<stop offset="1" stop-color="#FABE25"/>
</linearGradient>
<linearGradient id="paint15_linear_290_379" x1="8.5" y1="41" x2="8.5" y2="46" gradientUnits="userSpaceOnUse">
<stop offset="1" stop-color="#FABE25"/>
</linearGradient>
<linearGradient id="paint16_linear_290_379" x1="8.5" y1="42" x2="8.5" y2="45" gradientUnits="userSpaceOnUse">
<stop offset="1" stop-color="#FABE25"/>
</linearGradient>
<linearGradient id="paint17_linear_290_379" x1="11" y1="42" x2="11" y2="45" gradientUnits="userSpaceOnUse">
<stop offset="1" stop-color="#FABE25"/>
</linearGradient>
<linearGradient id="paint18_linear_290_379" x1="23" y1="0" x2="23" y2="31.5" gradientUnits="userSpaceOnUse">
<stop offset="1" stop-color="#FABE25"/>
</linearGradient>
<linearGradient id="paint19_linear_290_379" x1="38.5" y1="34" x2="38.5" y2="39" gradientUnits="userSpaceOnUse">
<stop offset="1" stop-color="#FABE25"/>
</linearGradient>
<linearGradient id="paint20_linear_290_379" x1="38.5" y1="35" x2="38.5" y2="38" gradientUnits="userSpaceOnUse">
<stop offset="1" stop-color="#FABE25"/>
</linearGradient>
<linearGradient id="paint21_linear_290_379" x1="41" y1="35" x2="41" y2="38" gradientUnits="userSpaceOnUse">
<stop offset="1" stop-color="#FABE25"/>
</linearGradient>
<linearGradient id="paint22_linear_290_379" x1="23.5" y1="41" x2="23.5" y2="46" gradientUnits="userSpaceOnUse">
<stop offset="1" stop-color="#FABE25"/>
</linearGradient>
<linearGradient id="paint23_linear_290_379" x1="23.5" y1="42" x2="23.5" y2="45" gradientUnits="userSpaceOnUse">
<stop offset="1" stop-color="#FABE25"/>
</linearGradient>
<linearGradient id="paint24_linear_290_379" x1="26" y1="42" x2="26" y2="45" gradientUnits="userSpaceOnUse">
<stop offset="1" stop-color="#FABE25"/>
</linearGradient>
<linearGradient id="paint25_linear_290_379" x1="39.5" y1="38" x2="39.5" y2="43" gradientUnits="userSpaceOnUse">
<stop offset="1" stop-color="#FABE25"/>
</linearGradient>
<linearGradient id="paint26_linear_290_379" x1="39.5" y1="39" x2="39.5" y2="42" gradientUnits="userSpaceOnUse">
<stop offset="1" stop-color="#FABE25"/>
</linearGradient>
<linearGradient id="paint27_linear_290_379" x1="42" y1="39" x2="42" y2="42" gradientUnits="userSpaceOnUse">
<stop offset="1" stop-color="#FABE25"/>
</linearGradient>
<linearGradient id="paint28_linear_290_379" x1="38.5" y1="42" x2="38.5" y2="47" gradientUnits="userSpaceOnUse">
<stop offset="1" stop-color="#FABE25"/>
</linearGradient>
<linearGradient id="paint29_linear_290_379" x1="38.5" y1="43" x2="38.5" y2="46" gradientUnits="userSpaceOnUse">
<stop offset="1" stop-color="#FABE25"/>
</linearGradient>
<linearGradient id="paint30_linear_290_379" x1="41" y1="43" x2="41" y2="46" gradientUnits="userSpaceOnUse">
<stop offset="1" stop-color="#FABE25"/>
</linearGradient>
<linearGradient id="paint31_linear_290_379" x1="12" y1="0" x2="12" y2="19" gradientUnits="userSpaceOnUse">
<stop offset="1" stop-color="#FABE25"/>
</linearGradient>
<linearGradient id="paint32_linear_290_379" x1="34.506" y1="12.6375" x2="34.506" y2="29" gradientUnits="userSpaceOnUse">
<stop offset="1" stop-color="#FABE25"/>
</linearGradient>
</defs>
</svg>
