<svg width="51" height="51" viewBox="0 0 51 51" fill="none" xmlns="http://www.w3.org/2000/svg">
<path d="M20.3534 19.572C20.34 19.5854 20.3219 19.5929 20.303 19.593C20.3029 19.593 20.3028 19.593 20.3028 19.593L15.6318 19.5932L20.3744 14.6493L20.3744 19.5213C20.3744 19.5214 20.3744 19.5215 20.3744 19.5216C20.3744 19.5405 20.3668 19.5586 20.3534 19.572C20.3534 19.572 20.3534 19.572 20.3534 19.572Z" stroke="#F6A52D" stroke-width="2"/>
<path d="M27.5606 44.4767H27.5593C26.4517 44.4753 25.384 44.0628 24.5632 43.3189C24.1319 42.928 23.7849 42.4601 23.5368 41.9442L20.298 44.1238C19.8413 44.4312 19.2812 44.5446 18.7408 44.4391L18.9326 43.4576L18.7408 44.439C18.2005 44.3335 17.7242 44.0176 17.4168 43.5609C17.1094 43.1042 16.996 42.544 17.1015 42.0037C17.2071 41.4633 17.523 40.9871 17.9797 40.6796L17.9799 40.6795L22.8005 37.4366C23.2298 37.1473 23.7298 36.9804 24.2468 36.9536C24.7638 36.9268 25.2783 37.0412 25.7353 37.2846L25.2652 38.1672L25.7353 37.2846C26.1922 37.5279 26.5743 37.891 26.8406 38.335C27.1069 38.7789 27.2474 39.2869 27.2471 39.8046M27.5606 44.4767L27.2471 39.8046M27.5606 44.4767H30.7157C30.9904 44.4826 31.2636 44.4339 31.5194 44.3333L31.1537 43.4026L31.5194 44.3333C31.7771 44.2321 32.0119 44.0803 32.21 43.887C32.4082 43.6936 32.5656 43.4625 32.6731 43.2074C32.7806 42.9523 32.836 42.6782 32.836 42.4014C32.836 42.1245 32.7806 41.8505 32.6731 41.5954C32.5656 41.3402 32.4082 41.1092 32.21 40.9158C32.0119 40.7225 31.7771 40.5707 31.5194 40.4694C31.2662 40.3699 30.9958 40.3212 30.7238 40.3259H27.5616C27.4782 40.3258 27.3983 40.2927 27.3393 40.2338C27.2805 40.175 27.2473 40.0952 27.2471 40.012C27.2471 40.0119 27.2471 40.0117 27.2471 40.0116M27.5606 44.4767L27.2471 40.0116M27.2471 39.8046L27.2471 40.0116M27.2471 39.8046L27.2471 40.0116M38.8171 21.3799C39.9084 21.683 41.0391 21.8061 42.165 21.7468V46.9656C42.165 47.2654 42.0458 47.553 41.8338 47.765C41.6218 47.977 41.3343 48.0961 41.0344 48.0961H14.3859C14.0861 48.0961 13.7985 47.977 13.5865 47.765C13.3745 47.553 13.2554 47.2654 13.2554 46.9656V23.7439L20.3038 23.7439L20.3049 23.7439C21.4239 23.7427 22.4967 23.2977 23.288 22.5064C24.0793 21.7152 24.5244 20.6423 24.5256 19.5233V19.5222V12.041H31.1857C31.2736 13.288 31.5846 14.5114 32.1061 15.6524C32.7396 17.0385 33.6686 18.2693 34.8278 19.2587C35.9871 20.2481 37.3486 20.9721 38.8171 21.3799ZM18.2904 35.0222L18.3018 35.0224H18.3132H30.7339H30.734H30.7454L30.7568 35.0222C31.299 35.0098 31.8148 34.7857 32.1939 34.3979C32.5731 34.0101 32.7853 33.4893 32.7853 32.9469C32.7853 32.4046 32.5731 31.8838 32.1939 31.4959C31.8148 31.1081 31.299 30.884 30.7568 30.8717L30.7454 30.8714H30.734H18.3132H18.3018L18.2904 30.8717C17.7482 30.884 17.2324 31.1081 16.8533 31.4959C16.4742 31.8838 16.2619 32.4046 16.2619 32.9469C16.2619 33.4893 16.4742 34.0101 16.8533 34.3979C17.2324 34.7857 17.7482 35.0098 18.2904 35.0222ZM36.728 44.4767H36.7402L36.7524 44.4764C37.294 44.4632 37.809 44.2388 38.1874 43.8511C38.5658 43.4633 38.7776 42.943 38.7776 42.4012C38.7776 41.8594 38.5658 41.3391 38.1874 40.9514C37.809 40.5637 37.294 40.3393 36.7524 40.3261L36.7402 40.3258H36.728H35.0935H35.0813L35.0691 40.3261C34.5275 40.3393 34.0125 40.5637 33.6341 40.9514C33.2557 41.3391 33.0439 41.8594 33.0439 42.4012C33.0439 42.943 33.2557 43.4633 33.6341 43.8511C34.0125 44.2388 34.5275 44.4632 35.0692 44.4764L35.0813 44.4767H35.0935H36.728ZM36.728 30.0271H36.7402L36.7524 30.0268C37.294 30.0136 37.809 29.7892 38.1874 29.4015C38.5658 29.0138 38.7776 28.4934 38.7776 27.9517C38.7776 27.4099 38.5658 26.8896 38.1874 26.5018C37.809 26.1141 37.294 25.8897 36.7524 25.8765L36.7402 25.8762H36.728H18.3132H18.301L18.2889 25.8765C17.7473 25.8897 17.2323 26.1141 16.8538 26.5018C16.4754 26.8896 16.2636 27.4099 16.2636 27.9517C16.2636 28.4934 16.4754 29.0138 16.8538 29.4015C17.2322 29.7892 17.7473 30.0136 18.2889 30.0268L18.301 30.0271H18.3132H36.728Z" stroke="#F6A52D" stroke-width="2"/>
<path d="M10.8029 10.8041L11.51 11.5111L10.8029 10.8041C10.7895 10.8174 10.7714 10.825 10.7524 10.8251C10.7524 10.8251 10.7523 10.8251 10.7522 10.8251L6.08142 10.8251L10.8239 5.88157L10.8239 10.7534C10.8239 10.7535 10.8239 10.7535 10.8239 10.7536C10.8238 10.7725 10.8163 10.7907 10.8029 10.8041Z" stroke="#F6A52D" stroke-width="2"/>
<path d="M10.753 13.976H3.70459V14.976M10.753 13.976L10.7027 20.1791C10.3184 20.5798 10.1039 21.1135 10.1039 21.6686V39.3283H9.10389M10.753 13.976C11.6072 13.9751 12.4262 13.6354 13.0302 13.0314C13.6342 12.4274 13.9739 11.6084 13.9748 10.7542L10.753 13.976ZM3.70459 14.976H2.70459V38.1978C2.70459 38.7629 2.92906 39.3048 3.32861 39.7043C3.72816 40.1039 4.27006 40.3283 4.83511 40.3283H9.10389V39.3283M3.70459 14.976V38.1978C3.70459 38.4976 3.8237 38.7852 4.03571 38.9972C4.24773 39.2092 4.53528 39.3283 4.83511 39.3283H9.10389M3.70459 14.976L10.753 14.976L10.7541 14.976C11.8731 14.9748 12.946 14.5297 13.7373 13.7385C14.5285 12.9472 14.9736 11.8743 14.9748 10.7553V10.7542V3.27325H31.4837C31.7835 3.27325 32.071 3.39236 32.2831 3.60438L32.9895 2.89798L32.2831 3.60438C32.4951 3.81639 32.6142 4.10394 32.6142 4.40378V5.9292C32.2491 6.55049 31.9495 7.20746 31.7198 7.88955H22.4506C22.4506 7.88955 22.4505 7.88955 22.4505 7.88955C22.0256 7.88953 21.6051 7.97543 21.2143 8.14207C20.8235 8.30872 20.4703 8.55269 20.1762 8.8593L20.1762 8.85932L9.98111 19.4868L9.98108 19.4869C9.41816 20.0737 9.10386 20.8554 9.10389 21.6686C9.10389 21.6687 9.10389 21.6687 9.10389 21.6687V39.3283" stroke="#F6A52D" stroke-width="2"/>
<path d="M40.8804 10.5311L40.4643 10.0457C40.4643 10.0457 40.4642 10.0457 40.4642 10.0456C40.1059 9.62759 39.5961 9.369 39.0472 9.32677L38.9704 10.3238L39.0472 9.32677C38.4981 9.28453 37.9548 9.46212 37.5367 9.82047C37.1187 10.1788 36.8601 10.6886 36.8178 11.2376C36.7756 11.7866 36.9532 12.3299 37.3115 12.748C37.3115 12.748 37.3115 12.748 37.3115 12.748L39.2952 15.0624L39.296 15.0634C39.4904 15.2895 39.7312 15.4712 40.0021 15.596C40.2729 15.7208 40.5675 15.7859 40.8658 15.7867H40.8685H40.8716H40.872C41.1694 15.7865 41.4632 15.7226 41.7337 15.599L41.3183 14.6894L41.7337 15.599C42.0042 15.4755 42.245 15.2953 42.4398 15.0707L42.4402 15.0703L46.4863 10.4001L46.4868 10.3999L46.6463 10.2157C46.8247 10.0097 46.9609 9.77049 47.0469 9.51183C47.1329 9.25316 47.1671 8.98008 47.1476 8.70818C47.1281 8.43629 47.0552 8.1709 46.9331 7.92717C46.811 7.68343 46.6421 7.46613 46.4361 7.28768L45.7814 8.0436L46.4361 7.28767C46.23 7.10922 45.9908 6.97309 45.7322 6.88708C45.4735 6.80106 45.2004 6.76683 44.9285 6.78635C44.6566 6.80587 44.3912 6.87875 44.1475 7.00083L44.5849 7.87412L44.1475 7.00083C43.9038 7.12289 43.6865 7.29175 43.5081 7.49777C43.5081 7.4978 43.508 7.49783 43.508 7.49787L40.8804 10.5311ZM38.1418 5.94605C39.1891 5.2463 40.4204 4.87282 41.6799 4.87283C43.3689 4.87285 44.9887 5.5438 46.1829 6.73809C47.3772 7.93238 48.0481 9.55217 48.0481 11.2411C48.0481 12.5007 47.6746 13.7319 46.9749 14.7792C46.2751 15.8265 45.2805 16.6427 44.1169 17.1247C42.9532 17.6067 41.6727 17.7328 40.4374 17.4871C39.2021 17.2413 38.0674 16.6348 37.1767 15.7442C36.2861 14.8536 35.6796 13.7188 35.4339 12.4835C35.1882 11.2482 35.3143 9.9677 35.7963 8.80405C36.2783 7.64039 37.0946 6.6458 38.1418 5.94605Z" stroke="#F6A52D" stroke-width="2"/>
</svg>
