<svg width="51" height="52" viewBox="0 0 51 52" fill="none" xmlns="http://www.w3.org/2000/svg">
<path d="M25.5 31.3702C28.5759 31.3702 31.0781 28.8681 31.0781 25.7921C31.0781 22.7162 28.5759 20.214 25.5 20.214C22.4241 20.214 19.9219 22.7162 19.9219 25.7921C19.9219 28.8681 22.4241 31.3702 25.5 31.3702ZM25.5 21.8077C27.697 21.8077 29.4844 23.5951 29.4844 25.7921C29.4844 27.9891 27.697 29.7765 25.5 29.7765C23.303 29.7765 21.5156 27.9891 21.5156 25.7921C21.5156 23.5951 23.303 21.8077 25.5 21.8077Z" fill="url(#paint0_linear_290_364)"/>
<path d="M25.5 28.1827C26.818 28.1827 27.8906 27.1101 27.8906 25.7921C27.8906 24.4741 26.818 23.4015 25.5 23.4015C24.182 23.4015 23.1094 24.4741 23.1094 25.7921C23.1094 27.1101 24.182 28.1827 25.5 28.1827ZM25.5 24.9952C25.9391 24.9952 26.2969 25.353 26.2969 25.7921C26.2969 26.2312 25.9391 26.589 25.5 26.589C25.0609 26.589 24.7031 26.2312 24.7031 25.7921C24.7031 25.353 25.0609 24.9952 25.5 24.9952Z" fill="url(#paint1_linear_290_364)"/>
<path d="M47.0156 1.08899C45.2577 1.08899 43.8281 2.51858 43.8281 4.27649C43.8281 6.0344 45.2577 7.46399 47.0156 7.46399C48.7735 7.46399 50.2031 6.0344 50.2031 4.27649C50.2031 2.51858 48.7735 1.08899 47.0156 1.08899ZM47.0156 5.87024C46.1367 5.87024 45.4219 5.15544 45.4219 4.27649C45.4219 3.39754 46.1367 2.68274 47.0156 2.68274C47.8946 2.68274 48.6094 3.39754 48.6094 4.27649C48.6094 5.15544 47.8946 5.87024 47.0156 5.87024Z" fill="url(#paint2_linear_290_364)"/>
<path d="M3.98438 50.4952C5.74228 50.4952 7.17188 49.0656 7.17188 47.3077C7.17188 45.5498 5.74228 44.1202 3.98438 44.1202C2.22647 44.1202 0.796875 45.5498 0.796875 47.3077C0.796875 49.0656 2.22647 50.4952 3.98438 50.4952ZM3.98438 45.714C4.86333 45.714 5.57812 46.4288 5.57812 47.3077C5.57812 48.1867 4.86333 48.9015 3.98438 48.9015C3.10542 48.9015 2.39062 48.1867 2.39062 47.3077C2.39062 46.4288 3.10542 45.714 3.98438 45.714Z" fill="url(#paint3_linear_290_364)"/>
<path d="M47.0156 44.1202C45.2577 44.1202 43.8281 45.5498 43.8281 47.3077C43.8281 49.0656 45.2577 50.4952 47.0156 50.4952C48.7735 50.4952 50.2031 49.0656 50.2031 47.3077C50.2031 45.5498 48.7735 44.1202 47.0156 44.1202ZM47.0156 48.9015C46.1367 48.9015 45.4219 48.1867 45.4219 47.3077C45.4219 46.4288 46.1367 45.714 47.0156 45.714C47.8946 45.714 48.6094 46.4288 48.6094 47.3077C48.6094 48.1867 47.8946 48.9015 47.0156 48.9015Z" fill="url(#paint4_linear_290_364)"/>
<path d="M3.98438 7.46399C5.74228 7.46399 7.17188 6.0344 7.17188 4.27649C7.17188 2.51858 5.74228 1.08899 3.98438 1.08899C2.22647 1.08899 0.796875 2.51858 0.796875 4.27649C0.796875 6.0344 2.22647 7.46399 3.98438 7.46399ZM3.98438 2.68274C4.86333 2.68274 5.57812 3.39754 5.57812 4.27649C5.57812 5.15544 4.86333 5.87024 3.98438 5.87024C3.10542 5.87024 2.39062 5.15544 2.39062 4.27649C2.39062 3.39754 3.10542 2.68274 3.98438 2.68274Z" fill="url(#paint5_linear_290_364)"/>
<path d="M23.1094 7.46398H24.7032V18.6202H26.2969V7.46398H27.8907C28.1776 7.46398 28.4429 7.30939 28.584 7.05997C28.7258 6.81054 28.7218 6.50375 28.5736 6.25751L26.183 2.27314C25.8953 1.79262 25.104 1.79262 24.8164 2.27314L22.4257 6.25751C22.2775 6.50375 22.2743 6.81054 22.4154 7.05997C22.5572 7.30939 22.8226 7.46398 23.1094 7.46398ZM25.5001 4.23186L26.4834 5.87023H24.5167L25.5001 4.23186Z" fill="url(#paint6_linear_290_364)"/>
<path d="M24.7032 32.964V44.1202H23.1094C22.8226 44.1202 22.5572 44.2748 22.4162 44.5243C22.2743 44.7737 22.2783 45.0805 22.4265 45.3267L24.8171 49.3111C24.9606 49.5517 25.2204 49.6984 25.5001 49.6984C25.7798 49.6984 26.0395 49.5517 26.183 49.3119L28.5736 45.3275C28.7218 45.0813 28.725 44.7745 28.584 44.5251C28.4429 44.2748 28.1776 44.1202 27.8907 44.1202H26.2969V32.964H24.7032ZM25.5001 47.3524L24.5167 45.714H26.4834L25.5001 47.3524Z" fill="url(#paint7_linear_290_364)"/>
<path d="M31.1349 21.2842L39.024 13.3951L40.1507 14.5219C40.3022 14.6733 40.5054 14.7554 40.7141 14.7554C40.7851 14.7554 40.8568 14.7458 40.9269 14.7267C41.2034 14.6502 41.4178 14.4303 41.4871 14.1522L42.6139 9.64426C42.6816 9.37252 42.6019 9.08565 42.4043 8.88722C42.2067 8.6888 41.9206 8.60911 41.6473 8.67765L37.1394 9.80443C36.8612 9.87376 36.6413 10.0881 36.5648 10.3646C36.4883 10.6411 36.5664 10.9376 36.7696 11.1408L37.8964 12.2676L30.0073 20.1566L31.1349 21.2842ZM40.7452 10.5471L40.2814 12.4006L38.8909 11.0101L40.7452 10.5471Z" fill="url(#paint8_linear_290_364)"/>
<path d="M9.15917 42.9297C9.22371 42.9297 9.28826 42.9218 9.35281 42.9058L13.8607 41.779C14.1388 41.7097 14.3588 41.4953 14.4353 41.2188C14.5118 40.9423 14.4337 40.6459 14.2305 40.4427L13.1037 39.3159L20.9928 31.4268L19.866 30.3L11.9769 38.1891L10.8501 37.0623C10.6469 36.8591 10.3513 36.7802 10.074 36.8575C9.79746 36.934 9.5831 37.154 9.51377 37.4321L8.38699 41.94C8.31926 42.2117 8.39895 42.4986 8.59657 42.697C8.74718 42.8476 8.95038 42.9297 9.15917 42.9297ZM10.7179 39.1836L12.1084 40.5742L10.2549 41.0379L10.7179 39.1836Z" fill="url(#paint9_linear_290_364)"/>
<path d="M41.4868 37.4313C41.4175 37.1531 41.2031 36.9332 40.9266 36.8567C40.6477 36.7794 40.3528 36.8583 40.1504 37.0615L39.0237 38.1883L31.1346 30.2992L30.0078 31.426L37.8969 39.3151L36.7701 40.4418C36.5669 40.6451 36.4888 40.9415 36.5653 41.218C36.6418 41.4945 36.8617 41.7089 37.1398 41.7782L41.6478 42.905C41.7123 42.9209 41.7769 42.9289 41.8414 42.9289C42.0502 42.9289 42.2534 42.8468 42.4048 42.6954C42.6032 42.497 42.6821 42.2101 42.6144 41.9384L41.4868 37.4313ZM38.8914 40.5741L40.2819 39.1836L40.7457 41.0371L38.8914 40.5741Z" fill="url(#paint10_linear_290_364)"/>
<path d="M9.51321 14.153C9.58254 14.4311 9.79689 14.651 10.0734 14.7275C10.1435 14.7466 10.2153 14.7562 10.2862 14.7562C10.495 14.7562 10.6982 14.6741 10.8496 14.5227L11.9763 13.3959L19.8654 21.285L20.9922 20.1582L13.1031 12.2692L14.2299 11.1424C14.4331 10.9392 14.5112 10.6427 14.4347 10.3662C14.3582 10.0897 14.1383 9.87535 13.8602 9.80602L9.35224 8.67924C9.0805 8.6123 8.79363 8.69119 8.59521 8.88881C8.39679 9.08724 8.31789 9.37411 8.38563 9.64585L9.51321 14.153ZM12.1086 11.0101L10.7181 12.4006L10.2543 10.5471L12.1086 11.0101Z" fill="url(#paint11_linear_290_364)"/>
<path d="M44.2321 28.876C44.3541 28.9454 44.4895 28.9796 44.625 28.9796C44.7668 28.9796 44.9087 28.9422 45.0354 28.8657L49.0198 26.475C49.2596 26.3316 49.4062 26.0718 49.4062 25.7921C49.4062 25.5124 49.2596 25.2526 49.0198 25.1092L45.0354 22.7186C44.7892 22.5704 44.4824 22.5664 44.2329 22.7082C43.9827 22.8493 43.8281 23.1146 43.8281 23.4015V24.9952H32.6719V26.589H43.8281V28.1827C43.8281 28.4696 43.9827 28.735 44.2321 28.876ZM45.4219 24.8088L47.0602 25.7921L45.4219 26.7755V24.8088Z" fill="url(#paint12_linear_290_364)"/>
<path d="M6.76786 22.7082C6.51844 22.5664 6.21164 22.5704 5.96541 22.7186L1.98103 25.1092C1.74038 25.2526 1.59375 25.5124 1.59375 25.7921C1.59375 26.0718 1.74037 26.3316 1.98023 26.475L5.96461 28.8657C6.09131 28.9422 6.23316 28.9796 6.375 28.9796C6.51047 28.9796 6.64594 28.9454 6.76786 28.876C7.01728 28.735 7.17188 28.4696 7.17188 28.1827V26.589H18.3281V24.9952H7.17188V23.4015C7.17188 23.1146 7.01728 22.8493 6.76786 22.7082ZM5.57812 26.7755L3.93975 25.7921L5.57812 24.8088V26.7755Z" fill="url(#paint13_linear_290_364)"/>
<defs>
<linearGradient id="paint0_linear_290_364" x1="25.5" y1="20.214" x2="25.5" y2="31.3702" gradientUnits="userSpaceOnUse">
<stop offset="1" stop-color="#FABE25"/>
</linearGradient>
<linearGradient id="paint1_linear_290_364" x1="25.5" y1="23.4015" x2="25.5" y2="28.1827" gradientUnits="userSpaceOnUse">
<stop offset="1" stop-color="#FABE25"/>
</linearGradient>
<linearGradient id="paint2_linear_290_364" x1="47.0156" y1="1.08899" x2="47.0156" y2="7.46399" gradientUnits="userSpaceOnUse">
<stop offset="1" stop-color="#FABE25"/>
</linearGradient>
<linearGradient id="paint3_linear_290_364" x1="3.98438" y1="44.1202" x2="3.98438" y2="50.4952" gradientUnits="userSpaceOnUse">
<stop offset="1" stop-color="#FABE25"/>
</linearGradient>
<linearGradient id="paint4_linear_290_364" x1="47.0156" y1="44.1202" x2="47.0156" y2="50.4952" gradientUnits="userSpaceOnUse">
<stop offset="1" stop-color="#FABE25"/>
</linearGradient>
<linearGradient id="paint5_linear_290_364" x1="3.98438" y1="1.08899" x2="3.98438" y2="7.46399" gradientUnits="userSpaceOnUse">
<stop offset="1" stop-color="#FABE25"/>
</linearGradient>
<linearGradient id="paint6_linear_290_364" x1="25.4998" y1="1.91275" x2="25.4998" y2="18.6202" gradientUnits="userSpaceOnUse">
<stop offset="1" stop-color="#FABE25"/>
</linearGradient>
<linearGradient id="paint7_linear_290_364" x1="25.4999" y1="32.964" x2="25.4999" y2="49.6984" gradientUnits="userSpaceOnUse">
<stop offset="1" stop-color="#FABE25"/>
</linearGradient>
<linearGradient id="paint8_linear_290_364" x1="36.3225" y1="8.6535" x2="36.3225" y2="21.2842" gradientUnits="userSpaceOnUse">
<stop offset="1" stop-color="#FABE25"/>
</linearGradient>
<linearGradient id="paint9_linear_290_364" x1="14.678" y1="30.3" x2="14.678" y2="42.9297" gradientUnits="userSpaceOnUse">
<stop offset="1" stop-color="#FABE25"/>
</linearGradient>
<linearGradient id="paint10_linear_290_364" x1="36.323" y1="30.2992" x2="36.323" y2="42.9289" gradientUnits="userSpaceOnUse">
<stop offset="1" stop-color="#FABE25"/>
</linearGradient>
<linearGradient id="paint11_linear_290_364" x1="14.677" y1="8.65585" x2="14.677" y2="21.285" gradientUnits="userSpaceOnUse">
<stop offset="1" stop-color="#FABE25"/>
</linearGradient>
<linearGradient id="paint12_linear_290_364" x1="41.0391" y1="22.6046" x2="41.0391" y2="28.9796" gradientUnits="userSpaceOnUse">
<stop offset="1" stop-color="#FABE25"/>
</linearGradient>
<linearGradient id="paint13_linear_290_364" x1="9.96094" y1="22.6046" x2="9.96094" y2="28.9796" gradientUnits="userSpaceOnUse">
<stop offset="1" stop-color="#FABE25"/>
</linearGradient>
</defs>
</svg>
