<svg width="64" height="65" viewBox="0 0 64 65" fill="none" xmlns="http://www.w3.org/2000/svg">
<path d="M42.9972 47.5232L42.9972 47.5504L42.9986 47.5776C43.1386 50.2025 42.2492 52.0563 40.5376 53.3005C38.7621 54.591 35.9759 55.3161 32.1783 55.3161C28.3987 55.3161 25.5902 54.6037 23.753 53.3202C21.9727 52.0764 21.0002 50.2252 21.0002 47.6255V44.9588C21.0002 42.9337 22.6418 41.2921 24.6668 41.2921H39.3335C41.3582 41.2921 42.9995 42.9331 43.0002 44.9576C43.0002 44.9577 43.0002 44.9577 43.0002 44.9578C43.0002 44.9581 43.0002 44.9584 43.0002 44.9588L42.9972 47.5232ZM10.0001 27.9588L20.4517 27.959C20.3738 28.5036 20.3335 29.06 20.3335 29.6254C20.3335 32.3442 21.2644 34.8469 22.8235 36.8302C22.5619 36.8893 22.3048 36.9607 22.053 37.0438L22.0528 37.0439C19.6769 37.8283 17.775 39.6506 16.8835 41.9761C13.4193 41.9009 10.8202 41.1983 9.08633 39.9869C7.30602 38.7431 6.3335 36.8919 6.3335 34.2921V31.6254C6.3335 29.6004 7.97511 27.9588 10.0001 27.9588ZM43.6668 29.6254C43.6668 29.0601 43.6266 28.5037 43.5486 27.959L54.0002 27.9588C56.0248 27.9588 57.6662 29.5998 57.6668 31.6243C57.6668 31.6243 57.6668 31.6244 57.6668 31.6244C57.6668 31.6248 57.6668 31.6251 57.6668 31.6254L57.6639 34.1899L57.6639 34.2171L57.6653 34.2443C57.8052 36.8692 56.9159 38.723 55.2043 39.9671C53.4718 41.2264 50.7768 41.9474 47.1189 41.9815C46.2589 39.7333 44.4546 37.9546 42.1907 37.1284C41.8618 37.0084 41.5233 36.9085 41.1769 36.8302C42.7359 34.8469 43.6668 32.3445 43.6668 29.6254ZM32.0002 22.6254C35.8663 22.6254 39.0002 25.7595 39.0002 29.6254C39.0002 33.4916 35.8663 36.6254 32.0002 36.6254C28.134 36.6254 25.0002 33.4916 25.0002 29.6254C25.0002 25.7595 28.1341 22.6254 32.0002 22.6254ZM17.3335 9.29211C21.1995 9.29211 24.3335 12.4261 24.3335 16.2921C24.3335 20.1581 21.1995 23.2921 17.3335 23.2921C13.4675 23.2921 10.3335 20.1581 10.3335 16.2921C10.3335 12.4261 13.4675 9.29211 17.3335 9.29211ZM46.6668 9.29211C50.5329 9.29211 53.6668 12.4261 53.6668 16.2921C53.6668 20.1581 50.5329 23.2921 46.6668 23.2921C42.8007 23.2921 39.6668 20.1581 39.6668 16.2921C39.6668 12.4261 42.8007 9.29211 46.6668 9.29211Z" stroke="url(#paint0_linear_290_423)" stroke-width="2"/>
<defs>
<linearGradient id="paint0_linear_290_423" x1="32.0065" y1="8.29211" x2="32.0065" y2="56.3161" gradientUnits="userSpaceOnUse">
<stop offset="1" stop-color="#FABE25"/>
</linearGradient>
</defs>
</svg>
