<svg width="51" height="52" viewBox="0 0 51 52" fill="none" xmlns="http://www.w3.org/2000/svg">
<path d="M20.3534 19.8641C20.34 19.8775 20.3219 19.885 20.303 19.8851C20.3029 19.8851 20.3028 19.8851 20.3028 19.8851L15.6318 19.8853L20.3744 14.9414L20.3744 19.8135C20.3744 19.8135 20.3744 19.8136 20.3744 19.8137C20.3744 19.8326 20.3668 19.8507 20.3534 19.8641C20.3534 19.8641 20.3534 19.8641 20.3534 19.8641Z" stroke="#F6A52D" stroke-width="2"/>
<path d="M27.5606 44.7688H27.5593C26.4517 44.7675 25.384 44.3549 24.5632 43.611C24.1319 43.2201 23.7849 42.7522 23.5368 42.2363L20.298 44.4159C19.8413 44.7233 19.2812 44.8367 18.7408 44.7312L18.9326 43.7497L18.7408 44.7312C18.2005 44.6256 17.7242 44.3097 17.4168 43.853C17.1094 43.3963 16.996 42.8361 17.1015 42.2958C17.2071 41.7555 17.523 41.2792 17.9797 40.9718L17.9799 40.9716L22.8005 37.7287C23.2298 37.4394 23.7298 37.2725 24.2468 37.2457C24.7638 37.219 25.2783 37.3334 25.7353 37.5767L25.2652 38.4594L25.7353 37.5767C26.1922 37.8201 26.5743 38.1832 26.8406 38.6271C27.1069 39.071 27.2474 39.5791 27.2471 40.0968M27.5606 44.7688L27.2471 40.0968M27.5606 44.7688H30.7157C30.9904 44.7747 31.2636 44.726 31.5194 44.6255L31.1537 43.6948L31.5194 44.6255C31.7771 44.5242 32.0119 44.3724 32.21 44.1791C32.4082 43.9857 32.5656 43.7547 32.6731 43.4995C32.7806 43.2444 32.836 42.9704 32.836 42.6935C32.836 42.4167 32.7806 42.1426 32.6731 41.8875C32.5656 41.6324 32.4082 41.4013 32.21 41.208C32.0119 41.0146 31.7771 40.8628 31.5194 40.7616C31.2662 40.662 30.9958 40.6133 30.7238 40.6181H27.5616C27.4782 40.618 27.3983 40.5848 27.3393 40.5259C27.2805 40.4671 27.2473 40.3873 27.2471 40.3041C27.2471 40.304 27.2471 40.3039 27.2471 40.3037M27.5606 44.7688L27.2471 40.3037M27.2471 40.0968L27.2471 40.3037M27.2471 40.0968L27.2471 40.3037M38.8171 21.672C39.9084 21.9751 41.0391 22.0982 42.165 22.0389V47.2577C42.165 47.5575 42.0458 47.8451 41.8338 48.0571C41.6218 48.2691 41.3343 48.3882 41.0344 48.3882H14.3859C14.0861 48.3882 13.7985 48.2691 13.5865 48.0571C13.3745 47.8451 13.2554 47.5575 13.2554 47.2577V24.036L20.3038 24.036L20.3049 24.036C21.4239 24.0349 22.4967 23.5898 23.288 22.7986C24.0793 22.0073 24.5244 20.9345 24.5256 19.8154V19.8144V12.3331H31.1857C31.2736 13.5801 31.5846 14.8036 32.1061 15.9445C32.7396 17.3306 33.6686 18.5615 34.8278 19.5508C35.9871 20.5402 37.3486 21.2642 38.8171 21.672ZM18.2904 35.3143L18.3018 35.3145H18.3132H30.7339H30.734H30.7454L30.7568 35.3143C31.299 35.3019 31.8148 35.0779 32.1939 34.69C32.5731 34.3022 32.7853 33.7814 32.7853 33.239C32.7853 32.6967 32.5731 32.1759 32.1939 31.788C31.8148 31.4002 31.299 31.1761 30.7568 31.1638L30.7454 31.1635H30.734H18.3132H18.3018L18.2904 31.1638C17.7482 31.1761 17.2324 31.4002 16.8533 31.788C16.4742 32.1759 16.2619 32.6967 16.2619 33.239C16.2619 33.7814 16.4742 34.3022 16.8533 34.69C17.2324 35.0779 17.7482 35.3019 18.2904 35.3143ZM36.728 44.7688H36.7402L36.7524 44.7685C37.294 44.7553 37.809 44.5309 38.1874 44.1432C38.5658 43.7554 38.7776 43.2351 38.7776 42.6934C38.7776 42.1516 38.5658 41.6313 38.1874 41.2435C37.809 40.8558 37.294 40.6314 36.7524 40.6182L36.7402 40.6179H36.728H35.0935H35.0813L35.0691 40.6182C34.5275 40.6314 34.0125 40.8558 33.6341 41.2435C33.2557 41.6313 33.0439 42.1516 33.0439 42.6934C33.0439 43.2351 33.2557 43.7554 33.6341 44.1432C34.0125 44.5309 34.5275 44.7553 35.0692 44.7685L35.0813 44.7688H35.0935H36.728ZM36.728 30.3192H36.7402L36.7524 30.3189C37.294 30.3058 37.809 30.0813 38.1874 29.6936C38.5658 29.3059 38.7776 28.7856 38.7776 28.2438C38.7776 27.702 38.5658 27.1817 38.1874 26.794C37.809 26.4062 37.294 26.1818 36.7524 26.1686L36.7402 26.1683H36.728H18.3132H18.301L18.2889 26.1686C17.7473 26.1818 17.2323 26.4062 16.8538 26.794C16.4754 27.1817 16.2636 27.702 16.2636 28.2438C16.2636 28.7856 16.4754 29.3059 16.8538 29.6936C17.2322 30.0813 17.7473 30.3058 18.2889 30.3189L18.301 30.3192H18.3132H36.728Z" stroke="#F6A52D" stroke-width="2"/>
<path d="M10.8029 11.0962L11.51 11.8033L10.8029 11.0962C10.7895 11.1096 10.7714 11.1171 10.7524 11.1172C10.7524 11.1172 10.7523 11.1172 10.7522 11.1172L6.08142 11.1172L10.8239 6.17369L10.8239 11.0455C10.8239 11.0456 10.8239 11.0457 10.8239 11.0457C10.8238 11.0647 10.8163 11.0828 10.8029 11.0962Z" stroke="#F6A52D" stroke-width="2"/>
<path d="M10.753 14.2681H3.70459V15.2681M10.753 14.2681L10.7027 20.4712C10.3184 20.8719 10.1039 21.4056 10.1039 21.9607V39.6204H9.10389M10.753 14.2681C11.6072 14.2672 12.4262 13.9275 13.0302 13.3235C13.6342 12.7195 13.9739 11.9005 13.9748 11.0463L10.753 14.2681ZM3.70459 15.2681H2.70459V38.4899C2.70459 39.055 2.92906 39.5969 3.32861 39.9964C3.72816 40.396 4.27006 40.6204 4.83511 40.6204H9.10389V39.6204M3.70459 15.2681V38.4899C3.70459 38.7898 3.8237 39.0773 4.03571 39.2893C4.24773 39.5013 4.53528 39.6204 4.83511 39.6204H9.10389M3.70459 15.2681L10.753 15.2681L10.7541 15.2681C11.8731 15.2669 12.946 14.8219 13.7373 14.0306C14.5285 13.2393 14.9736 12.1664 14.9748 11.0474V11.0463V3.56536H31.4837C31.7835 3.56536 32.071 3.68447 32.2831 3.89648L32.9895 3.19009L32.2831 3.89648C32.4951 4.10849 32.6142 4.39605 32.6142 4.69589V6.22131C32.2491 6.84259 31.9495 7.49957 31.7198 8.18165H22.4506C22.4506 8.18165 22.4505 8.18165 22.4505 8.18165C22.0256 8.18164 21.6051 8.26753 21.2143 8.43418C20.8235 8.60083 20.4703 8.84479 20.1762 9.1514L20.1762 9.15143L9.98111 19.7789L9.98108 19.779C9.41816 20.3658 9.10386 21.1476 9.10389 21.9607C9.10389 21.9608 9.10389 21.9608 9.10389 21.9608V39.6204" stroke="#F6A52D" stroke-width="2"/>
<path d="M40.8804 10.8232L40.4643 10.3378C40.4643 10.3378 40.4642 10.3378 40.4642 10.3377C40.1059 9.91969 39.5961 9.6611 39.0472 9.61887L38.9704 10.6159L39.0472 9.61887C38.4981 9.57663 37.9548 9.75422 37.5367 10.1126C37.1187 10.4709 36.8601 10.9807 36.8178 11.5297C36.7756 12.0787 36.9532 12.622 37.3115 13.0401C37.3115 13.0401 37.3115 13.0401 37.3115 13.0401L39.2952 15.3545L39.296 15.3555C39.4904 15.5816 39.7312 15.7633 40.0021 15.8881C40.2729 16.0129 40.5675 16.078 40.8658 16.0788H40.8685H40.8716H40.872C41.1694 16.0786 41.4632 16.0147 41.7337 15.8911L41.3183 14.9815L41.7337 15.8911C42.0042 15.7676 42.245 15.5874 42.4398 15.3628L42.4402 15.3624L46.4863 10.6922L46.4868 10.692L46.6463 10.5078C46.8247 10.3018 46.9609 10.0626 47.0469 9.80393C47.1329 9.54526 47.1671 9.27218 47.1476 9.00028C47.1281 8.72839 47.0552 8.463 46.9331 8.21926C46.811 7.97553 46.6421 7.75823 46.4361 7.57978L45.7814 8.3357L46.4361 7.57977C46.23 7.40131 45.9908 7.26519 45.7322 7.17917C45.4735 7.09316 45.2004 7.05893 44.9285 7.07845C44.6566 7.09797 44.3912 7.17085 44.1475 7.29293L44.5849 8.16622L44.1475 7.29293C43.9038 7.41499 43.6865 7.58385 43.5081 7.78987C43.5081 7.7899 43.508 7.78993 43.508 7.78997L40.8804 10.8232ZM38.1418 6.23815C39.1891 5.5384 40.4204 5.16492 41.6799 5.16493C43.3689 5.16495 44.9887 5.8359 46.1829 7.03019C47.3772 8.22448 48.0481 9.84427 48.0481 11.5332C48.0481 12.7928 47.6746 14.024 46.9749 15.0713C46.2751 16.1185 45.2805 16.9348 44.1169 17.4168C42.9532 17.8988 41.6727 18.0249 40.4374 17.7792C39.2021 17.5334 38.0674 16.9269 37.1767 16.0363C36.2861 15.1457 35.6796 14.0109 35.4339 12.7756C35.1882 11.5403 35.3143 10.2598 35.7963 9.09614C36.2783 7.93249 37.0946 6.9379 38.1418 6.23815Z" stroke="#F6A52D" stroke-width="2"/>
</svg>
