<svg width="75" height="76" viewBox="0 0 75 76" fill="none" xmlns="http://www.w3.org/2000/svg">
<path d="M56.25 32.0421C56.25 36.6949 54.9533 41.0435 52.702 44.7484L46.1994 33.0421H52.15H53.1501L53.15 32.042C53.1496 27.1099 51.4455 22.3293 48.3261 18.5089C45.2067 14.6885 40.8633 12.063 36.0309 11.0763C31.1984 10.0897 26.1735 10.8026 21.8062 13.0944C17.4388 15.3862 13.9972 19.1162 12.0634 23.6534C10.1296 28.1907 9.8225 33.2566 11.1939 37.9943C12.5654 42.7319 15.5312 46.8504 19.5897 49.6531C23.6481 52.4557 28.5501 53.7704 33.4664 53.3748C37.9536 53.0138 42.2013 51.2481 45.614 48.3456L47.1466 51.1021C42.7985 54.6244 37.3636 56.5505 31.7515 56.5421H31.75C18.2186 56.5421 7.25 45.5735 7.25 32.0421C7.25 18.5107 18.2186 7.54211 31.75 7.54211C45.2814 7.54211 56.25 18.5107 56.25 32.0421ZM39.4 30.4921H40.95V41.2421H22.55V30.4921H24.1H25.1V29.4921V26.9421C25.1 25.1784 25.8006 23.487 27.0477 22.2399C28.2949 20.9927 29.9863 20.2921 31.75 20.2921C33.5137 20.2921 35.2051 20.9927 36.4523 22.2399C37.6994 23.487 38.4 25.1784 38.4 26.9421V29.4921V30.4921H39.4ZM37.85 34.5921V33.5921H36.85H26.65H25.65V34.5921V37.1421V38.1421H26.65H36.85H37.85V37.1421V34.5921ZM31.8097 23.3939L31.7798 23.3921L31.7499 23.3921C30.8804 23.3922 30.0411 23.7115 29.3913 24.2893C28.7416 24.867 28.3265 25.6632 28.2247 26.5268L28.2214 26.5553L28.2196 26.584L28.2018 26.8824L28.2 26.9122V26.9421V29.4921V30.4921H29.2H34.3H35.3V29.4921V26.9421V26.942C35.2999 26.0725 34.9807 25.2332 34.4029 24.5835C33.8251 23.9337 33.0289 23.5186 32.1653 23.4168L32.1368 23.4135L32.1081 23.4117L31.8097 23.3939Z" stroke="#F6A52D" stroke-width="2"/>
</svg>
