<svg width="51" height="52" viewBox="0 0 51 52" fill="none" xmlns="http://www.w3.org/2000/svg">
<path d="M25.5 28.9171H25.5219L25.5438 28.9162C32.4848 28.612 38.5024 26.9722 42.826 24.2847C41.9379 25.7601 40.3163 27.1355 37.9812 28.2842C34.3616 30.0648 29.2568 31.1671 23.375 31.1671C17.4933 31.1671 12.388 30.0649 8.76775 28.289C6.46783 27.1608 4.86145 25.8154 3.96543 24.3754C8.24277 27.0363 14.246 28.6498 21.2118 28.9164L21.2309 28.9171H21.25H23.375H25.5ZM43.625 13.0421C43.625 15.5078 41.7581 17.8997 38.095 19.7313C34.4701 21.5437 29.3202 22.6671 23.375 22.6671C17.4298 22.6671 12.2799 21.5437 8.65503 19.7313C4.99193 17.8997 3.125 15.5078 3.125 13.0421C3.125 10.5764 4.99193 8.1845 8.65503 6.35296C12.2799 4.54054 17.4298 3.41712 23.375 3.41712C29.3202 3.41712 34.4701 4.54054 38.095 6.35296C41.7581 8.1845 43.625 10.5764 43.625 13.0421ZM8.11406 41.1755C12.939 44.2185 19.8598 45.9171 27.625 45.9171C35.5573 45.9171 42.3374 44.2393 47.0816 41.2839C46.1984 42.7606 44.5839 44.1362 42.2544 45.2846C38.6436 47.0646 33.5394 48.1671 27.625 48.1671C21.7109 48.1671 16.5915 47.0594 12.9735 45.2668C10.6084 44.0951 8.98179 42.688 8.11406 41.1755ZM47.5917 28.4028C47.7703 28.9303 47.8668 29.4854 47.875 30.0487C47.8717 32.5121 46.0048 34.9014 42.345 36.7313C38.7201 38.5437 33.5702 39.6671 27.625 39.6671C22.8639 39.6671 18.6102 38.9475 15.2401 37.7243C13.7663 37.1894 12.481 36.5656 11.4007 35.8766C15.2889 36.9794 19.3277 37.5011 23.3854 37.4171C29.4666 37.416 34.8794 36.4117 39.2041 34.6038C42.8241 33.0905 45.7303 30.9918 47.5917 28.4028Z" stroke="#F6A52D" stroke-width="2"/>
</svg>
