<svg width="71" height="72" viewBox="0 0 71 72" fill="none" xmlns="http://www.w3.org/2000/svg">
<path d="M55.4611 12.3493L55.4614 12.3495C55.7222 12.6102 55.8686 12.9639 55.8686 13.3327V27.6765C55.8686 28.4445 55.246 29.0671 54.478 29.0671C53.71 29.0671 53.0874 28.4445 53.0874 27.6765V18.7526V16.4854L51.4131 18.0141L37.0873 31.094C37.0873 31.094 37.0873 31.0941 37.0872 31.0941C36.5379 31.5954 35.692 31.5762 35.166 31.0505C35.166 31.0504 35.166 31.0504 35.166 31.0504L30.4816 26.3659L29.7745 25.6588L29.0674 26.3659L14.0239 41.4097L14.721 42.1068L14.0239 41.4097C13.4808 41.9528 12.6003 41.9528 12.0573 41.4097L12.0572 41.4097C11.5141 40.8666 11.5141 39.9863 12.0572 39.4432L28.7911 22.7088L28.7912 22.7088C29.0519 22.448 29.4056 22.3015 29.7745 22.3015C30.1433 22.3015 30.497 22.448 30.7578 22.7088L35.5174 27.4685L36.1931 28.1442L36.8988 27.4999L48.9883 16.4619L50.8924 14.7234H48.314H40.134C39.366 14.7234 38.7433 14.1008 38.7433 13.3328C38.7433 12.5647 39.3657 11.9422 40.134 11.9421L54.478 11.9421C54.8469 11.9421 55.2006 12.0887 55.4611 12.3493ZM53.587 40.8478L53.5869 40.8479L44.2545 48.847L41.1716 45.7641L41.1714 45.764C40.1584 44.7515 38.5164 44.7515 37.5034 45.764L37.503 45.7643C36.4905 46.7773 36.4905 48.4194 37.503 49.4324L37.5032 49.4326L42.2844 54.2138L42.2846 54.214C43.243 55.1718 44.7774 55.2312 45.8067 54.3488C45.8067 54.3488 45.8067 54.3488 45.8068 54.3487L56.9628 44.7864C58.0509 43.854 58.1761 42.2167 57.2442 41.1292C56.3118 40.0411 54.6744 39.9159 53.587 40.8478ZM60.6499 47.5983C60.6499 54.968 54.6758 60.9421 47.3061 60.9421C39.9365 60.9421 33.9624 54.968 33.9624 47.5983C33.9624 40.2287 39.9365 34.2546 47.3061 34.2546C54.6758 34.2546 60.6499 40.2287 60.6499 47.5983Z" stroke="#F6A52D" stroke-width="2"/>
</svg>
