<svg width="51" height="51" viewBox="0 0 51 51" fill="none" xmlns="http://www.w3.org/2000/svg">
<g clip-path="url(#clip0_290_520)">
<path d="M37.4149 29.4979L37.414 29.4987C36.3249 30.4248 34.6867 30.2987 33.7579 29.207M37.4149 29.4979L34.519 28.5584M37.4149 29.4979C38.505 28.5688 38.6344 26.93 37.7038 25.8406L37.4149 29.4979ZM33.7579 29.207C33.7576 29.2067 33.7574 29.2064 33.7571 29.2061L34.519 28.5584M33.7579 29.207C33.758 29.2071 33.7581 29.2072 33.7582 29.2073L34.519 28.5584M33.7579 29.207C31.3462 26.3792 28.4033 24.9062 25.5 24.9062C21.967 24.9062 18.6552 26.9814 16.1842 30.5508C13.7162 34.1158 12.1562 39.0913 12.1562 44.625C12.1562 44.8231 12.1594 45.0212 12.1649 45.2188M34.519 28.5584C31.9611 25.559 28.7576 23.9062 25.5 23.9062C17.5902 23.9062 11.1562 33.201 11.1562 44.625C11.1562 45.1669 11.1786 45.704 11.2088 46.2188M12.1649 45.2188H11.2088V46.2188M12.1649 45.2188H38.8351M12.1649 45.2188C12.1738 45.5352 12.1889 45.8499 12.2071 46.16L11.2088 46.2188M11.2088 46.2188L38.8351 45.2188M38.8351 45.2188C38.8262 45.5352 38.8111 45.8499 38.7929 46.16L39.7912 46.2188V45.2188H38.8351ZM38.8351 45.2188C38.8406 45.0212 38.8438 44.8231 38.8438 44.625C38.8438 43.4463 38.7699 42.2881 38.6275 41.1836M38.8351 45.2188L42.8496 47.9607C42.9388 46.9901 43.0312 45.8363 43.0312 44.625C43.0312 43.2671 42.9452 41.9268 42.7778 40.6406L43.7695 40.5119C43.7695 40.5118 43.7695 40.5117 43.7695 40.5116C43.5865 39.1027 42.2935 38.0767 40.8564 38.2759M38.6275 41.1836C38.6276 41.1843 38.6277 41.185 38.6278 41.1857L39.619 41.0534L38.6272 41.1813C38.6273 41.1821 38.6274 41.1828 38.6275 41.1836ZM38.6275 41.1836C38.439 39.7624 39.4429 38.4644 40.8564 38.2759M40.8564 38.2759C40.8551 38.2761 40.8537 38.2763 40.8524 38.2765L40.9912 39.2668L40.8607 38.2754C40.8593 38.2756 40.8579 38.2757 40.8564 38.2759ZM33.323 22.0335C34.9067 23.0157 36.383 24.2929 37.7033 25.84L33.323 22.0335ZM33.323 22.0335C35.9665 19.8064 37.6562 16.477 37.6562 12.75C37.6562 6.04575 32.2025 0.59375 25.5 0.59375C18.7975 0.59375 13.3438 6.04575 13.3438 12.75C13.3438 16.489 15.0451 19.8272 17.7017 22.0549L33.323 22.0335ZM18.5312 12.75C18.5312 8.90832 21.6583 5.78125 25.5 5.78125C29.3417 5.78125 32.4688 8.90832 32.4688 12.75C32.4688 16.5917 29.3417 19.7188 25.5 19.7188C21.6583 19.7188 18.5312 16.5917 18.5312 12.75Z" stroke="#F6A52D" stroke-width="2"/>
<path d="M49.7043 23.7264L49.7061 23.7283C50.6822 24.7717 50.6335 26.4135 49.5873 27.3921C49.5873 27.3921 49.5873 27.3921 49.5872 27.3922L32.5533 43.3296L32.5522 43.3307C32.0536 43.7956 31.4172 44.0297 30.78 44.0297C30.1447 44.0297 29.5054 43.7968 29.0067 43.3296L49.7043 23.7264ZM49.7043 23.7264C48.7226 22.6825 47.0869 22.6311 46.041 23.6046L46.0391 23.6064L30.7785 37.8845L24.0842 31.6198L24.0832 31.6188C23.0375 30.643 21.3981 30.6933 20.4172 31.7416L20.4171 31.7417C19.4391 32.7871 19.4934 34.4288 20.5391 35.407C20.5391 35.4071 20.5391 35.4071 20.5391 35.4071L29.0059 43.3289L49.7043 23.7264Z" stroke="#F6A52D" stroke-width="2"/>
</g>
<defs>
<clipPath id="clip0_290_520">
<rect width="51" height="51" fill="white"/>
</clipPath>
</defs>
</svg>
